%TF.GenerationSoftware,KiCad,Pcbnew,(6.0.10)*%
%TF.CreationDate,2022-12-25T17:32:20-06:00*%
%TF.ProjectId,fluke_87v_clock_v1,666c756b-655f-4383-9776-5f636c6f636b,rev?*%
%TF.SameCoordinates,Original*%
%TF.FileFunction,Legend,Top*%
%TF.FilePolarity,Positive*%
%FSLAX46Y46*%
G04 Gerber Fmt 4.6, Leading zero omitted, Abs format (unit mm)*
G04 Created by KiCad (PCBNEW (6.0.10)) date 2022-12-25 17:32:20*
%MOMM*%
%LPD*%
G01*
G04 APERTURE LIST*
%ADD10C,0.150000*%
%ADD11C,0.160000*%
%ADD12C,0.180000*%
%ADD13C,0.200000*%
%ADD14C,0.500000*%
%ADD15C,0.010000*%
%ADD16C,0.120000*%
%ADD17C,0.127000*%
G04 APERTURE END LIST*
D10*
X101000000Y-158300000D02*
G75*
G03*
X99000000Y-158300000I-1000000J-17455D01*
G01*
X71186311Y-112779061D02*
X70714907Y-113721870D01*
X71657716Y-113250465D01*
X71523029Y-114529992D02*
X71186311Y-114193274D01*
X71893418Y-113486168D01*
X72230135Y-115102412D02*
X72162792Y-115102412D01*
X72028105Y-115035068D01*
X71960761Y-114967725D01*
X71893418Y-114833038D01*
X71893418Y-114698351D01*
X71927090Y-114597335D01*
X72028105Y-114428977D01*
X72129120Y-114327961D01*
X72297479Y-114226946D01*
X72398494Y-114193274D01*
X72533181Y-114193274D01*
X72667868Y-114260618D01*
X72735212Y-114327961D01*
X72802555Y-114462648D01*
X72802555Y-114529992D01*
X72465838Y-115472801D02*
X73172944Y-114765694D01*
X73341303Y-114934053D01*
X73408647Y-115068740D01*
X73408647Y-115203427D01*
X73374975Y-115304442D01*
X73273960Y-115472801D01*
X73172944Y-115573816D01*
X73004586Y-115674831D01*
X72903570Y-115708503D01*
X72768883Y-115708503D01*
X72634196Y-115641160D01*
X72465838Y-115472801D01*
X119357142Y-52180833D02*
X119404761Y-52228452D01*
X119452380Y-52371309D01*
X119452380Y-52466547D01*
X119404761Y-52609404D01*
X119309523Y-52704642D01*
X119214285Y-52752261D01*
X119023809Y-52799880D01*
X118880952Y-52799880D01*
X118690476Y-52752261D01*
X118595238Y-52704642D01*
X118500000Y-52609404D01*
X118452380Y-52466547D01*
X118452380Y-52371309D01*
X118500000Y-52228452D01*
X118547619Y-52180833D01*
X118452380Y-51561785D02*
X118452380Y-51371309D01*
X118500000Y-51276071D01*
X118595238Y-51180833D01*
X118785714Y-51133214D01*
X119119047Y-51133214D01*
X119309523Y-51180833D01*
X119404761Y-51276071D01*
X119452380Y-51371309D01*
X119452380Y-51561785D01*
X119404761Y-51657023D01*
X119309523Y-51752261D01*
X119119047Y-51799880D01*
X118785714Y-51799880D01*
X118595238Y-51752261D01*
X118500000Y-51657023D01*
X118452380Y-51561785D01*
X119452380Y-50704642D02*
X118452380Y-50704642D01*
X119166666Y-50371309D01*
X118452380Y-50037976D01*
X119452380Y-50037976D01*
X118452380Y-49657023D02*
X118452380Y-49037976D01*
X118833333Y-49371309D01*
X118833333Y-49228452D01*
X118880952Y-49133214D01*
X118928571Y-49085595D01*
X119023809Y-49037976D01*
X119261904Y-49037976D01*
X119357142Y-49085595D01*
X119404761Y-49133214D01*
X119452380Y-49228452D01*
X119452380Y-49514166D01*
X119404761Y-49609404D01*
X119357142Y-49657023D01*
X117404761Y-52466547D02*
X117452380Y-52323690D01*
X117452380Y-52085595D01*
X117404761Y-51990357D01*
X117357142Y-51942738D01*
X117261904Y-51895119D01*
X117166666Y-51895119D01*
X117071428Y-51942738D01*
X117023809Y-51990357D01*
X116976190Y-52085595D01*
X116928571Y-52276071D01*
X116880952Y-52371309D01*
X116833333Y-52418928D01*
X116738095Y-52466547D01*
X116642857Y-52466547D01*
X116547619Y-52418928D01*
X116500000Y-52371309D01*
X116452380Y-52276071D01*
X116452380Y-52037976D01*
X116500000Y-51895119D01*
X116928571Y-51466547D02*
X116928571Y-51133214D01*
X117452380Y-50990357D02*
X117452380Y-51466547D01*
X116452380Y-51466547D01*
X116452380Y-50990357D01*
X116500000Y-50037976D02*
X116452380Y-50133214D01*
X116452380Y-50276071D01*
X116500000Y-50418928D01*
X116595238Y-50514166D01*
X116690476Y-50561785D01*
X116880952Y-50609404D01*
X117023809Y-50609404D01*
X117214285Y-50561785D01*
X117309523Y-50514166D01*
X117404761Y-50418928D01*
X117452380Y-50276071D01*
X117452380Y-50180833D01*
X117404761Y-50037976D01*
X117357142Y-49990357D01*
X117023809Y-49990357D01*
X117023809Y-50180833D01*
X116452380Y-49371309D02*
X116452380Y-49276071D01*
X116500000Y-49180833D01*
X116547619Y-49133214D01*
X116642857Y-49085595D01*
X116833333Y-49037976D01*
X117071428Y-49037976D01*
X117261904Y-49085595D01*
X117357142Y-49133214D01*
X117404761Y-49180833D01*
X117452380Y-49276071D01*
X117452380Y-49371309D01*
X117404761Y-49466547D01*
X117357142Y-49514166D01*
X117261904Y-49561785D01*
X117071428Y-49609404D01*
X116833333Y-49609404D01*
X116642857Y-49561785D01*
X116547619Y-49514166D01*
X116500000Y-49466547D01*
X116452380Y-49371309D01*
X115404761Y-52466547D02*
X115452380Y-52323690D01*
X115452380Y-52085595D01*
X115404761Y-51990357D01*
X115357142Y-51942738D01*
X115261904Y-51895119D01*
X115166666Y-51895119D01*
X115071428Y-51942738D01*
X115023809Y-51990357D01*
X114976190Y-52085595D01*
X114928571Y-52276071D01*
X114880952Y-52371309D01*
X114833333Y-52418928D01*
X114738095Y-52466547D01*
X114642857Y-52466547D01*
X114547619Y-52418928D01*
X114500000Y-52371309D01*
X114452380Y-52276071D01*
X114452380Y-52037976D01*
X114500000Y-51895119D01*
X114928571Y-51466547D02*
X114928571Y-51133214D01*
X115452380Y-50990357D02*
X115452380Y-51466547D01*
X114452380Y-51466547D01*
X114452380Y-50990357D01*
X114500000Y-50037976D02*
X114452380Y-50133214D01*
X114452380Y-50276071D01*
X114500000Y-50418928D01*
X114595238Y-50514166D01*
X114690476Y-50561785D01*
X114880952Y-50609404D01*
X115023809Y-50609404D01*
X115214285Y-50561785D01*
X115309523Y-50514166D01*
X115404761Y-50418928D01*
X115452380Y-50276071D01*
X115452380Y-50180833D01*
X115404761Y-50037976D01*
X115357142Y-49990357D01*
X115023809Y-49990357D01*
X115023809Y-50180833D01*
X115452380Y-49037976D02*
X115452380Y-49609404D01*
X115452380Y-49323690D02*
X114452380Y-49323690D01*
X114595238Y-49418928D01*
X114690476Y-49514166D01*
X114738095Y-49609404D01*
X113404761Y-52466547D02*
X113452380Y-52323690D01*
X113452380Y-52085595D01*
X113404761Y-51990357D01*
X113357142Y-51942738D01*
X113261904Y-51895119D01*
X113166666Y-51895119D01*
X113071428Y-51942738D01*
X113023809Y-51990357D01*
X112976190Y-52085595D01*
X112928571Y-52276071D01*
X112880952Y-52371309D01*
X112833333Y-52418928D01*
X112738095Y-52466547D01*
X112642857Y-52466547D01*
X112547619Y-52418928D01*
X112500000Y-52371309D01*
X112452380Y-52276071D01*
X112452380Y-52037976D01*
X112500000Y-51895119D01*
X112928571Y-51466547D02*
X112928571Y-51133214D01*
X113452380Y-50990357D02*
X113452380Y-51466547D01*
X112452380Y-51466547D01*
X112452380Y-50990357D01*
X112500000Y-50037976D02*
X112452380Y-50133214D01*
X112452380Y-50276071D01*
X112500000Y-50418928D01*
X112595238Y-50514166D01*
X112690476Y-50561785D01*
X112880952Y-50609404D01*
X113023809Y-50609404D01*
X113214285Y-50561785D01*
X113309523Y-50514166D01*
X113404761Y-50418928D01*
X113452380Y-50276071D01*
X113452380Y-50180833D01*
X113404761Y-50037976D01*
X113357142Y-49990357D01*
X113023809Y-49990357D01*
X113023809Y-50180833D01*
X112547619Y-49609404D02*
X112500000Y-49561785D01*
X112452380Y-49466547D01*
X112452380Y-49228452D01*
X112500000Y-49133214D01*
X112547619Y-49085595D01*
X112642857Y-49037976D01*
X112738095Y-49037976D01*
X112880952Y-49085595D01*
X113452380Y-49657023D01*
X113452380Y-49037976D01*
X111404761Y-52466547D02*
X111452380Y-52323690D01*
X111452380Y-52085595D01*
X111404761Y-51990357D01*
X111357142Y-51942738D01*
X111261904Y-51895119D01*
X111166666Y-51895119D01*
X111071428Y-51942738D01*
X111023809Y-51990357D01*
X110976190Y-52085595D01*
X110928571Y-52276071D01*
X110880952Y-52371309D01*
X110833333Y-52418928D01*
X110738095Y-52466547D01*
X110642857Y-52466547D01*
X110547619Y-52418928D01*
X110500000Y-52371309D01*
X110452380Y-52276071D01*
X110452380Y-52037976D01*
X110500000Y-51895119D01*
X110928571Y-51466547D02*
X110928571Y-51133214D01*
X111452380Y-50990357D02*
X111452380Y-51466547D01*
X110452380Y-51466547D01*
X110452380Y-50990357D01*
X110500000Y-50037976D02*
X110452380Y-50133214D01*
X110452380Y-50276071D01*
X110500000Y-50418928D01*
X110595238Y-50514166D01*
X110690476Y-50561785D01*
X110880952Y-50609404D01*
X111023809Y-50609404D01*
X111214285Y-50561785D01*
X111309523Y-50514166D01*
X111404761Y-50418928D01*
X111452380Y-50276071D01*
X111452380Y-50180833D01*
X111404761Y-50037976D01*
X111357142Y-49990357D01*
X111023809Y-49990357D01*
X111023809Y-50180833D01*
X110452380Y-49657023D02*
X110452380Y-49037976D01*
X110833333Y-49371309D01*
X110833333Y-49228452D01*
X110880952Y-49133214D01*
X110928571Y-49085595D01*
X111023809Y-49037976D01*
X111261904Y-49037976D01*
X111357142Y-49085595D01*
X111404761Y-49133214D01*
X111452380Y-49228452D01*
X111452380Y-49514166D01*
X111404761Y-49609404D01*
X111357142Y-49657023D01*
X109404761Y-52466547D02*
X109452380Y-52323690D01*
X109452380Y-52085595D01*
X109404761Y-51990357D01*
X109357142Y-51942738D01*
X109261904Y-51895119D01*
X109166666Y-51895119D01*
X109071428Y-51942738D01*
X109023809Y-51990357D01*
X108976190Y-52085595D01*
X108928571Y-52276071D01*
X108880952Y-52371309D01*
X108833333Y-52418928D01*
X108738095Y-52466547D01*
X108642857Y-52466547D01*
X108547619Y-52418928D01*
X108500000Y-52371309D01*
X108452380Y-52276071D01*
X108452380Y-52037976D01*
X108500000Y-51895119D01*
X108928571Y-51466547D02*
X108928571Y-51133214D01*
X109452380Y-50990357D02*
X109452380Y-51466547D01*
X108452380Y-51466547D01*
X108452380Y-50990357D01*
X108500000Y-50037976D02*
X108452380Y-50133214D01*
X108452380Y-50276071D01*
X108500000Y-50418928D01*
X108595238Y-50514166D01*
X108690476Y-50561785D01*
X108880952Y-50609404D01*
X109023809Y-50609404D01*
X109214285Y-50561785D01*
X109309523Y-50514166D01*
X109404761Y-50418928D01*
X109452380Y-50276071D01*
X109452380Y-50180833D01*
X109404761Y-50037976D01*
X109357142Y-49990357D01*
X109023809Y-49990357D01*
X109023809Y-50180833D01*
X108785714Y-49133214D02*
X109452380Y-49133214D01*
X108404761Y-49371309D02*
X109119047Y-49609404D01*
X109119047Y-48990357D01*
X107404761Y-52466547D02*
X107452380Y-52323690D01*
X107452380Y-52085595D01*
X107404761Y-51990357D01*
X107357142Y-51942738D01*
X107261904Y-51895119D01*
X107166666Y-51895119D01*
X107071428Y-51942738D01*
X107023809Y-51990357D01*
X106976190Y-52085595D01*
X106928571Y-52276071D01*
X106880952Y-52371309D01*
X106833333Y-52418928D01*
X106738095Y-52466547D01*
X106642857Y-52466547D01*
X106547619Y-52418928D01*
X106500000Y-52371309D01*
X106452380Y-52276071D01*
X106452380Y-52037976D01*
X106500000Y-51895119D01*
X106928571Y-51466547D02*
X106928571Y-51133214D01*
X107452380Y-50990357D02*
X107452380Y-51466547D01*
X106452380Y-51466547D01*
X106452380Y-50990357D01*
X106500000Y-50037976D02*
X106452380Y-50133214D01*
X106452380Y-50276071D01*
X106500000Y-50418928D01*
X106595238Y-50514166D01*
X106690476Y-50561785D01*
X106880952Y-50609404D01*
X107023809Y-50609404D01*
X107214285Y-50561785D01*
X107309523Y-50514166D01*
X107404761Y-50418928D01*
X107452380Y-50276071D01*
X107452380Y-50180833D01*
X107404761Y-50037976D01*
X107357142Y-49990357D01*
X107023809Y-49990357D01*
X107023809Y-50180833D01*
X106452380Y-49085595D02*
X106452380Y-49561785D01*
X106928571Y-49609404D01*
X106880952Y-49561785D01*
X106833333Y-49466547D01*
X106833333Y-49228452D01*
X106880952Y-49133214D01*
X106928571Y-49085595D01*
X107023809Y-49037976D01*
X107261904Y-49037976D01*
X107357142Y-49085595D01*
X107404761Y-49133214D01*
X107452380Y-49228452D01*
X107452380Y-49466547D01*
X107404761Y-49561785D01*
X107357142Y-49609404D01*
X105404761Y-52466547D02*
X105452380Y-52323690D01*
X105452380Y-52085595D01*
X105404761Y-51990357D01*
X105357142Y-51942738D01*
X105261904Y-51895119D01*
X105166666Y-51895119D01*
X105071428Y-51942738D01*
X105023809Y-51990357D01*
X104976190Y-52085595D01*
X104928571Y-52276071D01*
X104880952Y-52371309D01*
X104833333Y-52418928D01*
X104738095Y-52466547D01*
X104642857Y-52466547D01*
X104547619Y-52418928D01*
X104500000Y-52371309D01*
X104452380Y-52276071D01*
X104452380Y-52037976D01*
X104500000Y-51895119D01*
X104928571Y-51466547D02*
X104928571Y-51133214D01*
X105452380Y-50990357D02*
X105452380Y-51466547D01*
X104452380Y-51466547D01*
X104452380Y-50990357D01*
X104500000Y-50037976D02*
X104452380Y-50133214D01*
X104452380Y-50276071D01*
X104500000Y-50418928D01*
X104595238Y-50514166D01*
X104690476Y-50561785D01*
X104880952Y-50609404D01*
X105023809Y-50609404D01*
X105214285Y-50561785D01*
X105309523Y-50514166D01*
X105404761Y-50418928D01*
X105452380Y-50276071D01*
X105452380Y-50180833D01*
X105404761Y-50037976D01*
X105357142Y-49990357D01*
X105023809Y-49990357D01*
X105023809Y-50180833D01*
X104452380Y-49133214D02*
X104452380Y-49323690D01*
X104500000Y-49418928D01*
X104547619Y-49466547D01*
X104690476Y-49561785D01*
X104880952Y-49609404D01*
X105261904Y-49609404D01*
X105357142Y-49561785D01*
X105404761Y-49514166D01*
X105452380Y-49418928D01*
X105452380Y-49228452D01*
X105404761Y-49133214D01*
X105357142Y-49085595D01*
X105261904Y-49037976D01*
X105023809Y-49037976D01*
X104928571Y-49085595D01*
X104880952Y-49133214D01*
X104833333Y-49228452D01*
X104833333Y-49418928D01*
X104880952Y-49514166D01*
X104928571Y-49561785D01*
X105023809Y-49609404D01*
X103404761Y-52466547D02*
X103452380Y-52323690D01*
X103452380Y-52085595D01*
X103404761Y-51990357D01*
X103357142Y-51942738D01*
X103261904Y-51895119D01*
X103166666Y-51895119D01*
X103071428Y-51942738D01*
X103023809Y-51990357D01*
X102976190Y-52085595D01*
X102928571Y-52276071D01*
X102880952Y-52371309D01*
X102833333Y-52418928D01*
X102738095Y-52466547D01*
X102642857Y-52466547D01*
X102547619Y-52418928D01*
X102500000Y-52371309D01*
X102452380Y-52276071D01*
X102452380Y-52037976D01*
X102500000Y-51895119D01*
X102928571Y-51466547D02*
X102928571Y-51133214D01*
X103452380Y-50990357D02*
X103452380Y-51466547D01*
X102452380Y-51466547D01*
X102452380Y-50990357D01*
X102500000Y-50037976D02*
X102452380Y-50133214D01*
X102452380Y-50276071D01*
X102500000Y-50418928D01*
X102595238Y-50514166D01*
X102690476Y-50561785D01*
X102880952Y-50609404D01*
X103023809Y-50609404D01*
X103214285Y-50561785D01*
X103309523Y-50514166D01*
X103404761Y-50418928D01*
X103452380Y-50276071D01*
X103452380Y-50180833D01*
X103404761Y-50037976D01*
X103357142Y-49990357D01*
X103023809Y-49990357D01*
X103023809Y-50180833D01*
X102452380Y-49657023D02*
X102452380Y-48990357D01*
X103452380Y-49418928D01*
X101404761Y-52466547D02*
X101452380Y-52323690D01*
X101452380Y-52085595D01*
X101404761Y-51990357D01*
X101357142Y-51942738D01*
X101261904Y-51895119D01*
X101166666Y-51895119D01*
X101071428Y-51942738D01*
X101023809Y-51990357D01*
X100976190Y-52085595D01*
X100928571Y-52276071D01*
X100880952Y-52371309D01*
X100833333Y-52418928D01*
X100738095Y-52466547D01*
X100642857Y-52466547D01*
X100547619Y-52418928D01*
X100500000Y-52371309D01*
X100452380Y-52276071D01*
X100452380Y-52037976D01*
X100500000Y-51895119D01*
X100928571Y-51466547D02*
X100928571Y-51133214D01*
X101452380Y-50990357D02*
X101452380Y-51466547D01*
X100452380Y-51466547D01*
X100452380Y-50990357D01*
X100500000Y-50037976D02*
X100452380Y-50133214D01*
X100452380Y-50276071D01*
X100500000Y-50418928D01*
X100595238Y-50514166D01*
X100690476Y-50561785D01*
X100880952Y-50609404D01*
X101023809Y-50609404D01*
X101214285Y-50561785D01*
X101309523Y-50514166D01*
X101404761Y-50418928D01*
X101452380Y-50276071D01*
X101452380Y-50180833D01*
X101404761Y-50037976D01*
X101357142Y-49990357D01*
X101023809Y-49990357D01*
X101023809Y-50180833D01*
X100880952Y-49418928D02*
X100833333Y-49514166D01*
X100785714Y-49561785D01*
X100690476Y-49609404D01*
X100642857Y-49609404D01*
X100547619Y-49561785D01*
X100500000Y-49514166D01*
X100452380Y-49418928D01*
X100452380Y-49228452D01*
X100500000Y-49133214D01*
X100547619Y-49085595D01*
X100642857Y-49037976D01*
X100690476Y-49037976D01*
X100785714Y-49085595D01*
X100833333Y-49133214D01*
X100880952Y-49228452D01*
X100880952Y-49418928D01*
X100928571Y-49514166D01*
X100976190Y-49561785D01*
X101071428Y-49609404D01*
X101261904Y-49609404D01*
X101357142Y-49561785D01*
X101404761Y-49514166D01*
X101452380Y-49418928D01*
X101452380Y-49228452D01*
X101404761Y-49133214D01*
X101357142Y-49085595D01*
X101261904Y-49037976D01*
X101071428Y-49037976D01*
X100976190Y-49085595D01*
X100928571Y-49133214D01*
X100880952Y-49228452D01*
X99404761Y-52466547D02*
X99452380Y-52323690D01*
X99452380Y-52085595D01*
X99404761Y-51990357D01*
X99357142Y-51942738D01*
X99261904Y-51895119D01*
X99166666Y-51895119D01*
X99071428Y-51942738D01*
X99023809Y-51990357D01*
X98976190Y-52085595D01*
X98928571Y-52276071D01*
X98880952Y-52371309D01*
X98833333Y-52418928D01*
X98738095Y-52466547D01*
X98642857Y-52466547D01*
X98547619Y-52418928D01*
X98500000Y-52371309D01*
X98452380Y-52276071D01*
X98452380Y-52037976D01*
X98500000Y-51895119D01*
X98928571Y-51466547D02*
X98928571Y-51133214D01*
X99452380Y-50990357D02*
X99452380Y-51466547D01*
X98452380Y-51466547D01*
X98452380Y-50990357D01*
X98500000Y-50037976D02*
X98452380Y-50133214D01*
X98452380Y-50276071D01*
X98500000Y-50418928D01*
X98595238Y-50514166D01*
X98690476Y-50561785D01*
X98880952Y-50609404D01*
X99023809Y-50609404D01*
X99214285Y-50561785D01*
X99309523Y-50514166D01*
X99404761Y-50418928D01*
X99452380Y-50276071D01*
X99452380Y-50180833D01*
X99404761Y-50037976D01*
X99357142Y-49990357D01*
X99023809Y-49990357D01*
X99023809Y-50180833D01*
X99452380Y-49514166D02*
X99452380Y-49323690D01*
X99404761Y-49228452D01*
X99357142Y-49180833D01*
X99214285Y-49085595D01*
X99023809Y-49037976D01*
X98642857Y-49037976D01*
X98547619Y-49085595D01*
X98500000Y-49133214D01*
X98452380Y-49228452D01*
X98452380Y-49418928D01*
X98500000Y-49514166D01*
X98547619Y-49561785D01*
X98642857Y-49609404D01*
X98880952Y-49609404D01*
X98976190Y-49561785D01*
X99023809Y-49514166D01*
X99071428Y-49418928D01*
X99071428Y-49228452D01*
X99023809Y-49133214D01*
X98976190Y-49085595D01*
X98880952Y-49037976D01*
X97404761Y-53418928D02*
X97452380Y-53276071D01*
X97452380Y-53037976D01*
X97404761Y-52942738D01*
X97357142Y-52895119D01*
X97261904Y-52847500D01*
X97166666Y-52847500D01*
X97071428Y-52895119D01*
X97023809Y-52942738D01*
X96976190Y-53037976D01*
X96928571Y-53228452D01*
X96880952Y-53323690D01*
X96833333Y-53371309D01*
X96738095Y-53418928D01*
X96642857Y-53418928D01*
X96547619Y-53371309D01*
X96500000Y-53323690D01*
X96452380Y-53228452D01*
X96452380Y-52990357D01*
X96500000Y-52847500D01*
X96928571Y-52418928D02*
X96928571Y-52085595D01*
X97452380Y-51942738D02*
X97452380Y-52418928D01*
X96452380Y-52418928D01*
X96452380Y-51942738D01*
X96500000Y-50990357D02*
X96452380Y-51085595D01*
X96452380Y-51228452D01*
X96500000Y-51371309D01*
X96595238Y-51466547D01*
X96690476Y-51514166D01*
X96880952Y-51561785D01*
X97023809Y-51561785D01*
X97214285Y-51514166D01*
X97309523Y-51466547D01*
X97404761Y-51371309D01*
X97452380Y-51228452D01*
X97452380Y-51133214D01*
X97404761Y-50990357D01*
X97357142Y-50942738D01*
X97023809Y-50942738D01*
X97023809Y-51133214D01*
X97452380Y-49990357D02*
X97452380Y-50561785D01*
X97452380Y-50276071D02*
X96452380Y-50276071D01*
X96595238Y-50371309D01*
X96690476Y-50466547D01*
X96738095Y-50561785D01*
X96452380Y-49371309D02*
X96452380Y-49276071D01*
X96500000Y-49180833D01*
X96547619Y-49133214D01*
X96642857Y-49085595D01*
X96833333Y-49037976D01*
X97071428Y-49037976D01*
X97261904Y-49085595D01*
X97357142Y-49133214D01*
X97404761Y-49180833D01*
X97452380Y-49276071D01*
X97452380Y-49371309D01*
X97404761Y-49466547D01*
X97357142Y-49514166D01*
X97261904Y-49561785D01*
X97071428Y-49609404D01*
X96833333Y-49609404D01*
X96642857Y-49561785D01*
X96547619Y-49514166D01*
X96500000Y-49466547D01*
X96452380Y-49371309D01*
X95404761Y-53418928D02*
X95452380Y-53276071D01*
X95452380Y-53037976D01*
X95404761Y-52942738D01*
X95357142Y-52895119D01*
X95261904Y-52847500D01*
X95166666Y-52847500D01*
X95071428Y-52895119D01*
X95023809Y-52942738D01*
X94976190Y-53037976D01*
X94928571Y-53228452D01*
X94880952Y-53323690D01*
X94833333Y-53371309D01*
X94738095Y-53418928D01*
X94642857Y-53418928D01*
X94547619Y-53371309D01*
X94500000Y-53323690D01*
X94452380Y-53228452D01*
X94452380Y-52990357D01*
X94500000Y-52847500D01*
X94928571Y-52418928D02*
X94928571Y-52085595D01*
X95452380Y-51942738D02*
X95452380Y-52418928D01*
X94452380Y-52418928D01*
X94452380Y-51942738D01*
X94500000Y-50990357D02*
X94452380Y-51085595D01*
X94452380Y-51228452D01*
X94500000Y-51371309D01*
X94595238Y-51466547D01*
X94690476Y-51514166D01*
X94880952Y-51561785D01*
X95023809Y-51561785D01*
X95214285Y-51514166D01*
X95309523Y-51466547D01*
X95404761Y-51371309D01*
X95452380Y-51228452D01*
X95452380Y-51133214D01*
X95404761Y-50990357D01*
X95357142Y-50942738D01*
X95023809Y-50942738D01*
X95023809Y-51133214D01*
X95452380Y-49990357D02*
X95452380Y-50561785D01*
X95452380Y-50276071D02*
X94452380Y-50276071D01*
X94595238Y-50371309D01*
X94690476Y-50466547D01*
X94738095Y-50561785D01*
X95452380Y-49037976D02*
X95452380Y-49609404D01*
X95452380Y-49323690D02*
X94452380Y-49323690D01*
X94595238Y-49418928D01*
X94690476Y-49514166D01*
X94738095Y-49609404D01*
X93404761Y-53418928D02*
X93452380Y-53276071D01*
X93452380Y-53037976D01*
X93404761Y-52942738D01*
X93357142Y-52895119D01*
X93261904Y-52847500D01*
X93166666Y-52847500D01*
X93071428Y-52895119D01*
X93023809Y-52942738D01*
X92976190Y-53037976D01*
X92928571Y-53228452D01*
X92880952Y-53323690D01*
X92833333Y-53371309D01*
X92738095Y-53418928D01*
X92642857Y-53418928D01*
X92547619Y-53371309D01*
X92500000Y-53323690D01*
X92452380Y-53228452D01*
X92452380Y-52990357D01*
X92500000Y-52847500D01*
X92928571Y-52418928D02*
X92928571Y-52085595D01*
X93452380Y-51942738D02*
X93452380Y-52418928D01*
X92452380Y-52418928D01*
X92452380Y-51942738D01*
X92500000Y-50990357D02*
X92452380Y-51085595D01*
X92452380Y-51228452D01*
X92500000Y-51371309D01*
X92595238Y-51466547D01*
X92690476Y-51514166D01*
X92880952Y-51561785D01*
X93023809Y-51561785D01*
X93214285Y-51514166D01*
X93309523Y-51466547D01*
X93404761Y-51371309D01*
X93452380Y-51228452D01*
X93452380Y-51133214D01*
X93404761Y-50990357D01*
X93357142Y-50942738D01*
X93023809Y-50942738D01*
X93023809Y-51133214D01*
X93452380Y-49990357D02*
X93452380Y-50561785D01*
X93452380Y-50276071D02*
X92452380Y-50276071D01*
X92595238Y-50371309D01*
X92690476Y-50466547D01*
X92738095Y-50561785D01*
X92547619Y-49609404D02*
X92500000Y-49561785D01*
X92452380Y-49466547D01*
X92452380Y-49228452D01*
X92500000Y-49133214D01*
X92547619Y-49085595D01*
X92642857Y-49037976D01*
X92738095Y-49037976D01*
X92880952Y-49085595D01*
X93452380Y-49657023D01*
X93452380Y-49037976D01*
X91404761Y-53418928D02*
X91452380Y-53276071D01*
X91452380Y-53037976D01*
X91404761Y-52942738D01*
X91357142Y-52895119D01*
X91261904Y-52847500D01*
X91166666Y-52847500D01*
X91071428Y-52895119D01*
X91023809Y-52942738D01*
X90976190Y-53037976D01*
X90928571Y-53228452D01*
X90880952Y-53323690D01*
X90833333Y-53371309D01*
X90738095Y-53418928D01*
X90642857Y-53418928D01*
X90547619Y-53371309D01*
X90500000Y-53323690D01*
X90452380Y-53228452D01*
X90452380Y-52990357D01*
X90500000Y-52847500D01*
X90928571Y-52418928D02*
X90928571Y-52085595D01*
X91452380Y-51942738D02*
X91452380Y-52418928D01*
X90452380Y-52418928D01*
X90452380Y-51942738D01*
X90500000Y-50990357D02*
X90452380Y-51085595D01*
X90452380Y-51228452D01*
X90500000Y-51371309D01*
X90595238Y-51466547D01*
X90690476Y-51514166D01*
X90880952Y-51561785D01*
X91023809Y-51561785D01*
X91214285Y-51514166D01*
X91309523Y-51466547D01*
X91404761Y-51371309D01*
X91452380Y-51228452D01*
X91452380Y-51133214D01*
X91404761Y-50990357D01*
X91357142Y-50942738D01*
X91023809Y-50942738D01*
X91023809Y-51133214D01*
X91452380Y-49990357D02*
X91452380Y-50561785D01*
X91452380Y-50276071D02*
X90452380Y-50276071D01*
X90595238Y-50371309D01*
X90690476Y-50466547D01*
X90738095Y-50561785D01*
X90452380Y-49657023D02*
X90452380Y-49037976D01*
X90833333Y-49371309D01*
X90833333Y-49228452D01*
X90880952Y-49133214D01*
X90928571Y-49085595D01*
X91023809Y-49037976D01*
X91261904Y-49037976D01*
X91357142Y-49085595D01*
X91404761Y-49133214D01*
X91452380Y-49228452D01*
X91452380Y-49514166D01*
X91404761Y-49609404D01*
X91357142Y-49657023D01*
X89404761Y-53418928D02*
X89452380Y-53276071D01*
X89452380Y-53037976D01*
X89404761Y-52942738D01*
X89357142Y-52895119D01*
X89261904Y-52847500D01*
X89166666Y-52847500D01*
X89071428Y-52895119D01*
X89023809Y-52942738D01*
X88976190Y-53037976D01*
X88928571Y-53228452D01*
X88880952Y-53323690D01*
X88833333Y-53371309D01*
X88738095Y-53418928D01*
X88642857Y-53418928D01*
X88547619Y-53371309D01*
X88500000Y-53323690D01*
X88452380Y-53228452D01*
X88452380Y-52990357D01*
X88500000Y-52847500D01*
X88928571Y-52418928D02*
X88928571Y-52085595D01*
X89452380Y-51942738D02*
X89452380Y-52418928D01*
X88452380Y-52418928D01*
X88452380Y-51942738D01*
X88500000Y-50990357D02*
X88452380Y-51085595D01*
X88452380Y-51228452D01*
X88500000Y-51371309D01*
X88595238Y-51466547D01*
X88690476Y-51514166D01*
X88880952Y-51561785D01*
X89023809Y-51561785D01*
X89214285Y-51514166D01*
X89309523Y-51466547D01*
X89404761Y-51371309D01*
X89452380Y-51228452D01*
X89452380Y-51133214D01*
X89404761Y-50990357D01*
X89357142Y-50942738D01*
X89023809Y-50942738D01*
X89023809Y-51133214D01*
X89452380Y-49990357D02*
X89452380Y-50561785D01*
X89452380Y-50276071D02*
X88452380Y-50276071D01*
X88595238Y-50371309D01*
X88690476Y-50466547D01*
X88738095Y-50561785D01*
X88785714Y-49133214D02*
X89452380Y-49133214D01*
X88404761Y-49371309D02*
X89119047Y-49609404D01*
X89119047Y-48990357D01*
X87404761Y-53418928D02*
X87452380Y-53276071D01*
X87452380Y-53037976D01*
X87404761Y-52942738D01*
X87357142Y-52895119D01*
X87261904Y-52847500D01*
X87166666Y-52847500D01*
X87071428Y-52895119D01*
X87023809Y-52942738D01*
X86976190Y-53037976D01*
X86928571Y-53228452D01*
X86880952Y-53323690D01*
X86833333Y-53371309D01*
X86738095Y-53418928D01*
X86642857Y-53418928D01*
X86547619Y-53371309D01*
X86500000Y-53323690D01*
X86452380Y-53228452D01*
X86452380Y-52990357D01*
X86500000Y-52847500D01*
X86928571Y-52418928D02*
X86928571Y-52085595D01*
X87452380Y-51942738D02*
X87452380Y-52418928D01*
X86452380Y-52418928D01*
X86452380Y-51942738D01*
X86500000Y-50990357D02*
X86452380Y-51085595D01*
X86452380Y-51228452D01*
X86500000Y-51371309D01*
X86595238Y-51466547D01*
X86690476Y-51514166D01*
X86880952Y-51561785D01*
X87023809Y-51561785D01*
X87214285Y-51514166D01*
X87309523Y-51466547D01*
X87404761Y-51371309D01*
X87452380Y-51228452D01*
X87452380Y-51133214D01*
X87404761Y-50990357D01*
X87357142Y-50942738D01*
X87023809Y-50942738D01*
X87023809Y-51133214D01*
X87452380Y-49990357D02*
X87452380Y-50561785D01*
X87452380Y-50276071D02*
X86452380Y-50276071D01*
X86595238Y-50371309D01*
X86690476Y-50466547D01*
X86738095Y-50561785D01*
X86452380Y-49085595D02*
X86452380Y-49561785D01*
X86928571Y-49609404D01*
X86880952Y-49561785D01*
X86833333Y-49466547D01*
X86833333Y-49228452D01*
X86880952Y-49133214D01*
X86928571Y-49085595D01*
X87023809Y-49037976D01*
X87261904Y-49037976D01*
X87357142Y-49085595D01*
X87404761Y-49133214D01*
X87452380Y-49228452D01*
X87452380Y-49466547D01*
X87404761Y-49561785D01*
X87357142Y-49609404D01*
X85404761Y-53418928D02*
X85452380Y-53276071D01*
X85452380Y-53037976D01*
X85404761Y-52942738D01*
X85357142Y-52895119D01*
X85261904Y-52847500D01*
X85166666Y-52847500D01*
X85071428Y-52895119D01*
X85023809Y-52942738D01*
X84976190Y-53037976D01*
X84928571Y-53228452D01*
X84880952Y-53323690D01*
X84833333Y-53371309D01*
X84738095Y-53418928D01*
X84642857Y-53418928D01*
X84547619Y-53371309D01*
X84500000Y-53323690D01*
X84452380Y-53228452D01*
X84452380Y-52990357D01*
X84500000Y-52847500D01*
X84928571Y-52418928D02*
X84928571Y-52085595D01*
X85452380Y-51942738D02*
X85452380Y-52418928D01*
X84452380Y-52418928D01*
X84452380Y-51942738D01*
X84500000Y-50990357D02*
X84452380Y-51085595D01*
X84452380Y-51228452D01*
X84500000Y-51371309D01*
X84595238Y-51466547D01*
X84690476Y-51514166D01*
X84880952Y-51561785D01*
X85023809Y-51561785D01*
X85214285Y-51514166D01*
X85309523Y-51466547D01*
X85404761Y-51371309D01*
X85452380Y-51228452D01*
X85452380Y-51133214D01*
X85404761Y-50990357D01*
X85357142Y-50942738D01*
X85023809Y-50942738D01*
X85023809Y-51133214D01*
X85452380Y-49990357D02*
X85452380Y-50561785D01*
X85452380Y-50276071D02*
X84452380Y-50276071D01*
X84595238Y-50371309D01*
X84690476Y-50466547D01*
X84738095Y-50561785D01*
X84452380Y-49133214D02*
X84452380Y-49323690D01*
X84500000Y-49418928D01*
X84547619Y-49466547D01*
X84690476Y-49561785D01*
X84880952Y-49609404D01*
X85261904Y-49609404D01*
X85357142Y-49561785D01*
X85404761Y-49514166D01*
X85452380Y-49418928D01*
X85452380Y-49228452D01*
X85404761Y-49133214D01*
X85357142Y-49085595D01*
X85261904Y-49037976D01*
X85023809Y-49037976D01*
X84928571Y-49085595D01*
X84880952Y-49133214D01*
X84833333Y-49228452D01*
X84833333Y-49418928D01*
X84880952Y-49514166D01*
X84928571Y-49561785D01*
X85023809Y-49609404D01*
X83404761Y-53418928D02*
X83452380Y-53276071D01*
X83452380Y-53037976D01*
X83404761Y-52942738D01*
X83357142Y-52895119D01*
X83261904Y-52847500D01*
X83166666Y-52847500D01*
X83071428Y-52895119D01*
X83023809Y-52942738D01*
X82976190Y-53037976D01*
X82928571Y-53228452D01*
X82880952Y-53323690D01*
X82833333Y-53371309D01*
X82738095Y-53418928D01*
X82642857Y-53418928D01*
X82547619Y-53371309D01*
X82500000Y-53323690D01*
X82452380Y-53228452D01*
X82452380Y-52990357D01*
X82500000Y-52847500D01*
X82928571Y-52418928D02*
X82928571Y-52085595D01*
X83452380Y-51942738D02*
X83452380Y-52418928D01*
X82452380Y-52418928D01*
X82452380Y-51942738D01*
X82500000Y-50990357D02*
X82452380Y-51085595D01*
X82452380Y-51228452D01*
X82500000Y-51371309D01*
X82595238Y-51466547D01*
X82690476Y-51514166D01*
X82880952Y-51561785D01*
X83023809Y-51561785D01*
X83214285Y-51514166D01*
X83309523Y-51466547D01*
X83404761Y-51371309D01*
X83452380Y-51228452D01*
X83452380Y-51133214D01*
X83404761Y-50990357D01*
X83357142Y-50942738D01*
X83023809Y-50942738D01*
X83023809Y-51133214D01*
X83452380Y-49990357D02*
X83452380Y-50561785D01*
X83452380Y-50276071D02*
X82452380Y-50276071D01*
X82595238Y-50371309D01*
X82690476Y-50466547D01*
X82738095Y-50561785D01*
X82452380Y-49657023D02*
X82452380Y-48990357D01*
X83452380Y-49418928D01*
X81357142Y-52180833D02*
X81404761Y-52228452D01*
X81452380Y-52371309D01*
X81452380Y-52466547D01*
X81404761Y-52609404D01*
X81309523Y-52704642D01*
X81214285Y-52752261D01*
X81023809Y-52799880D01*
X80880952Y-52799880D01*
X80690476Y-52752261D01*
X80595238Y-52704642D01*
X80500000Y-52609404D01*
X80452380Y-52466547D01*
X80452380Y-52371309D01*
X80500000Y-52228452D01*
X80547619Y-52180833D01*
X80452380Y-51561785D02*
X80452380Y-51371309D01*
X80500000Y-51276071D01*
X80595238Y-51180833D01*
X80785714Y-51133214D01*
X81119047Y-51133214D01*
X81309523Y-51180833D01*
X81404761Y-51276071D01*
X81452380Y-51371309D01*
X81452380Y-51561785D01*
X81404761Y-51657023D01*
X81309523Y-51752261D01*
X81119047Y-51799880D01*
X80785714Y-51799880D01*
X80595238Y-51752261D01*
X80500000Y-51657023D01*
X80452380Y-51561785D01*
X81452380Y-50704642D02*
X80452380Y-50704642D01*
X81166666Y-50371309D01*
X80452380Y-50037976D01*
X81452380Y-50037976D01*
X80547619Y-49609404D02*
X80500000Y-49561785D01*
X80452380Y-49466547D01*
X80452380Y-49228452D01*
X80500000Y-49133214D01*
X80547619Y-49085595D01*
X80642857Y-49037976D01*
X80738095Y-49037976D01*
X80880952Y-49085595D01*
X81452380Y-49657023D01*
X81452380Y-49037976D01*
X119357142Y-80342976D02*
X119404761Y-80390595D01*
X119452380Y-80533452D01*
X119452380Y-80628690D01*
X119404761Y-80771547D01*
X119309523Y-80866785D01*
X119214285Y-80914404D01*
X119023809Y-80962023D01*
X118880952Y-80962023D01*
X118690476Y-80914404D01*
X118595238Y-80866785D01*
X118500000Y-80771547D01*
X118452380Y-80628690D01*
X118452380Y-80533452D01*
X118500000Y-80390595D01*
X118547619Y-80342976D01*
X118452380Y-79723928D02*
X118452380Y-79533452D01*
X118500000Y-79438214D01*
X118595238Y-79342976D01*
X118785714Y-79295357D01*
X119119047Y-79295357D01*
X119309523Y-79342976D01*
X119404761Y-79438214D01*
X119452380Y-79533452D01*
X119452380Y-79723928D01*
X119404761Y-79819166D01*
X119309523Y-79914404D01*
X119119047Y-79962023D01*
X118785714Y-79962023D01*
X118595238Y-79914404D01*
X118500000Y-79819166D01*
X118452380Y-79723928D01*
X119452380Y-78866785D02*
X118452380Y-78866785D01*
X119166666Y-78533452D01*
X118452380Y-78200119D01*
X119452380Y-78200119D01*
X118452380Y-77533452D02*
X118452380Y-77438214D01*
X118500000Y-77342976D01*
X118547619Y-77295357D01*
X118642857Y-77247738D01*
X118833333Y-77200119D01*
X119071428Y-77200119D01*
X119261904Y-77247738D01*
X119357142Y-77295357D01*
X119404761Y-77342976D01*
X119452380Y-77438214D01*
X119452380Y-77533452D01*
X119404761Y-77628690D01*
X119357142Y-77676309D01*
X119261904Y-77723928D01*
X119071428Y-77771547D01*
X118833333Y-77771547D01*
X118642857Y-77723928D01*
X118547619Y-77676309D01*
X118500000Y-77628690D01*
X118452380Y-77533452D01*
X117452380Y-80914404D02*
X116452380Y-80914404D01*
X117452380Y-80342976D01*
X116452380Y-80342976D01*
X117357142Y-79295357D02*
X117404761Y-79342976D01*
X117452380Y-79485833D01*
X117452380Y-79581071D01*
X117404761Y-79723928D01*
X117309523Y-79819166D01*
X117214285Y-79866785D01*
X117023809Y-79914404D01*
X116880952Y-79914404D01*
X116690476Y-79866785D01*
X116595238Y-79819166D01*
X116500000Y-79723928D01*
X116452380Y-79581071D01*
X116452380Y-79485833D01*
X116500000Y-79342976D01*
X116547619Y-79295357D01*
X115404761Y-80962023D02*
X115452380Y-80819166D01*
X115452380Y-80581071D01*
X115404761Y-80485833D01*
X115357142Y-80438214D01*
X115261904Y-80390595D01*
X115166666Y-80390595D01*
X115071428Y-80438214D01*
X115023809Y-80485833D01*
X114976190Y-80581071D01*
X114928571Y-80771547D01*
X114880952Y-80866785D01*
X114833333Y-80914404D01*
X114738095Y-80962023D01*
X114642857Y-80962023D01*
X114547619Y-80914404D01*
X114500000Y-80866785D01*
X114452380Y-80771547D01*
X114452380Y-80533452D01*
X114500000Y-80390595D01*
X114928571Y-79962023D02*
X114928571Y-79628690D01*
X115452380Y-79485833D02*
X115452380Y-79962023D01*
X114452380Y-79962023D01*
X114452380Y-79485833D01*
X114500000Y-78533452D02*
X114452380Y-78628690D01*
X114452380Y-78771547D01*
X114500000Y-78914404D01*
X114595238Y-79009642D01*
X114690476Y-79057261D01*
X114880952Y-79104880D01*
X115023809Y-79104880D01*
X115214285Y-79057261D01*
X115309523Y-79009642D01*
X115404761Y-78914404D01*
X115452380Y-78771547D01*
X115452380Y-78676309D01*
X115404761Y-78533452D01*
X115357142Y-78485833D01*
X115023809Y-78485833D01*
X115023809Y-78676309D01*
X114452380Y-78152500D02*
X114452380Y-77533452D01*
X114833333Y-77866785D01*
X114833333Y-77723928D01*
X114880952Y-77628690D01*
X114928571Y-77581071D01*
X115023809Y-77533452D01*
X115261904Y-77533452D01*
X115357142Y-77581071D01*
X115404761Y-77628690D01*
X115452380Y-77723928D01*
X115452380Y-78009642D01*
X115404761Y-78104880D01*
X115357142Y-78152500D01*
X114452380Y-77200119D02*
X114452380Y-76581071D01*
X114833333Y-76914404D01*
X114833333Y-76771547D01*
X114880952Y-76676309D01*
X114928571Y-76628690D01*
X115023809Y-76581071D01*
X115261904Y-76581071D01*
X115357142Y-76628690D01*
X115404761Y-76676309D01*
X115452380Y-76771547D01*
X115452380Y-77057261D01*
X115404761Y-77152500D01*
X115357142Y-77200119D01*
X113404761Y-80962023D02*
X113452380Y-80819166D01*
X113452380Y-80581071D01*
X113404761Y-80485833D01*
X113357142Y-80438214D01*
X113261904Y-80390595D01*
X113166666Y-80390595D01*
X113071428Y-80438214D01*
X113023809Y-80485833D01*
X112976190Y-80581071D01*
X112928571Y-80771547D01*
X112880952Y-80866785D01*
X112833333Y-80914404D01*
X112738095Y-80962023D01*
X112642857Y-80962023D01*
X112547619Y-80914404D01*
X112500000Y-80866785D01*
X112452380Y-80771547D01*
X112452380Y-80533452D01*
X112500000Y-80390595D01*
X112928571Y-79962023D02*
X112928571Y-79628690D01*
X113452380Y-79485833D02*
X113452380Y-79962023D01*
X112452380Y-79962023D01*
X112452380Y-79485833D01*
X112500000Y-78533452D02*
X112452380Y-78628690D01*
X112452380Y-78771547D01*
X112500000Y-78914404D01*
X112595238Y-79009642D01*
X112690476Y-79057261D01*
X112880952Y-79104880D01*
X113023809Y-79104880D01*
X113214285Y-79057261D01*
X113309523Y-79009642D01*
X113404761Y-78914404D01*
X113452380Y-78771547D01*
X113452380Y-78676309D01*
X113404761Y-78533452D01*
X113357142Y-78485833D01*
X113023809Y-78485833D01*
X113023809Y-78676309D01*
X112452380Y-78152500D02*
X112452380Y-77533452D01*
X112833333Y-77866785D01*
X112833333Y-77723928D01*
X112880952Y-77628690D01*
X112928571Y-77581071D01*
X113023809Y-77533452D01*
X113261904Y-77533452D01*
X113357142Y-77581071D01*
X113404761Y-77628690D01*
X113452380Y-77723928D01*
X113452380Y-78009642D01*
X113404761Y-78104880D01*
X113357142Y-78152500D01*
X112547619Y-77152500D02*
X112500000Y-77104880D01*
X112452380Y-77009642D01*
X112452380Y-76771547D01*
X112500000Y-76676309D01*
X112547619Y-76628690D01*
X112642857Y-76581071D01*
X112738095Y-76581071D01*
X112880952Y-76628690D01*
X113452380Y-77200119D01*
X113452380Y-76581071D01*
X111357142Y-80342976D02*
X111404761Y-80390595D01*
X111452380Y-80533452D01*
X111452380Y-80628690D01*
X111404761Y-80771547D01*
X111309523Y-80866785D01*
X111214285Y-80914404D01*
X111023809Y-80962023D01*
X110880952Y-80962023D01*
X110690476Y-80914404D01*
X110595238Y-80866785D01*
X110500000Y-80771547D01*
X110452380Y-80628690D01*
X110452380Y-80533452D01*
X110500000Y-80390595D01*
X110547619Y-80342976D01*
X110452380Y-79723928D02*
X110452380Y-79533452D01*
X110500000Y-79438214D01*
X110595238Y-79342976D01*
X110785714Y-79295357D01*
X111119047Y-79295357D01*
X111309523Y-79342976D01*
X111404761Y-79438214D01*
X111452380Y-79533452D01*
X111452380Y-79723928D01*
X111404761Y-79819166D01*
X111309523Y-79914404D01*
X111119047Y-79962023D01*
X110785714Y-79962023D01*
X110595238Y-79914404D01*
X110500000Y-79819166D01*
X110452380Y-79723928D01*
X111452380Y-78866785D02*
X110452380Y-78866785D01*
X111166666Y-78533452D01*
X110452380Y-78200119D01*
X111452380Y-78200119D01*
X110452380Y-77533452D02*
X110452380Y-77438214D01*
X110500000Y-77342976D01*
X110547619Y-77295357D01*
X110642857Y-77247738D01*
X110833333Y-77200119D01*
X111071428Y-77200119D01*
X111261904Y-77247738D01*
X111357142Y-77295357D01*
X111404761Y-77342976D01*
X111452380Y-77438214D01*
X111452380Y-77533452D01*
X111404761Y-77628690D01*
X111357142Y-77676309D01*
X111261904Y-77723928D01*
X111071428Y-77771547D01*
X110833333Y-77771547D01*
X110642857Y-77723928D01*
X110547619Y-77676309D01*
X110500000Y-77628690D01*
X110452380Y-77533452D01*
X109404761Y-80962023D02*
X109452380Y-80819166D01*
X109452380Y-80581071D01*
X109404761Y-80485833D01*
X109357142Y-80438214D01*
X109261904Y-80390595D01*
X109166666Y-80390595D01*
X109071428Y-80438214D01*
X109023809Y-80485833D01*
X108976190Y-80581071D01*
X108928571Y-80771547D01*
X108880952Y-80866785D01*
X108833333Y-80914404D01*
X108738095Y-80962023D01*
X108642857Y-80962023D01*
X108547619Y-80914404D01*
X108500000Y-80866785D01*
X108452380Y-80771547D01*
X108452380Y-80533452D01*
X108500000Y-80390595D01*
X108928571Y-79962023D02*
X108928571Y-79628690D01*
X109452380Y-79485833D02*
X109452380Y-79962023D01*
X108452380Y-79962023D01*
X108452380Y-79485833D01*
X108500000Y-78533452D02*
X108452380Y-78628690D01*
X108452380Y-78771547D01*
X108500000Y-78914404D01*
X108595238Y-79009642D01*
X108690476Y-79057261D01*
X108880952Y-79104880D01*
X109023809Y-79104880D01*
X109214285Y-79057261D01*
X109309523Y-79009642D01*
X109404761Y-78914404D01*
X109452380Y-78771547D01*
X109452380Y-78676309D01*
X109404761Y-78533452D01*
X109357142Y-78485833D01*
X109023809Y-78485833D01*
X109023809Y-78676309D01*
X108452380Y-78152500D02*
X108452380Y-77533452D01*
X108833333Y-77866785D01*
X108833333Y-77723928D01*
X108880952Y-77628690D01*
X108928571Y-77581071D01*
X109023809Y-77533452D01*
X109261904Y-77533452D01*
X109357142Y-77581071D01*
X109404761Y-77628690D01*
X109452380Y-77723928D01*
X109452380Y-78009642D01*
X109404761Y-78104880D01*
X109357142Y-78152500D01*
X109452380Y-76581071D02*
X109452380Y-77152500D01*
X109452380Y-76866785D02*
X108452380Y-76866785D01*
X108595238Y-76962023D01*
X108690476Y-77057261D01*
X108738095Y-77152500D01*
X107404761Y-80962023D02*
X107452380Y-80819166D01*
X107452380Y-80581071D01*
X107404761Y-80485833D01*
X107357142Y-80438214D01*
X107261904Y-80390595D01*
X107166666Y-80390595D01*
X107071428Y-80438214D01*
X107023809Y-80485833D01*
X106976190Y-80581071D01*
X106928571Y-80771547D01*
X106880952Y-80866785D01*
X106833333Y-80914404D01*
X106738095Y-80962023D01*
X106642857Y-80962023D01*
X106547619Y-80914404D01*
X106500000Y-80866785D01*
X106452380Y-80771547D01*
X106452380Y-80533452D01*
X106500000Y-80390595D01*
X106928571Y-79962023D02*
X106928571Y-79628690D01*
X107452380Y-79485833D02*
X107452380Y-79962023D01*
X106452380Y-79962023D01*
X106452380Y-79485833D01*
X106500000Y-78533452D02*
X106452380Y-78628690D01*
X106452380Y-78771547D01*
X106500000Y-78914404D01*
X106595238Y-79009642D01*
X106690476Y-79057261D01*
X106880952Y-79104880D01*
X107023809Y-79104880D01*
X107214285Y-79057261D01*
X107309523Y-79009642D01*
X107404761Y-78914404D01*
X107452380Y-78771547D01*
X107452380Y-78676309D01*
X107404761Y-78533452D01*
X107357142Y-78485833D01*
X107023809Y-78485833D01*
X107023809Y-78676309D01*
X106452380Y-78152500D02*
X106452380Y-77533452D01*
X106833333Y-77866785D01*
X106833333Y-77723928D01*
X106880952Y-77628690D01*
X106928571Y-77581071D01*
X107023809Y-77533452D01*
X107261904Y-77533452D01*
X107357142Y-77581071D01*
X107404761Y-77628690D01*
X107452380Y-77723928D01*
X107452380Y-78009642D01*
X107404761Y-78104880D01*
X107357142Y-78152500D01*
X106452380Y-76914404D02*
X106452380Y-76819166D01*
X106500000Y-76723928D01*
X106547619Y-76676309D01*
X106642857Y-76628690D01*
X106833333Y-76581071D01*
X107071428Y-76581071D01*
X107261904Y-76628690D01*
X107357142Y-76676309D01*
X107404761Y-76723928D01*
X107452380Y-76819166D01*
X107452380Y-76914404D01*
X107404761Y-77009642D01*
X107357142Y-77057261D01*
X107261904Y-77104880D01*
X107071428Y-77152500D01*
X106833333Y-77152500D01*
X106642857Y-77104880D01*
X106547619Y-77057261D01*
X106500000Y-77009642D01*
X106452380Y-76914404D01*
X105404761Y-80962023D02*
X105452380Y-80819166D01*
X105452380Y-80581071D01*
X105404761Y-80485833D01*
X105357142Y-80438214D01*
X105261904Y-80390595D01*
X105166666Y-80390595D01*
X105071428Y-80438214D01*
X105023809Y-80485833D01*
X104976190Y-80581071D01*
X104928571Y-80771547D01*
X104880952Y-80866785D01*
X104833333Y-80914404D01*
X104738095Y-80962023D01*
X104642857Y-80962023D01*
X104547619Y-80914404D01*
X104500000Y-80866785D01*
X104452380Y-80771547D01*
X104452380Y-80533452D01*
X104500000Y-80390595D01*
X104928571Y-79962023D02*
X104928571Y-79628690D01*
X105452380Y-79485833D02*
X105452380Y-79962023D01*
X104452380Y-79962023D01*
X104452380Y-79485833D01*
X104500000Y-78533452D02*
X104452380Y-78628690D01*
X104452380Y-78771547D01*
X104500000Y-78914404D01*
X104595238Y-79009642D01*
X104690476Y-79057261D01*
X104880952Y-79104880D01*
X105023809Y-79104880D01*
X105214285Y-79057261D01*
X105309523Y-79009642D01*
X105404761Y-78914404D01*
X105452380Y-78771547D01*
X105452380Y-78676309D01*
X105404761Y-78533452D01*
X105357142Y-78485833D01*
X105023809Y-78485833D01*
X105023809Y-78676309D01*
X104547619Y-78104880D02*
X104500000Y-78057261D01*
X104452380Y-77962023D01*
X104452380Y-77723928D01*
X104500000Y-77628690D01*
X104547619Y-77581071D01*
X104642857Y-77533452D01*
X104738095Y-77533452D01*
X104880952Y-77581071D01*
X105452380Y-78152500D01*
X105452380Y-77533452D01*
X105452380Y-77057261D02*
X105452380Y-76866785D01*
X105404761Y-76771547D01*
X105357142Y-76723928D01*
X105214285Y-76628690D01*
X105023809Y-76581071D01*
X104642857Y-76581071D01*
X104547619Y-76628690D01*
X104500000Y-76676309D01*
X104452380Y-76771547D01*
X104452380Y-76962023D01*
X104500000Y-77057261D01*
X104547619Y-77104880D01*
X104642857Y-77152500D01*
X104880952Y-77152500D01*
X104976190Y-77104880D01*
X105023809Y-77057261D01*
X105071428Y-76962023D01*
X105071428Y-76771547D01*
X105023809Y-76676309D01*
X104976190Y-76628690D01*
X104880952Y-76581071D01*
X103404761Y-80962023D02*
X103452380Y-80819166D01*
X103452380Y-80581071D01*
X103404761Y-80485833D01*
X103357142Y-80438214D01*
X103261904Y-80390595D01*
X103166666Y-80390595D01*
X103071428Y-80438214D01*
X103023809Y-80485833D01*
X102976190Y-80581071D01*
X102928571Y-80771547D01*
X102880952Y-80866785D01*
X102833333Y-80914404D01*
X102738095Y-80962023D01*
X102642857Y-80962023D01*
X102547619Y-80914404D01*
X102500000Y-80866785D01*
X102452380Y-80771547D01*
X102452380Y-80533452D01*
X102500000Y-80390595D01*
X102928571Y-79962023D02*
X102928571Y-79628690D01*
X103452380Y-79485833D02*
X103452380Y-79962023D01*
X102452380Y-79962023D01*
X102452380Y-79485833D01*
X102500000Y-78533452D02*
X102452380Y-78628690D01*
X102452380Y-78771547D01*
X102500000Y-78914404D01*
X102595238Y-79009642D01*
X102690476Y-79057261D01*
X102880952Y-79104880D01*
X103023809Y-79104880D01*
X103214285Y-79057261D01*
X103309523Y-79009642D01*
X103404761Y-78914404D01*
X103452380Y-78771547D01*
X103452380Y-78676309D01*
X103404761Y-78533452D01*
X103357142Y-78485833D01*
X103023809Y-78485833D01*
X103023809Y-78676309D01*
X102547619Y-78104880D02*
X102500000Y-78057261D01*
X102452380Y-77962023D01*
X102452380Y-77723928D01*
X102500000Y-77628690D01*
X102547619Y-77581071D01*
X102642857Y-77533452D01*
X102738095Y-77533452D01*
X102880952Y-77581071D01*
X103452380Y-78152500D01*
X103452380Y-77533452D01*
X102880952Y-76962023D02*
X102833333Y-77057261D01*
X102785714Y-77104880D01*
X102690476Y-77152500D01*
X102642857Y-77152500D01*
X102547619Y-77104880D01*
X102500000Y-77057261D01*
X102452380Y-76962023D01*
X102452380Y-76771547D01*
X102500000Y-76676309D01*
X102547619Y-76628690D01*
X102642857Y-76581071D01*
X102690476Y-76581071D01*
X102785714Y-76628690D01*
X102833333Y-76676309D01*
X102880952Y-76771547D01*
X102880952Y-76962023D01*
X102928571Y-77057261D01*
X102976190Y-77104880D01*
X103071428Y-77152500D01*
X103261904Y-77152500D01*
X103357142Y-77104880D01*
X103404761Y-77057261D01*
X103452380Y-76962023D01*
X103452380Y-76771547D01*
X103404761Y-76676309D01*
X103357142Y-76628690D01*
X103261904Y-76581071D01*
X103071428Y-76581071D01*
X102976190Y-76628690D01*
X102928571Y-76676309D01*
X102880952Y-76771547D01*
X101404761Y-80962023D02*
X101452380Y-80819166D01*
X101452380Y-80581071D01*
X101404761Y-80485833D01*
X101357142Y-80438214D01*
X101261904Y-80390595D01*
X101166666Y-80390595D01*
X101071428Y-80438214D01*
X101023809Y-80485833D01*
X100976190Y-80581071D01*
X100928571Y-80771547D01*
X100880952Y-80866785D01*
X100833333Y-80914404D01*
X100738095Y-80962023D01*
X100642857Y-80962023D01*
X100547619Y-80914404D01*
X100500000Y-80866785D01*
X100452380Y-80771547D01*
X100452380Y-80533452D01*
X100500000Y-80390595D01*
X100928571Y-79962023D02*
X100928571Y-79628690D01*
X101452380Y-79485833D02*
X101452380Y-79962023D01*
X100452380Y-79962023D01*
X100452380Y-79485833D01*
X100500000Y-78533452D02*
X100452380Y-78628690D01*
X100452380Y-78771547D01*
X100500000Y-78914404D01*
X100595238Y-79009642D01*
X100690476Y-79057261D01*
X100880952Y-79104880D01*
X101023809Y-79104880D01*
X101214285Y-79057261D01*
X101309523Y-79009642D01*
X101404761Y-78914404D01*
X101452380Y-78771547D01*
X101452380Y-78676309D01*
X101404761Y-78533452D01*
X101357142Y-78485833D01*
X101023809Y-78485833D01*
X101023809Y-78676309D01*
X100547619Y-78104880D02*
X100500000Y-78057261D01*
X100452380Y-77962023D01*
X100452380Y-77723928D01*
X100500000Y-77628690D01*
X100547619Y-77581071D01*
X100642857Y-77533452D01*
X100738095Y-77533452D01*
X100880952Y-77581071D01*
X101452380Y-78152500D01*
X101452380Y-77533452D01*
X100452380Y-77200119D02*
X100452380Y-76533452D01*
X101452380Y-76962023D01*
X99404761Y-80962023D02*
X99452380Y-80819166D01*
X99452380Y-80581071D01*
X99404761Y-80485833D01*
X99357142Y-80438214D01*
X99261904Y-80390595D01*
X99166666Y-80390595D01*
X99071428Y-80438214D01*
X99023809Y-80485833D01*
X98976190Y-80581071D01*
X98928571Y-80771547D01*
X98880952Y-80866785D01*
X98833333Y-80914404D01*
X98738095Y-80962023D01*
X98642857Y-80962023D01*
X98547619Y-80914404D01*
X98500000Y-80866785D01*
X98452380Y-80771547D01*
X98452380Y-80533452D01*
X98500000Y-80390595D01*
X98928571Y-79962023D02*
X98928571Y-79628690D01*
X99452380Y-79485833D02*
X99452380Y-79962023D01*
X98452380Y-79962023D01*
X98452380Y-79485833D01*
X98500000Y-78533452D02*
X98452380Y-78628690D01*
X98452380Y-78771547D01*
X98500000Y-78914404D01*
X98595238Y-79009642D01*
X98690476Y-79057261D01*
X98880952Y-79104880D01*
X99023809Y-79104880D01*
X99214285Y-79057261D01*
X99309523Y-79009642D01*
X99404761Y-78914404D01*
X99452380Y-78771547D01*
X99452380Y-78676309D01*
X99404761Y-78533452D01*
X99357142Y-78485833D01*
X99023809Y-78485833D01*
X99023809Y-78676309D01*
X98547619Y-78104880D02*
X98500000Y-78057261D01*
X98452380Y-77962023D01*
X98452380Y-77723928D01*
X98500000Y-77628690D01*
X98547619Y-77581071D01*
X98642857Y-77533452D01*
X98738095Y-77533452D01*
X98880952Y-77581071D01*
X99452380Y-78152500D01*
X99452380Y-77533452D01*
X98452380Y-76676309D02*
X98452380Y-76866785D01*
X98500000Y-76962023D01*
X98547619Y-77009642D01*
X98690476Y-77104880D01*
X98880952Y-77152500D01*
X99261904Y-77152500D01*
X99357142Y-77104880D01*
X99404761Y-77057261D01*
X99452380Y-76962023D01*
X99452380Y-76771547D01*
X99404761Y-76676309D01*
X99357142Y-76628690D01*
X99261904Y-76581071D01*
X99023809Y-76581071D01*
X98928571Y-76628690D01*
X98880952Y-76676309D01*
X98833333Y-76771547D01*
X98833333Y-76962023D01*
X98880952Y-77057261D01*
X98928571Y-77104880D01*
X99023809Y-77152500D01*
X97404761Y-80962023D02*
X97452380Y-80819166D01*
X97452380Y-80581071D01*
X97404761Y-80485833D01*
X97357142Y-80438214D01*
X97261904Y-80390595D01*
X97166666Y-80390595D01*
X97071428Y-80438214D01*
X97023809Y-80485833D01*
X96976190Y-80581071D01*
X96928571Y-80771547D01*
X96880952Y-80866785D01*
X96833333Y-80914404D01*
X96738095Y-80962023D01*
X96642857Y-80962023D01*
X96547619Y-80914404D01*
X96500000Y-80866785D01*
X96452380Y-80771547D01*
X96452380Y-80533452D01*
X96500000Y-80390595D01*
X96928571Y-79962023D02*
X96928571Y-79628690D01*
X97452380Y-79485833D02*
X97452380Y-79962023D01*
X96452380Y-79962023D01*
X96452380Y-79485833D01*
X96500000Y-78533452D02*
X96452380Y-78628690D01*
X96452380Y-78771547D01*
X96500000Y-78914404D01*
X96595238Y-79009642D01*
X96690476Y-79057261D01*
X96880952Y-79104880D01*
X97023809Y-79104880D01*
X97214285Y-79057261D01*
X97309523Y-79009642D01*
X97404761Y-78914404D01*
X97452380Y-78771547D01*
X97452380Y-78676309D01*
X97404761Y-78533452D01*
X97357142Y-78485833D01*
X97023809Y-78485833D01*
X97023809Y-78676309D01*
X96547619Y-78104880D02*
X96500000Y-78057261D01*
X96452380Y-77962023D01*
X96452380Y-77723928D01*
X96500000Y-77628690D01*
X96547619Y-77581071D01*
X96642857Y-77533452D01*
X96738095Y-77533452D01*
X96880952Y-77581071D01*
X97452380Y-78152500D01*
X97452380Y-77533452D01*
X96452380Y-76628690D02*
X96452380Y-77104880D01*
X96928571Y-77152500D01*
X96880952Y-77104880D01*
X96833333Y-77009642D01*
X96833333Y-76771547D01*
X96880952Y-76676309D01*
X96928571Y-76628690D01*
X97023809Y-76581071D01*
X97261904Y-76581071D01*
X97357142Y-76628690D01*
X97404761Y-76676309D01*
X97452380Y-76771547D01*
X97452380Y-77009642D01*
X97404761Y-77104880D01*
X97357142Y-77152500D01*
X95404761Y-80962023D02*
X95452380Y-80819166D01*
X95452380Y-80581071D01*
X95404761Y-80485833D01*
X95357142Y-80438214D01*
X95261904Y-80390595D01*
X95166666Y-80390595D01*
X95071428Y-80438214D01*
X95023809Y-80485833D01*
X94976190Y-80581071D01*
X94928571Y-80771547D01*
X94880952Y-80866785D01*
X94833333Y-80914404D01*
X94738095Y-80962023D01*
X94642857Y-80962023D01*
X94547619Y-80914404D01*
X94500000Y-80866785D01*
X94452380Y-80771547D01*
X94452380Y-80533452D01*
X94500000Y-80390595D01*
X94928571Y-79962023D02*
X94928571Y-79628690D01*
X95452380Y-79485833D02*
X95452380Y-79962023D01*
X94452380Y-79962023D01*
X94452380Y-79485833D01*
X94500000Y-78533452D02*
X94452380Y-78628690D01*
X94452380Y-78771547D01*
X94500000Y-78914404D01*
X94595238Y-79009642D01*
X94690476Y-79057261D01*
X94880952Y-79104880D01*
X95023809Y-79104880D01*
X95214285Y-79057261D01*
X95309523Y-79009642D01*
X95404761Y-78914404D01*
X95452380Y-78771547D01*
X95452380Y-78676309D01*
X95404761Y-78533452D01*
X95357142Y-78485833D01*
X95023809Y-78485833D01*
X95023809Y-78676309D01*
X94547619Y-78104880D02*
X94500000Y-78057261D01*
X94452380Y-77962023D01*
X94452380Y-77723928D01*
X94500000Y-77628690D01*
X94547619Y-77581071D01*
X94642857Y-77533452D01*
X94738095Y-77533452D01*
X94880952Y-77581071D01*
X95452380Y-78152500D01*
X95452380Y-77533452D01*
X94785714Y-76676309D02*
X95452380Y-76676309D01*
X94404761Y-76914404D02*
X95119047Y-77152500D01*
X95119047Y-76533452D01*
X93404761Y-80962023D02*
X93452380Y-80819166D01*
X93452380Y-80581071D01*
X93404761Y-80485833D01*
X93357142Y-80438214D01*
X93261904Y-80390595D01*
X93166666Y-80390595D01*
X93071428Y-80438214D01*
X93023809Y-80485833D01*
X92976190Y-80581071D01*
X92928571Y-80771547D01*
X92880952Y-80866785D01*
X92833333Y-80914404D01*
X92738095Y-80962023D01*
X92642857Y-80962023D01*
X92547619Y-80914404D01*
X92500000Y-80866785D01*
X92452380Y-80771547D01*
X92452380Y-80533452D01*
X92500000Y-80390595D01*
X92928571Y-79962023D02*
X92928571Y-79628690D01*
X93452380Y-79485833D02*
X93452380Y-79962023D01*
X92452380Y-79962023D01*
X92452380Y-79485833D01*
X92500000Y-78533452D02*
X92452380Y-78628690D01*
X92452380Y-78771547D01*
X92500000Y-78914404D01*
X92595238Y-79009642D01*
X92690476Y-79057261D01*
X92880952Y-79104880D01*
X93023809Y-79104880D01*
X93214285Y-79057261D01*
X93309523Y-79009642D01*
X93404761Y-78914404D01*
X93452380Y-78771547D01*
X93452380Y-78676309D01*
X93404761Y-78533452D01*
X93357142Y-78485833D01*
X93023809Y-78485833D01*
X93023809Y-78676309D01*
X92547619Y-78104880D02*
X92500000Y-78057261D01*
X92452380Y-77962023D01*
X92452380Y-77723928D01*
X92500000Y-77628690D01*
X92547619Y-77581071D01*
X92642857Y-77533452D01*
X92738095Y-77533452D01*
X92880952Y-77581071D01*
X93452380Y-78152500D01*
X93452380Y-77533452D01*
X92452380Y-77200119D02*
X92452380Y-76581071D01*
X92833333Y-76914404D01*
X92833333Y-76771547D01*
X92880952Y-76676309D01*
X92928571Y-76628690D01*
X93023809Y-76581071D01*
X93261904Y-76581071D01*
X93357142Y-76628690D01*
X93404761Y-76676309D01*
X93452380Y-76771547D01*
X93452380Y-77057261D01*
X93404761Y-77152500D01*
X93357142Y-77200119D01*
X91404761Y-80962023D02*
X91452380Y-80819166D01*
X91452380Y-80581071D01*
X91404761Y-80485833D01*
X91357142Y-80438214D01*
X91261904Y-80390595D01*
X91166666Y-80390595D01*
X91071428Y-80438214D01*
X91023809Y-80485833D01*
X90976190Y-80581071D01*
X90928571Y-80771547D01*
X90880952Y-80866785D01*
X90833333Y-80914404D01*
X90738095Y-80962023D01*
X90642857Y-80962023D01*
X90547619Y-80914404D01*
X90500000Y-80866785D01*
X90452380Y-80771547D01*
X90452380Y-80533452D01*
X90500000Y-80390595D01*
X90928571Y-79962023D02*
X90928571Y-79628690D01*
X91452380Y-79485833D02*
X91452380Y-79962023D01*
X90452380Y-79962023D01*
X90452380Y-79485833D01*
X90500000Y-78533452D02*
X90452380Y-78628690D01*
X90452380Y-78771547D01*
X90500000Y-78914404D01*
X90595238Y-79009642D01*
X90690476Y-79057261D01*
X90880952Y-79104880D01*
X91023809Y-79104880D01*
X91214285Y-79057261D01*
X91309523Y-79009642D01*
X91404761Y-78914404D01*
X91452380Y-78771547D01*
X91452380Y-78676309D01*
X91404761Y-78533452D01*
X91357142Y-78485833D01*
X91023809Y-78485833D01*
X91023809Y-78676309D01*
X90547619Y-78104880D02*
X90500000Y-78057261D01*
X90452380Y-77962023D01*
X90452380Y-77723928D01*
X90500000Y-77628690D01*
X90547619Y-77581071D01*
X90642857Y-77533452D01*
X90738095Y-77533452D01*
X90880952Y-77581071D01*
X91452380Y-78152500D01*
X91452380Y-77533452D01*
X90547619Y-77152500D02*
X90500000Y-77104880D01*
X90452380Y-77009642D01*
X90452380Y-76771547D01*
X90500000Y-76676309D01*
X90547619Y-76628690D01*
X90642857Y-76581071D01*
X90738095Y-76581071D01*
X90880952Y-76628690D01*
X91452380Y-77200119D01*
X91452380Y-76581071D01*
X89404761Y-80962023D02*
X89452380Y-80819166D01*
X89452380Y-80581071D01*
X89404761Y-80485833D01*
X89357142Y-80438214D01*
X89261904Y-80390595D01*
X89166666Y-80390595D01*
X89071428Y-80438214D01*
X89023809Y-80485833D01*
X88976190Y-80581071D01*
X88928571Y-80771547D01*
X88880952Y-80866785D01*
X88833333Y-80914404D01*
X88738095Y-80962023D01*
X88642857Y-80962023D01*
X88547619Y-80914404D01*
X88500000Y-80866785D01*
X88452380Y-80771547D01*
X88452380Y-80533452D01*
X88500000Y-80390595D01*
X88928571Y-79962023D02*
X88928571Y-79628690D01*
X89452380Y-79485833D02*
X89452380Y-79962023D01*
X88452380Y-79962023D01*
X88452380Y-79485833D01*
X88500000Y-78533452D02*
X88452380Y-78628690D01*
X88452380Y-78771547D01*
X88500000Y-78914404D01*
X88595238Y-79009642D01*
X88690476Y-79057261D01*
X88880952Y-79104880D01*
X89023809Y-79104880D01*
X89214285Y-79057261D01*
X89309523Y-79009642D01*
X89404761Y-78914404D01*
X89452380Y-78771547D01*
X89452380Y-78676309D01*
X89404761Y-78533452D01*
X89357142Y-78485833D01*
X89023809Y-78485833D01*
X89023809Y-78676309D01*
X88547619Y-78104880D02*
X88500000Y-78057261D01*
X88452380Y-77962023D01*
X88452380Y-77723928D01*
X88500000Y-77628690D01*
X88547619Y-77581071D01*
X88642857Y-77533452D01*
X88738095Y-77533452D01*
X88880952Y-77581071D01*
X89452380Y-78152500D01*
X89452380Y-77533452D01*
X89452380Y-76581071D02*
X89452380Y-77152500D01*
X89452380Y-76866785D02*
X88452380Y-76866785D01*
X88595238Y-76962023D01*
X88690476Y-77057261D01*
X88738095Y-77152500D01*
X87404761Y-80962023D02*
X87452380Y-80819166D01*
X87452380Y-80581071D01*
X87404761Y-80485833D01*
X87357142Y-80438214D01*
X87261904Y-80390595D01*
X87166666Y-80390595D01*
X87071428Y-80438214D01*
X87023809Y-80485833D01*
X86976190Y-80581071D01*
X86928571Y-80771547D01*
X86880952Y-80866785D01*
X86833333Y-80914404D01*
X86738095Y-80962023D01*
X86642857Y-80962023D01*
X86547619Y-80914404D01*
X86500000Y-80866785D01*
X86452380Y-80771547D01*
X86452380Y-80533452D01*
X86500000Y-80390595D01*
X86928571Y-79962023D02*
X86928571Y-79628690D01*
X87452380Y-79485833D02*
X87452380Y-79962023D01*
X86452380Y-79962023D01*
X86452380Y-79485833D01*
X86500000Y-78533452D02*
X86452380Y-78628690D01*
X86452380Y-78771547D01*
X86500000Y-78914404D01*
X86595238Y-79009642D01*
X86690476Y-79057261D01*
X86880952Y-79104880D01*
X87023809Y-79104880D01*
X87214285Y-79057261D01*
X87309523Y-79009642D01*
X87404761Y-78914404D01*
X87452380Y-78771547D01*
X87452380Y-78676309D01*
X87404761Y-78533452D01*
X87357142Y-78485833D01*
X87023809Y-78485833D01*
X87023809Y-78676309D01*
X86547619Y-78104880D02*
X86500000Y-78057261D01*
X86452380Y-77962023D01*
X86452380Y-77723928D01*
X86500000Y-77628690D01*
X86547619Y-77581071D01*
X86642857Y-77533452D01*
X86738095Y-77533452D01*
X86880952Y-77581071D01*
X87452380Y-78152500D01*
X87452380Y-77533452D01*
X86452380Y-76914404D02*
X86452380Y-76819166D01*
X86500000Y-76723928D01*
X86547619Y-76676309D01*
X86642857Y-76628690D01*
X86833333Y-76581071D01*
X87071428Y-76581071D01*
X87261904Y-76628690D01*
X87357142Y-76676309D01*
X87404761Y-76723928D01*
X87452380Y-76819166D01*
X87452380Y-76914404D01*
X87404761Y-77009642D01*
X87357142Y-77057261D01*
X87261904Y-77104880D01*
X87071428Y-77152500D01*
X86833333Y-77152500D01*
X86642857Y-77104880D01*
X86547619Y-77057261D01*
X86500000Y-77009642D01*
X86452380Y-76914404D01*
X85404761Y-80962023D02*
X85452380Y-80819166D01*
X85452380Y-80581071D01*
X85404761Y-80485833D01*
X85357142Y-80438214D01*
X85261904Y-80390595D01*
X85166666Y-80390595D01*
X85071428Y-80438214D01*
X85023809Y-80485833D01*
X84976190Y-80581071D01*
X84928571Y-80771547D01*
X84880952Y-80866785D01*
X84833333Y-80914404D01*
X84738095Y-80962023D01*
X84642857Y-80962023D01*
X84547619Y-80914404D01*
X84500000Y-80866785D01*
X84452380Y-80771547D01*
X84452380Y-80533452D01*
X84500000Y-80390595D01*
X84928571Y-79962023D02*
X84928571Y-79628690D01*
X85452380Y-79485833D02*
X85452380Y-79962023D01*
X84452380Y-79962023D01*
X84452380Y-79485833D01*
X84500000Y-78533452D02*
X84452380Y-78628690D01*
X84452380Y-78771547D01*
X84500000Y-78914404D01*
X84595238Y-79009642D01*
X84690476Y-79057261D01*
X84880952Y-79104880D01*
X85023809Y-79104880D01*
X85214285Y-79057261D01*
X85309523Y-79009642D01*
X85404761Y-78914404D01*
X85452380Y-78771547D01*
X85452380Y-78676309D01*
X85404761Y-78533452D01*
X85357142Y-78485833D01*
X85023809Y-78485833D01*
X85023809Y-78676309D01*
X85452380Y-77533452D02*
X85452380Y-78104880D01*
X85452380Y-77819166D02*
X84452380Y-77819166D01*
X84595238Y-77914404D01*
X84690476Y-78009642D01*
X84738095Y-78104880D01*
X85452380Y-77057261D02*
X85452380Y-76866785D01*
X85404761Y-76771547D01*
X85357142Y-76723928D01*
X85214285Y-76628690D01*
X85023809Y-76581071D01*
X84642857Y-76581071D01*
X84547619Y-76628690D01*
X84500000Y-76676309D01*
X84452380Y-76771547D01*
X84452380Y-76962023D01*
X84500000Y-77057261D01*
X84547619Y-77104880D01*
X84642857Y-77152500D01*
X84880952Y-77152500D01*
X84976190Y-77104880D01*
X85023809Y-77057261D01*
X85071428Y-76962023D01*
X85071428Y-76771547D01*
X85023809Y-76676309D01*
X84976190Y-76628690D01*
X84880952Y-76581071D01*
X83404761Y-80962023D02*
X83452380Y-80819166D01*
X83452380Y-80581071D01*
X83404761Y-80485833D01*
X83357142Y-80438214D01*
X83261904Y-80390595D01*
X83166666Y-80390595D01*
X83071428Y-80438214D01*
X83023809Y-80485833D01*
X82976190Y-80581071D01*
X82928571Y-80771547D01*
X82880952Y-80866785D01*
X82833333Y-80914404D01*
X82738095Y-80962023D01*
X82642857Y-80962023D01*
X82547619Y-80914404D01*
X82500000Y-80866785D01*
X82452380Y-80771547D01*
X82452380Y-80533452D01*
X82500000Y-80390595D01*
X82928571Y-79962023D02*
X82928571Y-79628690D01*
X83452380Y-79485833D02*
X83452380Y-79962023D01*
X82452380Y-79962023D01*
X82452380Y-79485833D01*
X82500000Y-78533452D02*
X82452380Y-78628690D01*
X82452380Y-78771547D01*
X82500000Y-78914404D01*
X82595238Y-79009642D01*
X82690476Y-79057261D01*
X82880952Y-79104880D01*
X83023809Y-79104880D01*
X83214285Y-79057261D01*
X83309523Y-79009642D01*
X83404761Y-78914404D01*
X83452380Y-78771547D01*
X83452380Y-78676309D01*
X83404761Y-78533452D01*
X83357142Y-78485833D01*
X83023809Y-78485833D01*
X83023809Y-78676309D01*
X83452380Y-77533452D02*
X83452380Y-78104880D01*
X83452380Y-77819166D02*
X82452380Y-77819166D01*
X82595238Y-77914404D01*
X82690476Y-78009642D01*
X82738095Y-78104880D01*
X82880952Y-76962023D02*
X82833333Y-77057261D01*
X82785714Y-77104880D01*
X82690476Y-77152500D01*
X82642857Y-77152500D01*
X82547619Y-77104880D01*
X82500000Y-77057261D01*
X82452380Y-76962023D01*
X82452380Y-76771547D01*
X82500000Y-76676309D01*
X82547619Y-76628690D01*
X82642857Y-76581071D01*
X82690476Y-76581071D01*
X82785714Y-76628690D01*
X82833333Y-76676309D01*
X82880952Y-76771547D01*
X82880952Y-76962023D01*
X82928571Y-77057261D01*
X82976190Y-77104880D01*
X83071428Y-77152500D01*
X83261904Y-77152500D01*
X83357142Y-77104880D01*
X83404761Y-77057261D01*
X83452380Y-76962023D01*
X83452380Y-76771547D01*
X83404761Y-76676309D01*
X83357142Y-76628690D01*
X83261904Y-76581071D01*
X83071428Y-76581071D01*
X82976190Y-76628690D01*
X82928571Y-76676309D01*
X82880952Y-76771547D01*
X81357142Y-80342976D02*
X81404761Y-80390595D01*
X81452380Y-80533452D01*
X81452380Y-80628690D01*
X81404761Y-80771547D01*
X81309523Y-80866785D01*
X81214285Y-80914404D01*
X81023809Y-80962023D01*
X80880952Y-80962023D01*
X80690476Y-80914404D01*
X80595238Y-80866785D01*
X80500000Y-80771547D01*
X80452380Y-80628690D01*
X80452380Y-80533452D01*
X80500000Y-80390595D01*
X80547619Y-80342976D01*
X80452380Y-79723928D02*
X80452380Y-79533452D01*
X80500000Y-79438214D01*
X80595238Y-79342976D01*
X80785714Y-79295357D01*
X81119047Y-79295357D01*
X81309523Y-79342976D01*
X81404761Y-79438214D01*
X81452380Y-79533452D01*
X81452380Y-79723928D01*
X81404761Y-79819166D01*
X81309523Y-79914404D01*
X81119047Y-79962023D01*
X80785714Y-79962023D01*
X80595238Y-79914404D01*
X80500000Y-79819166D01*
X80452380Y-79723928D01*
X81452380Y-78866785D02*
X80452380Y-78866785D01*
X81166666Y-78533452D01*
X80452380Y-78200119D01*
X81452380Y-78200119D01*
X81452380Y-77200119D02*
X81452380Y-77771547D01*
X81452380Y-77485833D02*
X80452380Y-77485833D01*
X80595238Y-77581071D01*
X80690476Y-77676309D01*
X80738095Y-77771547D01*
X106250000Y-114250000D02*
G75*
G03*
X106250000Y-114250000I-6250000J0D01*
G01*
X114762380Y-162540861D02*
X114762380Y-161969433D01*
X115762380Y-162255147D02*
X114762380Y-162255147D01*
X114762380Y-161731338D02*
X115762380Y-161064671D01*
X114762380Y-161064671D02*
X115762380Y-161731338D01*
X119121180Y-117641619D02*
X118644990Y-117974952D01*
X119121180Y-118213047D02*
X118121180Y-118213047D01*
X118121180Y-117832095D01*
X118168800Y-117736857D01*
X118216419Y-117689238D01*
X118311657Y-117641619D01*
X118454514Y-117641619D01*
X118549752Y-117689238D01*
X118597371Y-117736857D01*
X118644990Y-117832095D01*
X118644990Y-118213047D01*
X119073561Y-117260666D02*
X119121180Y-117117809D01*
X119121180Y-116879714D01*
X119073561Y-116784476D01*
X119025942Y-116736857D01*
X118930704Y-116689238D01*
X118835466Y-116689238D01*
X118740228Y-116736857D01*
X118692609Y-116784476D01*
X118644990Y-116879714D01*
X118597371Y-117070190D01*
X118549752Y-117165428D01*
X118502133Y-117213047D01*
X118406895Y-117260666D01*
X118311657Y-117260666D01*
X118216419Y-117213047D01*
X118168800Y-117165428D01*
X118121180Y-117070190D01*
X118121180Y-116832095D01*
X118168800Y-116689238D01*
X118121180Y-116403523D02*
X118121180Y-115832095D01*
X119121180Y-116117809D02*
X118121180Y-116117809D01*
D11*
X74908828Y-111756857D02*
X74908828Y-112728285D01*
X74851685Y-112842571D01*
X74794542Y-112899714D01*
X74680257Y-112956857D01*
X74508828Y-112956857D01*
X74394542Y-112899714D01*
X74908828Y-112499714D02*
X74794542Y-112556857D01*
X74565971Y-112556857D01*
X74451685Y-112499714D01*
X74394542Y-112442571D01*
X74337400Y-112328285D01*
X74337400Y-111985428D01*
X74394542Y-111871142D01*
X74451685Y-111814000D01*
X74565971Y-111756857D01*
X74794542Y-111756857D01*
X74908828Y-111814000D01*
X75480257Y-112556857D02*
X75480257Y-111756857D01*
X75480257Y-111356857D02*
X75423114Y-111414000D01*
X75480257Y-111471142D01*
X75537400Y-111414000D01*
X75480257Y-111356857D01*
X75480257Y-111471142D01*
X75880257Y-111756857D02*
X76337400Y-111756857D01*
X76051685Y-111356857D02*
X76051685Y-112385428D01*
X76108828Y-112499714D01*
X76223114Y-112556857D01*
X76337400Y-112556857D01*
X76737400Y-112556857D02*
X76737400Y-111356857D01*
X77251685Y-112556857D02*
X77251685Y-111928285D01*
X77194542Y-111814000D01*
X77080257Y-111756857D01*
X76908828Y-111756857D01*
X76794542Y-111814000D01*
X76737400Y-111871142D01*
X78337400Y-111756857D02*
X78337400Y-112556857D01*
X77823114Y-111756857D02*
X77823114Y-112385428D01*
X77880257Y-112499714D01*
X77994542Y-112556857D01*
X78165971Y-112556857D01*
X78280257Y-112499714D01*
X78337400Y-112442571D01*
X78908828Y-112556857D02*
X78908828Y-111356857D01*
X78908828Y-111814000D02*
X79023114Y-111756857D01*
X79251685Y-111756857D01*
X79365971Y-111814000D01*
X79423114Y-111871142D01*
X79480257Y-111985428D01*
X79480257Y-112328285D01*
X79423114Y-112442571D01*
X79365971Y-112499714D01*
X79251685Y-112556857D01*
X79023114Y-112556857D01*
X78908828Y-112499714D01*
X79994542Y-112442571D02*
X80051685Y-112499714D01*
X79994542Y-112556857D01*
X79937400Y-112499714D01*
X79994542Y-112442571D01*
X79994542Y-112556857D01*
X81080257Y-112499714D02*
X80965971Y-112556857D01*
X80737400Y-112556857D01*
X80623114Y-112499714D01*
X80565971Y-112442571D01*
X80508828Y-112328285D01*
X80508828Y-111985428D01*
X80565971Y-111871142D01*
X80623114Y-111814000D01*
X80737400Y-111756857D01*
X80965971Y-111756857D01*
X81080257Y-111814000D01*
X81765971Y-112556857D02*
X81651685Y-112499714D01*
X81594542Y-112442571D01*
X81537400Y-112328285D01*
X81537400Y-111985428D01*
X81594542Y-111871142D01*
X81651685Y-111814000D01*
X81765971Y-111756857D01*
X81937400Y-111756857D01*
X82051685Y-111814000D01*
X82108828Y-111871142D01*
X82165971Y-111985428D01*
X82165971Y-112328285D01*
X82108828Y-112442571D01*
X82051685Y-112499714D01*
X81937400Y-112556857D01*
X81765971Y-112556857D01*
X82680257Y-112556857D02*
X82680257Y-111756857D01*
X82680257Y-111871142D02*
X82737400Y-111814000D01*
X82851685Y-111756857D01*
X83023114Y-111756857D01*
X83137400Y-111814000D01*
X83194542Y-111928285D01*
X83194542Y-112556857D01*
X83194542Y-111928285D02*
X83251685Y-111814000D01*
X83365971Y-111756857D01*
X83537400Y-111756857D01*
X83651685Y-111814000D01*
X83708828Y-111928285D01*
X83708828Y-112556857D01*
X85137400Y-111299714D02*
X84108828Y-112842571D01*
X85537400Y-112556857D02*
X85537400Y-111756857D01*
X85537400Y-111871142D02*
X85594542Y-111814000D01*
X85708828Y-111756857D01*
X85880257Y-111756857D01*
X85994542Y-111814000D01*
X86051685Y-111928285D01*
X86051685Y-112556857D01*
X86051685Y-111928285D02*
X86108828Y-111814000D01*
X86223114Y-111756857D01*
X86394542Y-111756857D01*
X86508828Y-111814000D01*
X86565971Y-111928285D01*
X86565971Y-112556857D01*
X87137400Y-112556857D02*
X87137400Y-111756857D01*
X87137400Y-111356857D02*
X87080257Y-111414000D01*
X87137400Y-111471142D01*
X87194542Y-111414000D01*
X87137400Y-111356857D01*
X87137400Y-111471142D01*
X88165971Y-112499714D02*
X88051685Y-112556857D01*
X87823114Y-112556857D01*
X87708828Y-112499714D01*
X87651685Y-112385428D01*
X87651685Y-111928285D01*
X87708828Y-111814000D01*
X87823114Y-111756857D01*
X88051685Y-111756857D01*
X88165971Y-111814000D01*
X88223114Y-111928285D01*
X88223114Y-112042571D01*
X87651685Y-112156857D01*
X88737400Y-112556857D02*
X88737400Y-111356857D01*
X88851685Y-112099714D02*
X89194542Y-112556857D01*
X89194542Y-111756857D02*
X88737400Y-112214000D01*
X90223114Y-111756857D02*
X90223114Y-112556857D01*
X89708828Y-111756857D02*
X89708828Y-112385428D01*
X89765971Y-112499714D01*
X89880257Y-112556857D01*
X90051685Y-112556857D01*
X90165971Y-112499714D01*
X90223114Y-112442571D01*
X90737400Y-112499714D02*
X90851685Y-112556857D01*
X91080257Y-112556857D01*
X91194542Y-112499714D01*
X91251685Y-112385428D01*
X91251685Y-112328285D01*
X91194542Y-112214000D01*
X91080257Y-112156857D01*
X90908828Y-112156857D01*
X90794542Y-112099714D01*
X90737400Y-111985428D01*
X90737400Y-111928285D01*
X90794542Y-111814000D01*
X90908828Y-111756857D01*
X91080257Y-111756857D01*
X91194542Y-111814000D01*
X91765971Y-112556857D02*
X91765971Y-111356857D01*
X92280257Y-112556857D02*
X92280257Y-111928285D01*
X92223114Y-111814000D01*
X92108828Y-111756857D01*
X91937400Y-111756857D01*
X91823114Y-111814000D01*
X91765971Y-111871142D01*
D10*
X109682380Y-162493242D02*
X109682380Y-161874195D01*
X110063333Y-162207528D01*
X110063333Y-162064671D01*
X110110952Y-161969433D01*
X110158571Y-161921814D01*
X110253809Y-161874195D01*
X110491904Y-161874195D01*
X110587142Y-161921814D01*
X110634761Y-161969433D01*
X110682380Y-162064671D01*
X110682380Y-162350385D01*
X110634761Y-162445623D01*
X110587142Y-162493242D01*
X109682380Y-161588480D02*
X110682380Y-161255147D01*
X109682380Y-160921814D01*
X109682380Y-160683719D02*
X109682380Y-160064671D01*
X110063333Y-160398004D01*
X110063333Y-160255147D01*
X110110952Y-160159909D01*
X110158571Y-160112290D01*
X110253809Y-160064671D01*
X110491904Y-160064671D01*
X110587142Y-160112290D01*
X110634761Y-160159909D01*
X110682380Y-160255147D01*
X110682380Y-160540861D01*
X110634761Y-160636100D01*
X110587142Y-160683719D01*
X113041180Y-109594495D02*
X113041180Y-108975447D01*
X113422133Y-109308780D01*
X113422133Y-109165923D01*
X113469752Y-109070685D01*
X113517371Y-109023066D01*
X113612609Y-108975447D01*
X113850704Y-108975447D01*
X113945942Y-109023066D01*
X113993561Y-109070685D01*
X114041180Y-109165923D01*
X114041180Y-109451638D01*
X113993561Y-109546876D01*
X113945942Y-109594495D01*
X113041180Y-108689733D02*
X114041180Y-108356400D01*
X113041180Y-108023066D01*
X113041180Y-107784971D02*
X113041180Y-107165923D01*
X113422133Y-107499257D01*
X113422133Y-107356400D01*
X113469752Y-107261161D01*
X113517371Y-107213542D01*
X113612609Y-107165923D01*
X113850704Y-107165923D01*
X113945942Y-107213542D01*
X113993561Y-107261161D01*
X114041180Y-107356400D01*
X114041180Y-107642114D01*
X113993561Y-107737352D01*
X113945942Y-107784971D01*
X66129161Y-132106942D02*
X66081542Y-132154561D01*
X65938685Y-132202180D01*
X65843447Y-132202180D01*
X65700590Y-132154561D01*
X65605352Y-132059323D01*
X65557733Y-131964085D01*
X65510114Y-131773609D01*
X65510114Y-131630752D01*
X65557733Y-131440276D01*
X65605352Y-131345038D01*
X65700590Y-131249800D01*
X65843447Y-131202180D01*
X65938685Y-131202180D01*
X66081542Y-131249800D01*
X66129161Y-131297419D01*
X67129161Y-132202180D02*
X66795828Y-131725990D01*
X66557733Y-132202180D02*
X66557733Y-131202180D01*
X66938685Y-131202180D01*
X67033923Y-131249800D01*
X67081542Y-131297419D01*
X67129161Y-131392657D01*
X67129161Y-131535514D01*
X67081542Y-131630752D01*
X67033923Y-131678371D01*
X66938685Y-131725990D01*
X66557733Y-131725990D01*
X68081542Y-132202180D02*
X67510114Y-132202180D01*
X67795828Y-132202180D02*
X67795828Y-131202180D01*
X67700590Y-131345038D01*
X67605352Y-131440276D01*
X67510114Y-131487895D01*
X68462495Y-131297419D02*
X68510114Y-131249800D01*
X68605352Y-131202180D01*
X68843447Y-131202180D01*
X68938685Y-131249800D01*
X68986304Y-131297419D01*
X69033923Y-131392657D01*
X69033923Y-131487895D01*
X68986304Y-131630752D01*
X68414876Y-132202180D01*
X69033923Y-132202180D01*
X69414876Y-131297419D02*
X69462495Y-131249800D01*
X69557733Y-131202180D01*
X69795828Y-131202180D01*
X69891066Y-131249800D01*
X69938685Y-131297419D01*
X69986304Y-131392657D01*
X69986304Y-131487895D01*
X69938685Y-131630752D01*
X69367257Y-132202180D01*
X69986304Y-132202180D01*
X70605352Y-131202180D02*
X70700590Y-131202180D01*
X70795828Y-131249800D01*
X70843447Y-131297419D01*
X70891066Y-131392657D01*
X70938685Y-131583133D01*
X70938685Y-131821228D01*
X70891066Y-132011704D01*
X70843447Y-132106942D01*
X70795828Y-132154561D01*
X70700590Y-132202180D01*
X70605352Y-132202180D01*
X70510114Y-132154561D01*
X70462495Y-132106942D01*
X70414876Y-132011704D01*
X70367257Y-131821228D01*
X70367257Y-131583133D01*
X70414876Y-131392657D01*
X70462495Y-131297419D01*
X70510114Y-131249800D01*
X70605352Y-131202180D01*
X104650000Y-161874195D02*
X104602380Y-161969433D01*
X104602380Y-162112290D01*
X104650000Y-162255147D01*
X104745238Y-162350385D01*
X104840476Y-162398004D01*
X105030952Y-162445623D01*
X105173809Y-162445623D01*
X105364285Y-162398004D01*
X105459523Y-162350385D01*
X105554761Y-162255147D01*
X105602380Y-162112290D01*
X105602380Y-162017052D01*
X105554761Y-161874195D01*
X105507142Y-161826576D01*
X105173809Y-161826576D01*
X105173809Y-162017052D01*
X105602380Y-161398004D02*
X104602380Y-161398004D01*
X105602380Y-160826576D01*
X104602380Y-160826576D01*
X105602380Y-160350385D02*
X104602380Y-160350385D01*
X104602380Y-160112290D01*
X104650000Y-159969433D01*
X104745238Y-159874195D01*
X104840476Y-159826576D01*
X105030952Y-159778957D01*
X105173809Y-159778957D01*
X105364285Y-159826576D01*
X105459523Y-159874195D01*
X105554761Y-159969433D01*
X105602380Y-160112290D01*
X105602380Y-160350385D01*
X113427104Y-69581880D02*
X113760438Y-70581880D01*
X114093771Y-69581880D01*
X114903295Y-70581880D02*
X114427104Y-70581880D01*
X114427104Y-69581880D01*
X115808057Y-70486642D02*
X115760438Y-70534261D01*
X115617580Y-70581880D01*
X115522342Y-70581880D01*
X115379485Y-70534261D01*
X115284247Y-70439023D01*
X115236628Y-70343785D01*
X115189009Y-70153309D01*
X115189009Y-70010452D01*
X115236628Y-69819976D01*
X115284247Y-69724738D01*
X115379485Y-69629500D01*
X115522342Y-69581880D01*
X115617580Y-69581880D01*
X115760438Y-69629500D01*
X115808057Y-69677119D01*
X116236628Y-70581880D02*
X116236628Y-69581880D01*
X116474723Y-69581880D01*
X116617580Y-69629500D01*
X116712819Y-69724738D01*
X116760438Y-69819976D01*
X116808057Y-70010452D01*
X116808057Y-70153309D01*
X116760438Y-70343785D01*
X116712819Y-70439023D01*
X116617580Y-70534261D01*
X116474723Y-70581880D01*
X116236628Y-70581880D01*
X114902342Y-153020780D02*
X115235676Y-154020780D01*
X115569009Y-153020780D01*
X116235676Y-153496971D02*
X116378533Y-153544590D01*
X116426152Y-153592209D01*
X116473771Y-153687447D01*
X116473771Y-153830304D01*
X116426152Y-153925542D01*
X116378533Y-153973161D01*
X116283295Y-154020780D01*
X115902342Y-154020780D01*
X115902342Y-153020780D01*
X116235676Y-153020780D01*
X116330914Y-153068400D01*
X116378533Y-153116019D01*
X116426152Y-153211257D01*
X116426152Y-153306495D01*
X116378533Y-153401733D01*
X116330914Y-153449352D01*
X116235676Y-153496971D01*
X115902342Y-153496971D01*
X116854723Y-153735066D02*
X117330914Y-153735066D01*
X116759485Y-154020780D02*
X117092819Y-153020780D01*
X117426152Y-154020780D01*
X117616628Y-153020780D02*
X118188057Y-153020780D01*
X117902342Y-154020780D02*
X117902342Y-153020780D01*
X117434247Y-158313428D02*
X118196152Y-158313428D01*
X113222380Y-161826576D02*
X112746190Y-162159909D01*
X113222380Y-162398004D02*
X112222380Y-162398004D01*
X112222380Y-162017052D01*
X112270000Y-161921814D01*
X112317619Y-161874195D01*
X112412857Y-161826576D01*
X112555714Y-161826576D01*
X112650952Y-161874195D01*
X112698571Y-161921814D01*
X112746190Y-162017052D01*
X112746190Y-162398004D01*
X112222380Y-161493242D02*
X113222380Y-160826576D01*
X112222380Y-160826576D02*
X113222380Y-161493242D01*
X118302380Y-162398004D02*
X117302380Y-162398004D01*
X117302380Y-162159909D01*
X117350000Y-162017052D01*
X117445238Y-161921814D01*
X117540476Y-161874195D01*
X117730952Y-161826576D01*
X117873809Y-161826576D01*
X118064285Y-161874195D01*
X118159523Y-161921814D01*
X118254761Y-162017052D01*
X118302380Y-162159909D01*
X118302380Y-162398004D01*
X117302380Y-161540861D02*
X117302380Y-160969433D01*
X118302380Y-161255147D02*
X117302380Y-161255147D01*
X118302380Y-160064671D02*
X117826190Y-160398004D01*
X118302380Y-160636100D02*
X117302380Y-160636100D01*
X117302380Y-160255147D01*
X117350000Y-160159909D01*
X117397619Y-160112290D01*
X117492857Y-160064671D01*
X117635714Y-160064671D01*
X117730952Y-160112290D01*
X117778571Y-160159909D01*
X117826190Y-160255147D01*
X117826190Y-160636100D01*
X117805352Y-67705366D02*
X118281542Y-67705366D01*
X117710114Y-67991080D02*
X118043447Y-66991080D01*
X118376780Y-67991080D01*
X118710114Y-67991080D02*
X118710114Y-66991080D01*
X118948209Y-66991080D01*
X119091066Y-67038700D01*
X119186304Y-67133938D01*
X119233923Y-67229176D01*
X119281542Y-67419652D01*
X119281542Y-67562509D01*
X119233923Y-67752985D01*
X119186304Y-67848223D01*
X119091066Y-67943461D01*
X118948209Y-67991080D01*
X118710114Y-67991080D01*
X119995828Y-66991080D02*
X119995828Y-67705366D01*
X119948209Y-67848223D01*
X119852971Y-67943461D01*
X119710114Y-67991080D01*
X119614876Y-67991080D01*
D12*
X93548209Y-160379242D02*
X93114876Y-160379242D01*
X93114876Y-161060195D02*
X93114876Y-159760195D01*
X93733923Y-159760195D01*
X94414876Y-161060195D02*
X94291066Y-160998290D01*
X94229161Y-160874480D01*
X94229161Y-159760195D01*
X95467257Y-160193528D02*
X95467257Y-161060195D01*
X94910114Y-160193528D02*
X94910114Y-160874480D01*
X94972019Y-160998290D01*
X95095828Y-161060195D01*
X95281542Y-161060195D01*
X95405352Y-160998290D01*
X95467257Y-160936385D01*
X96086304Y-161060195D02*
X96086304Y-159760195D01*
X96210114Y-160564957D02*
X96581542Y-161060195D01*
X96581542Y-160193528D02*
X96086304Y-160688766D01*
X97633923Y-160998290D02*
X97510114Y-161060195D01*
X97262495Y-161060195D01*
X97138685Y-160998290D01*
X97076780Y-160874480D01*
X97076780Y-160379242D01*
X97138685Y-160255433D01*
X97262495Y-160193528D01*
X97510114Y-160193528D01*
X97633923Y-160255433D01*
X97695828Y-160379242D01*
X97695828Y-160503052D01*
X97076780Y-160626861D01*
X99429161Y-160317338D02*
X99305352Y-160255433D01*
X99243447Y-160193528D01*
X99181542Y-160069719D01*
X99181542Y-160007814D01*
X99243447Y-159884004D01*
X99305352Y-159822100D01*
X99429161Y-159760195D01*
X99676780Y-159760195D01*
X99800590Y-159822100D01*
X99862495Y-159884004D01*
X99924400Y-160007814D01*
X99924400Y-160069719D01*
X99862495Y-160193528D01*
X99800590Y-160255433D01*
X99676780Y-160317338D01*
X99429161Y-160317338D01*
X99305352Y-160379242D01*
X99243447Y-160441147D01*
X99181542Y-160564957D01*
X99181542Y-160812576D01*
X99243447Y-160936385D01*
X99305352Y-160998290D01*
X99429161Y-161060195D01*
X99676780Y-161060195D01*
X99800590Y-160998290D01*
X99862495Y-160936385D01*
X99924400Y-160812576D01*
X99924400Y-160564957D01*
X99862495Y-160441147D01*
X99800590Y-160379242D01*
X99676780Y-160317338D01*
X100357733Y-159760195D02*
X101224400Y-159760195D01*
X100667257Y-161060195D01*
X101533923Y-159760195D02*
X101967257Y-161060195D01*
X102400590Y-159760195D01*
X90948209Y-162781766D02*
X91567257Y-162781766D01*
X90824400Y-163153195D02*
X91257733Y-161853195D01*
X91691066Y-163153195D01*
X92310114Y-163153195D02*
X92186304Y-163091290D01*
X92124400Y-162967480D01*
X92124400Y-161853195D01*
X93362495Y-163153195D02*
X93362495Y-162472242D01*
X93300590Y-162348433D01*
X93176780Y-162286528D01*
X92929161Y-162286528D01*
X92805352Y-162348433D01*
X93362495Y-163091290D02*
X93238685Y-163153195D01*
X92929161Y-163153195D01*
X92805352Y-163091290D01*
X92743447Y-162967480D01*
X92743447Y-162843671D01*
X92805352Y-162719861D01*
X92929161Y-162657957D01*
X93238685Y-162657957D01*
X93362495Y-162596052D01*
X93981542Y-163153195D02*
X93981542Y-162286528D01*
X93981542Y-162534147D02*
X94043447Y-162410338D01*
X94105352Y-162348433D01*
X94229161Y-162286528D01*
X94352971Y-162286528D01*
X94786304Y-163153195D02*
X94786304Y-162286528D01*
X94786304Y-162410338D02*
X94848209Y-162348433D01*
X94972019Y-162286528D01*
X95157733Y-162286528D01*
X95281542Y-162348433D01*
X95343447Y-162472242D01*
X95343447Y-163153195D01*
X95343447Y-162472242D02*
X95405352Y-162348433D01*
X95529161Y-162286528D01*
X95714876Y-162286528D01*
X95838685Y-162348433D01*
X95900590Y-162472242D01*
X95900590Y-163153195D01*
X98252971Y-163029385D02*
X98191066Y-163091290D01*
X98005352Y-163153195D01*
X97881542Y-163153195D01*
X97695828Y-163091290D01*
X97572019Y-162967480D01*
X97510114Y-162843671D01*
X97448209Y-162596052D01*
X97448209Y-162410338D01*
X97510114Y-162162719D01*
X97572019Y-162038909D01*
X97695828Y-161915100D01*
X97881542Y-161853195D01*
X98005352Y-161853195D01*
X98191066Y-161915100D01*
X98252971Y-161977004D01*
X98995828Y-163153195D02*
X98872019Y-163091290D01*
X98810114Y-162967480D01*
X98810114Y-161853195D01*
X99676780Y-163153195D02*
X99552971Y-163091290D01*
X99491066Y-163029385D01*
X99429161Y-162905576D01*
X99429161Y-162534147D01*
X99491066Y-162410338D01*
X99552971Y-162348433D01*
X99676780Y-162286528D01*
X99862495Y-162286528D01*
X99986304Y-162348433D01*
X100048209Y-162410338D01*
X100110114Y-162534147D01*
X100110114Y-162905576D01*
X100048209Y-163029385D01*
X99986304Y-163091290D01*
X99862495Y-163153195D01*
X99676780Y-163153195D01*
X101224400Y-163091290D02*
X101100590Y-163153195D01*
X100852971Y-163153195D01*
X100729161Y-163091290D01*
X100667257Y-163029385D01*
X100605352Y-162905576D01*
X100605352Y-162534147D01*
X100667257Y-162410338D01*
X100729161Y-162348433D01*
X100852971Y-162286528D01*
X101100590Y-162286528D01*
X101224400Y-162348433D01*
X101781542Y-163153195D02*
X101781542Y-161853195D01*
X101905352Y-162657957D02*
X102276780Y-163153195D01*
X102276780Y-162286528D02*
X101781542Y-162781766D01*
D10*
X110390095Y-67038700D02*
X110294857Y-66991080D01*
X110152000Y-66991080D01*
X110009142Y-67038700D01*
X109913904Y-67133938D01*
X109866285Y-67229176D01*
X109818666Y-67419652D01*
X109818666Y-67562509D01*
X109866285Y-67752985D01*
X109913904Y-67848223D01*
X110009142Y-67943461D01*
X110152000Y-67991080D01*
X110247238Y-67991080D01*
X110390095Y-67943461D01*
X110437714Y-67895842D01*
X110437714Y-67562509D01*
X110247238Y-67562509D01*
X110866285Y-67991080D02*
X110866285Y-66991080D01*
X111437714Y-67991080D01*
X111437714Y-66991080D01*
X111913904Y-67991080D02*
X111913904Y-66991080D01*
X112152000Y-66991080D01*
X112294857Y-67038700D01*
X112390095Y-67133938D01*
X112437714Y-67229176D01*
X112485333Y-67419652D01*
X112485333Y-67562509D01*
X112437714Y-67752985D01*
X112390095Y-67848223D01*
X112294857Y-67943461D01*
X112152000Y-67991080D01*
X111913904Y-67991080D01*
X88680395Y-164672971D02*
X88823252Y-164720590D01*
X88870871Y-164768209D01*
X88918490Y-164863447D01*
X88918490Y-165006304D01*
X88870871Y-165101542D01*
X88823252Y-165149161D01*
X88728014Y-165196780D01*
X88347061Y-165196780D01*
X88347061Y-164196780D01*
X88680395Y-164196780D01*
X88775633Y-164244400D01*
X88823252Y-164292019D01*
X88870871Y-164387257D01*
X88870871Y-164482495D01*
X88823252Y-164577733D01*
X88775633Y-164625352D01*
X88680395Y-164672971D01*
X88347061Y-164672971D01*
X89251823Y-164530114D02*
X89489919Y-165196780D01*
X89728014Y-164530114D02*
X89489919Y-165196780D01*
X89394680Y-165434876D01*
X89347061Y-165482495D01*
X89251823Y-165530114D01*
X90108966Y-165101542D02*
X90156585Y-165149161D01*
X90108966Y-165196780D01*
X90061347Y-165149161D01*
X90108966Y-165101542D01*
X90108966Y-165196780D01*
X90108966Y-164577733D02*
X90156585Y-164625352D01*
X90108966Y-164672971D01*
X90061347Y-164625352D01*
X90108966Y-164577733D01*
X90108966Y-164672971D01*
X91347061Y-165196780D02*
X91347061Y-164196780D01*
X91680395Y-164911066D01*
X92013728Y-164196780D01*
X92013728Y-165196780D01*
X92489919Y-165196780D02*
X92489919Y-164530114D01*
X92489919Y-164196780D02*
X92442300Y-164244400D01*
X92489919Y-164292019D01*
X92537538Y-164244400D01*
X92489919Y-164196780D01*
X92489919Y-164292019D01*
X92966109Y-165196780D02*
X92966109Y-164196780D01*
X93061347Y-164815828D02*
X93347061Y-165196780D01*
X93347061Y-164530114D02*
X92966109Y-164911066D01*
X94156585Y-165149161D02*
X94061347Y-165196780D01*
X93870871Y-165196780D01*
X93775633Y-165149161D01*
X93728014Y-165053923D01*
X93728014Y-164672971D01*
X93775633Y-164577733D01*
X93870871Y-164530114D01*
X94061347Y-164530114D01*
X94156585Y-164577733D01*
X94204204Y-164672971D01*
X94204204Y-164768209D01*
X93728014Y-164863447D01*
X95394680Y-165196780D02*
X95394680Y-164196780D01*
X95966109Y-165196780D02*
X95537538Y-164625352D01*
X95966109Y-164196780D02*
X95394680Y-164768209D01*
X96823252Y-164530114D02*
X96823252Y-165196780D01*
X96394680Y-164530114D02*
X96394680Y-165053923D01*
X96442300Y-165149161D01*
X96537538Y-165196780D01*
X96680395Y-165196780D01*
X96775633Y-165149161D01*
X96823252Y-165101542D01*
X97251823Y-165149161D02*
X97347061Y-165196780D01*
X97537538Y-165196780D01*
X97632776Y-165149161D01*
X97680395Y-165053923D01*
X97680395Y-165006304D01*
X97632776Y-164911066D01*
X97537538Y-164863447D01*
X97394680Y-164863447D01*
X97299442Y-164815828D01*
X97251823Y-164720590D01*
X97251823Y-164672971D01*
X97299442Y-164577733D01*
X97394680Y-164530114D01*
X97537538Y-164530114D01*
X97632776Y-164577733D01*
X98108966Y-165196780D02*
X98108966Y-164196780D01*
X98537538Y-165196780D02*
X98537538Y-164672971D01*
X98489919Y-164577733D01*
X98394680Y-164530114D01*
X98251823Y-164530114D01*
X98156585Y-164577733D01*
X98108966Y-164625352D01*
X99013728Y-164530114D02*
X99013728Y-165196780D01*
X99013728Y-164625352D02*
X99061347Y-164577733D01*
X99156585Y-164530114D01*
X99299442Y-164530114D01*
X99394680Y-164577733D01*
X99442300Y-164672971D01*
X99442300Y-165196780D01*
X100299442Y-165149161D02*
X100204204Y-165196780D01*
X100013728Y-165196780D01*
X99918490Y-165149161D01*
X99870871Y-165053923D01*
X99870871Y-164672971D01*
X99918490Y-164577733D01*
X100013728Y-164530114D01*
X100204204Y-164530114D01*
X100299442Y-164577733D01*
X100347061Y-164672971D01*
X100347061Y-164768209D01*
X99870871Y-164863447D01*
X100775633Y-165196780D02*
X100775633Y-164530114D01*
X100775633Y-164720590D02*
X100823252Y-164625352D01*
X100870871Y-164577733D01*
X100966109Y-164530114D01*
X101061347Y-164530114D01*
X101394680Y-165196780D02*
X101394680Y-164530114D01*
X101394680Y-164196780D02*
X101347061Y-164244400D01*
X101394680Y-164292019D01*
X101442300Y-164244400D01*
X101394680Y-164196780D01*
X101394680Y-164292019D01*
X101870871Y-165196780D02*
X101870871Y-164196780D01*
X101966109Y-164815828D02*
X102251823Y-165196780D01*
X102251823Y-164530114D02*
X101870871Y-164911066D01*
X118168800Y-108970195D02*
X118121180Y-109065433D01*
X118121180Y-109208290D01*
X118168800Y-109351147D01*
X118264038Y-109446385D01*
X118359276Y-109494004D01*
X118549752Y-109541623D01*
X118692609Y-109541623D01*
X118883085Y-109494004D01*
X118978323Y-109446385D01*
X119073561Y-109351147D01*
X119121180Y-109208290D01*
X119121180Y-109113052D01*
X119073561Y-108970195D01*
X119025942Y-108922576D01*
X118692609Y-108922576D01*
X118692609Y-109113052D01*
X119121180Y-108494004D02*
X118121180Y-108494004D01*
X119121180Y-107922576D01*
X118121180Y-107922576D01*
X119121180Y-107446385D02*
X118121180Y-107446385D01*
X118121180Y-107208290D01*
X118168800Y-107065433D01*
X118264038Y-106970195D01*
X118359276Y-106922576D01*
X118549752Y-106874957D01*
X118692609Y-106874957D01*
X118883085Y-106922576D01*
X118978323Y-106970195D01*
X119073561Y-107065433D01*
X119121180Y-107208290D01*
X119121180Y-107446385D01*
X116581180Y-109572228D02*
X115581180Y-109572228D01*
X116295466Y-109238895D01*
X115581180Y-108905561D01*
X116581180Y-108905561D01*
X115581180Y-108238895D02*
X115581180Y-108048419D01*
X115628800Y-107953180D01*
X115724038Y-107857942D01*
X115914514Y-107810323D01*
X116247847Y-107810323D01*
X116438323Y-107857942D01*
X116533561Y-107953180D01*
X116581180Y-108048419D01*
X116581180Y-108238895D01*
X116533561Y-108334133D01*
X116438323Y-108429371D01*
X116247847Y-108476990D01*
X115914514Y-108476990D01*
X115724038Y-108429371D01*
X115628800Y-108334133D01*
X115581180Y-108238895D01*
X116533561Y-107429371D02*
X116581180Y-107286514D01*
X116581180Y-107048419D01*
X116533561Y-106953180D01*
X116485942Y-106905561D01*
X116390704Y-106857942D01*
X116295466Y-106857942D01*
X116200228Y-106905561D01*
X116152609Y-106953180D01*
X116104990Y-107048419D01*
X116057371Y-107238895D01*
X116009752Y-107334133D01*
X115962133Y-107381752D01*
X115866895Y-107429371D01*
X115771657Y-107429371D01*
X115676419Y-107381752D01*
X115628800Y-107334133D01*
X115581180Y-107238895D01*
X115581180Y-107000800D01*
X115628800Y-106857942D01*
X116581180Y-106429371D02*
X115581180Y-106429371D01*
X114792647Y-158313428D02*
X115554552Y-158313428D01*
X115173600Y-158694380D02*
X115173600Y-157932476D01*
X114041180Y-119021028D02*
X113041180Y-119021028D01*
X113755466Y-118687695D01*
X113041180Y-118354361D01*
X114041180Y-118354361D01*
X114041180Y-117878171D02*
X113041180Y-117878171D01*
X113993561Y-117449600D02*
X114041180Y-117306742D01*
X114041180Y-117068647D01*
X113993561Y-116973409D01*
X113945942Y-116925790D01*
X113850704Y-116878171D01*
X113755466Y-116878171D01*
X113660228Y-116925790D01*
X113612609Y-116973409D01*
X113564990Y-117068647D01*
X113517371Y-117259123D01*
X113469752Y-117354361D01*
X113422133Y-117401980D01*
X113326895Y-117449600D01*
X113231657Y-117449600D01*
X113136419Y-117401980D01*
X113088800Y-117354361D01*
X113041180Y-117259123D01*
X113041180Y-117021028D01*
X113088800Y-116878171D01*
X113041180Y-116259123D02*
X113041180Y-116068647D01*
X113088800Y-115973409D01*
X113184038Y-115878171D01*
X113374514Y-115830552D01*
X113707847Y-115830552D01*
X113898323Y-115878171D01*
X113993561Y-115973409D01*
X114041180Y-116068647D01*
X114041180Y-116259123D01*
X113993561Y-116354361D01*
X113898323Y-116449600D01*
X113707847Y-116497219D01*
X113374514Y-116497219D01*
X113184038Y-116449600D01*
X113088800Y-116354361D01*
X113041180Y-116259123D01*
X116533561Y-118430514D02*
X116581180Y-118287657D01*
X116581180Y-118049561D01*
X116533561Y-117954323D01*
X116485942Y-117906704D01*
X116390704Y-117859085D01*
X116295466Y-117859085D01*
X116200228Y-117906704D01*
X116152609Y-117954323D01*
X116104990Y-118049561D01*
X116057371Y-118240038D01*
X116009752Y-118335276D01*
X115962133Y-118382895D01*
X115866895Y-118430514D01*
X115771657Y-118430514D01*
X115676419Y-118382895D01*
X115628800Y-118335276D01*
X115581180Y-118240038D01*
X115581180Y-118001942D01*
X115628800Y-117859085D01*
X116485942Y-116859085D02*
X116533561Y-116906704D01*
X116581180Y-117049561D01*
X116581180Y-117144800D01*
X116533561Y-117287657D01*
X116438323Y-117382895D01*
X116343085Y-117430514D01*
X116152609Y-117478133D01*
X116009752Y-117478133D01*
X115819276Y-117430514D01*
X115724038Y-117382895D01*
X115628800Y-117287657D01*
X115581180Y-117144800D01*
X115581180Y-117049561D01*
X115628800Y-116906704D01*
X115676419Y-116859085D01*
X116581180Y-116430514D02*
X115581180Y-116430514D01*
X116581180Y-115859085D02*
X116009752Y-116287657D01*
X115581180Y-115859085D02*
X116152609Y-116430514D01*
%TO.C,REF\u002A\u002A*%
X82375047Y-150669228D02*
X83136952Y-150669228D01*
X82756000Y-151050180D02*
X82756000Y-150288276D01*
X76375047Y-150669228D02*
X77136952Y-150669228D01*
%TO.C,C13*%
X129709942Y-151610342D02*
X129662323Y-151657961D01*
X129519466Y-151705580D01*
X129424228Y-151705580D01*
X129281371Y-151657961D01*
X129186133Y-151562723D01*
X129138514Y-151467485D01*
X129090895Y-151277009D01*
X129090895Y-151134152D01*
X129138514Y-150943676D01*
X129186133Y-150848438D01*
X129281371Y-150753200D01*
X129424228Y-150705580D01*
X129519466Y-150705580D01*
X129662323Y-150753200D01*
X129709942Y-150800819D01*
X130662323Y-151705580D02*
X130090895Y-151705580D01*
X130376609Y-151705580D02*
X130376609Y-150705580D01*
X130281371Y-150848438D01*
X130186133Y-150943676D01*
X130090895Y-150991295D01*
X130995657Y-150705580D02*
X131614704Y-150705580D01*
X131281371Y-151086533D01*
X131424228Y-151086533D01*
X131519466Y-151134152D01*
X131567085Y-151181771D01*
X131614704Y-151277009D01*
X131614704Y-151515104D01*
X131567085Y-151610342D01*
X131519466Y-151657961D01*
X131424228Y-151705580D01*
X131138514Y-151705580D01*
X131043276Y-151657961D01*
X130995657Y-151610342D01*
%TO.C,Q1*%
X75144261Y-148697419D02*
X75049023Y-148649800D01*
X74953785Y-148554561D01*
X74810928Y-148411704D01*
X74715690Y-148364085D01*
X74620452Y-148364085D01*
X74668071Y-148602180D02*
X74572833Y-148554561D01*
X74477595Y-148459323D01*
X74429976Y-148268847D01*
X74429976Y-147935514D01*
X74477595Y-147745038D01*
X74572833Y-147649800D01*
X74668071Y-147602180D01*
X74858547Y-147602180D01*
X74953785Y-147649800D01*
X75049023Y-147745038D01*
X75096642Y-147935514D01*
X75096642Y-148268847D01*
X75049023Y-148459323D01*
X74953785Y-148554561D01*
X74858547Y-148602180D01*
X74668071Y-148602180D01*
X76049023Y-148602180D02*
X75477595Y-148602180D01*
X75763309Y-148602180D02*
X75763309Y-147602180D01*
X75668071Y-147745038D01*
X75572833Y-147840276D01*
X75477595Y-147887895D01*
%TO.C,C8*%
X73290133Y-69525142D02*
X73242514Y-69572761D01*
X73099657Y-69620380D01*
X73004419Y-69620380D01*
X72861561Y-69572761D01*
X72766323Y-69477523D01*
X72718704Y-69382285D01*
X72671085Y-69191809D01*
X72671085Y-69048952D01*
X72718704Y-68858476D01*
X72766323Y-68763238D01*
X72861561Y-68668000D01*
X73004419Y-68620380D01*
X73099657Y-68620380D01*
X73242514Y-68668000D01*
X73290133Y-68715619D01*
X73861561Y-69048952D02*
X73766323Y-69001333D01*
X73718704Y-68953714D01*
X73671085Y-68858476D01*
X73671085Y-68810857D01*
X73718704Y-68715619D01*
X73766323Y-68668000D01*
X73861561Y-68620380D01*
X74052038Y-68620380D01*
X74147276Y-68668000D01*
X74194895Y-68715619D01*
X74242514Y-68810857D01*
X74242514Y-68858476D01*
X74194895Y-68953714D01*
X74147276Y-69001333D01*
X74052038Y-69048952D01*
X73861561Y-69048952D01*
X73766323Y-69096571D01*
X73718704Y-69144190D01*
X73671085Y-69239428D01*
X73671085Y-69429904D01*
X73718704Y-69525142D01*
X73766323Y-69572761D01*
X73861561Y-69620380D01*
X74052038Y-69620380D01*
X74147276Y-69572761D01*
X74194895Y-69525142D01*
X74242514Y-69429904D01*
X74242514Y-69239428D01*
X74194895Y-69144190D01*
X74147276Y-69096571D01*
X74052038Y-69048952D01*
%TO.C,R22*%
X118940342Y-150007580D02*
X118607009Y-149531390D01*
X118368914Y-150007580D02*
X118368914Y-149007580D01*
X118749866Y-149007580D01*
X118845104Y-149055200D01*
X118892723Y-149102819D01*
X118940342Y-149198057D01*
X118940342Y-149340914D01*
X118892723Y-149436152D01*
X118845104Y-149483771D01*
X118749866Y-149531390D01*
X118368914Y-149531390D01*
X119321295Y-149102819D02*
X119368914Y-149055200D01*
X119464152Y-149007580D01*
X119702247Y-149007580D01*
X119797485Y-149055200D01*
X119845104Y-149102819D01*
X119892723Y-149198057D01*
X119892723Y-149293295D01*
X119845104Y-149436152D01*
X119273676Y-150007580D01*
X119892723Y-150007580D01*
X120273676Y-149102819D02*
X120321295Y-149055200D01*
X120416533Y-149007580D01*
X120654628Y-149007580D01*
X120749866Y-149055200D01*
X120797485Y-149102819D01*
X120845104Y-149198057D01*
X120845104Y-149293295D01*
X120797485Y-149436152D01*
X120226057Y-150007580D01*
X120845104Y-150007580D01*
%TO.C,D3*%
X115949504Y-132967980D02*
X115949504Y-131967980D01*
X116187600Y-131967980D01*
X116330457Y-132015600D01*
X116425695Y-132110838D01*
X116473314Y-132206076D01*
X116520933Y-132396552D01*
X116520933Y-132539409D01*
X116473314Y-132729885D01*
X116425695Y-132825123D01*
X116330457Y-132920361D01*
X116187600Y-132967980D01*
X115949504Y-132967980D01*
X116854266Y-131967980D02*
X117473314Y-131967980D01*
X117139980Y-132348933D01*
X117282838Y-132348933D01*
X117378076Y-132396552D01*
X117425695Y-132444171D01*
X117473314Y-132539409D01*
X117473314Y-132777504D01*
X117425695Y-132872742D01*
X117378076Y-132920361D01*
X117282838Y-132967980D01*
X116997123Y-132967980D01*
X116901885Y-132920361D01*
X116854266Y-132872742D01*
%TO.C,C2*%
X77142933Y-143337542D02*
X77095314Y-143385161D01*
X76952457Y-143432780D01*
X76857219Y-143432780D01*
X76714361Y-143385161D01*
X76619123Y-143289923D01*
X76571504Y-143194685D01*
X76523885Y-143004209D01*
X76523885Y-142861352D01*
X76571504Y-142670876D01*
X76619123Y-142575638D01*
X76714361Y-142480400D01*
X76857219Y-142432780D01*
X76952457Y-142432780D01*
X77095314Y-142480400D01*
X77142933Y-142528019D01*
X77523885Y-142528019D02*
X77571504Y-142480400D01*
X77666742Y-142432780D01*
X77904838Y-142432780D01*
X78000076Y-142480400D01*
X78047695Y-142528019D01*
X78095314Y-142623257D01*
X78095314Y-142718495D01*
X78047695Y-142861352D01*
X77476266Y-143432780D01*
X78095314Y-143432780D01*
%TO.C,SW8*%
X111188666Y-104154761D02*
X111331523Y-104202380D01*
X111569619Y-104202380D01*
X111664857Y-104154761D01*
X111712476Y-104107142D01*
X111760095Y-104011904D01*
X111760095Y-103916666D01*
X111712476Y-103821428D01*
X111664857Y-103773809D01*
X111569619Y-103726190D01*
X111379142Y-103678571D01*
X111283904Y-103630952D01*
X111236285Y-103583333D01*
X111188666Y-103488095D01*
X111188666Y-103392857D01*
X111236285Y-103297619D01*
X111283904Y-103250000D01*
X111379142Y-103202380D01*
X111617238Y-103202380D01*
X111760095Y-103250000D01*
X112093428Y-103202380D02*
X112331523Y-104202380D01*
X112522000Y-103488095D01*
X112712476Y-104202380D01*
X112950571Y-103202380D01*
X113474380Y-103630952D02*
X113379142Y-103583333D01*
X113331523Y-103535714D01*
X113283904Y-103440476D01*
X113283904Y-103392857D01*
X113331523Y-103297619D01*
X113379142Y-103250000D01*
X113474380Y-103202380D01*
X113664857Y-103202380D01*
X113760095Y-103250000D01*
X113807714Y-103297619D01*
X113855333Y-103392857D01*
X113855333Y-103440476D01*
X113807714Y-103535714D01*
X113760095Y-103583333D01*
X113664857Y-103630952D01*
X113474380Y-103630952D01*
X113379142Y-103678571D01*
X113331523Y-103726190D01*
X113283904Y-103821428D01*
X113283904Y-104011904D01*
X113331523Y-104107142D01*
X113379142Y-104154761D01*
X113474380Y-104202380D01*
X113664857Y-104202380D01*
X113760095Y-104154761D01*
X113807714Y-104107142D01*
X113855333Y-104011904D01*
X113855333Y-103821428D01*
X113807714Y-103726190D01*
X113760095Y-103678571D01*
X113664857Y-103630952D01*
X108285712Y-107161580D02*
X107952379Y-106685390D01*
X107714284Y-107161580D02*
X107714284Y-106161580D01*
X108095236Y-106161580D01*
X108190474Y-106209200D01*
X108238093Y-106256819D01*
X108285712Y-106352057D01*
X108285712Y-106494914D01*
X108238093Y-106590152D01*
X108190474Y-106637771D01*
X108095236Y-106685390D01*
X107714284Y-106685390D01*
X108714284Y-106637771D02*
X109047617Y-106637771D01*
X109190474Y-107161580D02*
X108714284Y-107161580D01*
X108714284Y-106161580D01*
X109190474Y-106161580D01*
X110095236Y-107161580D02*
X109619046Y-107161580D01*
X109619046Y-106161580D01*
%TO.C,C6*%
X133081733Y-125528342D02*
X133034114Y-125575961D01*
X132891257Y-125623580D01*
X132796019Y-125623580D01*
X132653161Y-125575961D01*
X132557923Y-125480723D01*
X132510304Y-125385485D01*
X132462685Y-125195009D01*
X132462685Y-125052152D01*
X132510304Y-124861676D01*
X132557923Y-124766438D01*
X132653161Y-124671200D01*
X132796019Y-124623580D01*
X132891257Y-124623580D01*
X133034114Y-124671200D01*
X133081733Y-124718819D01*
X133938876Y-124623580D02*
X133748400Y-124623580D01*
X133653161Y-124671200D01*
X133605542Y-124718819D01*
X133510304Y-124861676D01*
X133462685Y-125052152D01*
X133462685Y-125433104D01*
X133510304Y-125528342D01*
X133557923Y-125575961D01*
X133653161Y-125623580D01*
X133843638Y-125623580D01*
X133938876Y-125575961D01*
X133986495Y-125528342D01*
X134034114Y-125433104D01*
X134034114Y-125195009D01*
X133986495Y-125099771D01*
X133938876Y-125052152D01*
X133843638Y-125004533D01*
X133653161Y-125004533D01*
X133557923Y-125052152D01*
X133510304Y-125099771D01*
X133462685Y-125195009D01*
%TO.C,J5*%
X110359866Y-111263180D02*
X110359866Y-111977466D01*
X110312247Y-112120323D01*
X110217009Y-112215561D01*
X110074152Y-112263180D01*
X109978914Y-112263180D01*
X111312247Y-111263180D02*
X110836057Y-111263180D01*
X110788438Y-111739371D01*
X110836057Y-111691752D01*
X110931295Y-111644133D01*
X111169390Y-111644133D01*
X111264628Y-111691752D01*
X111312247Y-111739371D01*
X111359866Y-111834609D01*
X111359866Y-112072704D01*
X111312247Y-112167942D01*
X111264628Y-112215561D01*
X111169390Y-112263180D01*
X110931295Y-112263180D01*
X110836057Y-112215561D01*
X110788438Y-112167942D01*
X108353409Y-113961180D02*
X108353409Y-112961180D01*
X109401028Y-113865942D02*
X109353409Y-113913561D01*
X109210552Y-113961180D01*
X109115314Y-113961180D01*
X108972457Y-113913561D01*
X108877219Y-113818323D01*
X108829600Y-113723085D01*
X108781980Y-113532609D01*
X108781980Y-113389752D01*
X108829600Y-113199276D01*
X108877219Y-113104038D01*
X108972457Y-113008800D01*
X109115314Y-112961180D01*
X109210552Y-112961180D01*
X109353409Y-113008800D01*
X109401028Y-113056419D01*
X109781980Y-113913561D02*
X109924838Y-113961180D01*
X110162933Y-113961180D01*
X110258171Y-113913561D01*
X110305790Y-113865942D01*
X110353409Y-113770704D01*
X110353409Y-113675466D01*
X110305790Y-113580228D01*
X110258171Y-113532609D01*
X110162933Y-113484990D01*
X109972457Y-113437371D01*
X109877219Y-113389752D01*
X109829600Y-113342133D01*
X109781980Y-113246895D01*
X109781980Y-113151657D01*
X109829600Y-113056419D01*
X109877219Y-113008800D01*
X109972457Y-112961180D01*
X110210552Y-112961180D01*
X110353409Y-113008800D01*
X110781980Y-113961180D02*
X110781980Y-112961180D01*
X111162933Y-112961180D01*
X111258171Y-113008800D01*
X111305790Y-113056419D01*
X111353409Y-113151657D01*
X111353409Y-113294514D01*
X111305790Y-113389752D01*
X111258171Y-113437371D01*
X111162933Y-113484990D01*
X110781980Y-113484990D01*
%TO.C,D1*%
X132016666Y-132989580D02*
X132016666Y-131989580D01*
X132397619Y-131989580D01*
X132492857Y-132037200D01*
X132540476Y-132084819D01*
X132588095Y-132180057D01*
X132588095Y-132322914D01*
X132540476Y-132418152D01*
X132492857Y-132465771D01*
X132397619Y-132513390D01*
X132016666Y-132513390D01*
X132921428Y-131989580D02*
X133159523Y-132989580D01*
X133350000Y-132275295D01*
X133540476Y-132989580D01*
X133778571Y-131989580D01*
X134730952Y-132989580D02*
X134397619Y-132513390D01*
X134159523Y-132989580D02*
X134159523Y-131989580D01*
X134540476Y-131989580D01*
X134635714Y-132037200D01*
X134683333Y-132084819D01*
X134730952Y-132180057D01*
X134730952Y-132322914D01*
X134683333Y-132418152D01*
X134635714Y-132465771D01*
X134540476Y-132513390D01*
X134159523Y-132513390D01*
%TO.C,C1*%
X79924133Y-146857142D02*
X79876514Y-146904761D01*
X79733657Y-146952380D01*
X79638419Y-146952380D01*
X79495561Y-146904761D01*
X79400323Y-146809523D01*
X79352704Y-146714285D01*
X79305085Y-146523809D01*
X79305085Y-146380952D01*
X79352704Y-146190476D01*
X79400323Y-146095238D01*
X79495561Y-146000000D01*
X79638419Y-145952380D01*
X79733657Y-145952380D01*
X79876514Y-146000000D01*
X79924133Y-146047619D01*
X80876514Y-146952380D02*
X80305085Y-146952380D01*
X80590800Y-146952380D02*
X80590800Y-145952380D01*
X80495561Y-146095238D01*
X80400323Y-146190476D01*
X80305085Y-146238095D01*
%TO.C,C4*%
X105309942Y-60820176D02*
X105357561Y-60867795D01*
X105405180Y-61010652D01*
X105405180Y-61105890D01*
X105357561Y-61248747D01*
X105262323Y-61343985D01*
X105167085Y-61391604D01*
X104976609Y-61439223D01*
X104833752Y-61439223D01*
X104643276Y-61391604D01*
X104548038Y-61343985D01*
X104452800Y-61248747D01*
X104405180Y-61105890D01*
X104405180Y-61010652D01*
X104452800Y-60867795D01*
X104500419Y-60820176D01*
X104738514Y-59963033D02*
X105405180Y-59963033D01*
X104357561Y-60201128D02*
X105071847Y-60439223D01*
X105071847Y-59820176D01*
%TO.C,R4*%
X111257465Y-90960380D02*
X110924132Y-90484190D01*
X110686036Y-90960380D02*
X110686036Y-89960380D01*
X111066989Y-89960380D01*
X111162227Y-90008000D01*
X111209846Y-90055619D01*
X111257465Y-90150857D01*
X111257465Y-90293714D01*
X111209846Y-90388952D01*
X111162227Y-90436571D01*
X111066989Y-90484190D01*
X110686036Y-90484190D01*
X112114608Y-90293714D02*
X112114608Y-90960380D01*
X111876512Y-89912761D02*
X111638417Y-90627047D01*
X112257465Y-90627047D01*
%TO.C,R12*%
X66514742Y-59352380D02*
X66181409Y-58876190D01*
X65943314Y-59352380D02*
X65943314Y-58352380D01*
X66324266Y-58352380D01*
X66419504Y-58400000D01*
X66467123Y-58447619D01*
X66514742Y-58542857D01*
X66514742Y-58685714D01*
X66467123Y-58780952D01*
X66419504Y-58828571D01*
X66324266Y-58876190D01*
X65943314Y-58876190D01*
X67467123Y-59352380D02*
X66895695Y-59352380D01*
X67181409Y-59352380D02*
X67181409Y-58352380D01*
X67086171Y-58495238D01*
X66990933Y-58590476D01*
X66895695Y-58638095D01*
X67848076Y-58447619D02*
X67895695Y-58400000D01*
X67990933Y-58352380D01*
X68229028Y-58352380D01*
X68324266Y-58400000D01*
X68371885Y-58447619D01*
X68419504Y-58542857D01*
X68419504Y-58638095D01*
X68371885Y-58780952D01*
X67800457Y-59352380D01*
X68419504Y-59352380D01*
%TO.C,C9*%
X73290133Y-71404742D02*
X73242514Y-71452361D01*
X73099657Y-71499980D01*
X73004419Y-71499980D01*
X72861561Y-71452361D01*
X72766323Y-71357123D01*
X72718704Y-71261885D01*
X72671085Y-71071409D01*
X72671085Y-70928552D01*
X72718704Y-70738076D01*
X72766323Y-70642838D01*
X72861561Y-70547600D01*
X73004419Y-70499980D01*
X73099657Y-70499980D01*
X73242514Y-70547600D01*
X73290133Y-70595219D01*
X73766323Y-71499980D02*
X73956800Y-71499980D01*
X74052038Y-71452361D01*
X74099657Y-71404742D01*
X74194895Y-71261885D01*
X74242514Y-71071409D01*
X74242514Y-70690457D01*
X74194895Y-70595219D01*
X74147276Y-70547600D01*
X74052038Y-70499980D01*
X73861561Y-70499980D01*
X73766323Y-70547600D01*
X73718704Y-70595219D01*
X73671085Y-70690457D01*
X73671085Y-70928552D01*
X73718704Y-71023790D01*
X73766323Y-71071409D01*
X73861561Y-71119028D01*
X74052038Y-71119028D01*
X74147276Y-71071409D01*
X74194895Y-71023790D01*
X74242514Y-70928552D01*
%TO.C,R7*%
X111043980Y-60820176D02*
X110567790Y-61153509D01*
X111043980Y-61391604D02*
X110043980Y-61391604D01*
X110043980Y-61010652D01*
X110091600Y-60915414D01*
X110139219Y-60867795D01*
X110234457Y-60820176D01*
X110377314Y-60820176D01*
X110472552Y-60867795D01*
X110520171Y-60915414D01*
X110567790Y-61010652D01*
X110567790Y-61391604D01*
X110043980Y-60486842D02*
X110043980Y-59820176D01*
X111043980Y-60248747D01*
%TO.C,R11*%
X129057542Y-100952380D02*
X128724209Y-100476190D01*
X128486114Y-100952380D02*
X128486114Y-99952380D01*
X128867066Y-99952380D01*
X128962304Y-100000000D01*
X129009923Y-100047619D01*
X129057542Y-100142857D01*
X129057542Y-100285714D01*
X129009923Y-100380952D01*
X128962304Y-100428571D01*
X128867066Y-100476190D01*
X128486114Y-100476190D01*
X130009923Y-100952380D02*
X129438495Y-100952380D01*
X129724209Y-100952380D02*
X129724209Y-99952380D01*
X129628971Y-100095238D01*
X129533733Y-100190476D01*
X129438495Y-100238095D01*
X130962304Y-100952380D02*
X130390876Y-100952380D01*
X130676590Y-100952380D02*
X130676590Y-99952380D01*
X130581352Y-100095238D01*
X130486114Y-100190476D01*
X130390876Y-100238095D01*
%TO.C,U4*%
X124968095Y-114123180D02*
X124968095Y-114932704D01*
X125015714Y-115027942D01*
X125063333Y-115075561D01*
X125158571Y-115123180D01*
X125349047Y-115123180D01*
X125444285Y-115075561D01*
X125491904Y-115027942D01*
X125539523Y-114932704D01*
X125539523Y-114123180D01*
X126444285Y-114456514D02*
X126444285Y-115123180D01*
X126206190Y-114075561D02*
X125968095Y-114789847D01*
X126587142Y-114789847D01*
%TO.C,R18*%
X82618342Y-73481180D02*
X82285009Y-73004990D01*
X82046914Y-73481180D02*
X82046914Y-72481180D01*
X82427866Y-72481180D01*
X82523104Y-72528800D01*
X82570723Y-72576419D01*
X82618342Y-72671657D01*
X82618342Y-72814514D01*
X82570723Y-72909752D01*
X82523104Y-72957371D01*
X82427866Y-73004990D01*
X82046914Y-73004990D01*
X83570723Y-73481180D02*
X82999295Y-73481180D01*
X83285009Y-73481180D02*
X83285009Y-72481180D01*
X83189771Y-72624038D01*
X83094533Y-72719276D01*
X82999295Y-72766895D01*
X84142152Y-72909752D02*
X84046914Y-72862133D01*
X83999295Y-72814514D01*
X83951676Y-72719276D01*
X83951676Y-72671657D01*
X83999295Y-72576419D01*
X84046914Y-72528800D01*
X84142152Y-72481180D01*
X84332628Y-72481180D01*
X84427866Y-72528800D01*
X84475485Y-72576419D01*
X84523104Y-72671657D01*
X84523104Y-72719276D01*
X84475485Y-72814514D01*
X84427866Y-72862133D01*
X84332628Y-72909752D01*
X84142152Y-72909752D01*
X84046914Y-72957371D01*
X83999295Y-73004990D01*
X83951676Y-73100228D01*
X83951676Y-73290704D01*
X83999295Y-73385942D01*
X84046914Y-73433561D01*
X84142152Y-73481180D01*
X84332628Y-73481180D01*
X84427866Y-73433561D01*
X84475485Y-73385942D01*
X84523104Y-73290704D01*
X84523104Y-73100228D01*
X84475485Y-73004990D01*
X84427866Y-72957371D01*
X84332628Y-72909752D01*
%TO.C,U6*%
X124256895Y-135981180D02*
X124256895Y-136790704D01*
X124304514Y-136885942D01*
X124352133Y-136933561D01*
X124447371Y-136981180D01*
X124637847Y-136981180D01*
X124733085Y-136933561D01*
X124780704Y-136885942D01*
X124828323Y-136790704D01*
X124828323Y-135981180D01*
X125733085Y-135981180D02*
X125542609Y-135981180D01*
X125447371Y-136028800D01*
X125399752Y-136076419D01*
X125304514Y-136219276D01*
X125256895Y-136409752D01*
X125256895Y-136790704D01*
X125304514Y-136885942D01*
X125352133Y-136933561D01*
X125447371Y-136981180D01*
X125637847Y-136981180D01*
X125733085Y-136933561D01*
X125780704Y-136885942D01*
X125828323Y-136790704D01*
X125828323Y-136552609D01*
X125780704Y-136457371D01*
X125733085Y-136409752D01*
X125637847Y-136362133D01*
X125447371Y-136362133D01*
X125352133Y-136409752D01*
X125304514Y-136457371D01*
X125256895Y-136552609D01*
%TO.C,Q2*%
X83115161Y-70680819D02*
X83019923Y-70633200D01*
X82924685Y-70537961D01*
X82781828Y-70395104D01*
X82686590Y-70347485D01*
X82591352Y-70347485D01*
X82638971Y-70585580D02*
X82543733Y-70537961D01*
X82448495Y-70442723D01*
X82400876Y-70252247D01*
X82400876Y-69918914D01*
X82448495Y-69728438D01*
X82543733Y-69633200D01*
X82638971Y-69585580D01*
X82829447Y-69585580D01*
X82924685Y-69633200D01*
X83019923Y-69728438D01*
X83067542Y-69918914D01*
X83067542Y-70252247D01*
X83019923Y-70442723D01*
X82924685Y-70537961D01*
X82829447Y-70585580D01*
X82638971Y-70585580D01*
X83448495Y-69680819D02*
X83496114Y-69633200D01*
X83591352Y-69585580D01*
X83829447Y-69585580D01*
X83924685Y-69633200D01*
X83972304Y-69680819D01*
X84019923Y-69776057D01*
X84019923Y-69871295D01*
X83972304Y-70014152D01*
X83400876Y-70585580D01*
X84019923Y-70585580D01*
%TO.C,SW6*%
X76136666Y-104154761D02*
X76279523Y-104202380D01*
X76517619Y-104202380D01*
X76612857Y-104154761D01*
X76660476Y-104107142D01*
X76708095Y-104011904D01*
X76708095Y-103916666D01*
X76660476Y-103821428D01*
X76612857Y-103773809D01*
X76517619Y-103726190D01*
X76327142Y-103678571D01*
X76231904Y-103630952D01*
X76184285Y-103583333D01*
X76136666Y-103488095D01*
X76136666Y-103392857D01*
X76184285Y-103297619D01*
X76231904Y-103250000D01*
X76327142Y-103202380D01*
X76565238Y-103202380D01*
X76708095Y-103250000D01*
X77041428Y-103202380D02*
X77279523Y-104202380D01*
X77470000Y-103488095D01*
X77660476Y-104202380D01*
X77898571Y-103202380D01*
X78708095Y-103202380D02*
X78517619Y-103202380D01*
X78422380Y-103250000D01*
X78374761Y-103297619D01*
X78279523Y-103440476D01*
X78231904Y-103630952D01*
X78231904Y-104011904D01*
X78279523Y-104107142D01*
X78327142Y-104154761D01*
X78422380Y-104202380D01*
X78612857Y-104202380D01*
X78708095Y-104154761D01*
X78755714Y-104107142D01*
X78803333Y-104011904D01*
X78803333Y-103773809D01*
X78755714Y-103678571D01*
X78708095Y-103630952D01*
X78612857Y-103583333D01*
X78422380Y-103583333D01*
X78327142Y-103630952D01*
X78279523Y-103678571D01*
X78231904Y-103773809D01*
X72293314Y-106637771D02*
X72436171Y-106685390D01*
X72483790Y-106733009D01*
X72531409Y-106828247D01*
X72531409Y-106971104D01*
X72483790Y-107066342D01*
X72436171Y-107113961D01*
X72340933Y-107161580D01*
X71959980Y-107161580D01*
X71959980Y-106161580D01*
X72293314Y-106161580D01*
X72388552Y-106209200D01*
X72436171Y-106256819D01*
X72483790Y-106352057D01*
X72483790Y-106447295D01*
X72436171Y-106542533D01*
X72388552Y-106590152D01*
X72293314Y-106637771D01*
X71959980Y-106637771D01*
X72959980Y-107161580D02*
X72959980Y-106161580D01*
X73531409Y-107161580D02*
X73102838Y-106590152D01*
X73531409Y-106161580D02*
X72959980Y-106733009D01*
X74436171Y-107161580D02*
X73959980Y-107161580D01*
X73959980Y-106161580D01*
X74626647Y-106161580D02*
X75198076Y-106161580D01*
X74912361Y-107161580D02*
X74912361Y-106161580D01*
%TO.C,R9*%
X93641599Y-100952380D02*
X93308266Y-100476190D01*
X93070170Y-100952380D02*
X93070170Y-99952380D01*
X93451123Y-99952380D01*
X93546361Y-100000000D01*
X93593980Y-100047619D01*
X93641599Y-100142857D01*
X93641599Y-100285714D01*
X93593980Y-100380952D01*
X93546361Y-100428571D01*
X93451123Y-100476190D01*
X93070170Y-100476190D01*
X94117789Y-100952380D02*
X94308266Y-100952380D01*
X94403504Y-100904761D01*
X94451123Y-100857142D01*
X94546361Y-100714285D01*
X94593980Y-100523809D01*
X94593980Y-100142857D01*
X94546361Y-100047619D01*
X94498742Y-100000000D01*
X94403504Y-99952380D01*
X94213027Y-99952380D01*
X94117789Y-100000000D01*
X94070170Y-100047619D01*
X94022551Y-100142857D01*
X94022551Y-100380952D01*
X94070170Y-100476190D01*
X94117789Y-100523809D01*
X94213027Y-100571428D01*
X94403504Y-100571428D01*
X94498742Y-100523809D01*
X94546361Y-100476190D01*
X94593980Y-100380952D01*
%TO.C,Q3*%
X67857619Y-70228438D02*
X67810000Y-70323676D01*
X67714761Y-70418914D01*
X67571904Y-70561771D01*
X67524285Y-70657009D01*
X67524285Y-70752247D01*
X67762380Y-70704628D02*
X67714761Y-70799866D01*
X67619523Y-70895104D01*
X67429047Y-70942723D01*
X67095714Y-70942723D01*
X66905238Y-70895104D01*
X66810000Y-70799866D01*
X66762380Y-70704628D01*
X66762380Y-70514152D01*
X66810000Y-70418914D01*
X66905238Y-70323676D01*
X67095714Y-70276057D01*
X67429047Y-70276057D01*
X67619523Y-70323676D01*
X67714761Y-70418914D01*
X67762380Y-70514152D01*
X67762380Y-70704628D01*
X66762380Y-69942723D02*
X66762380Y-69323676D01*
X67143333Y-69657009D01*
X67143333Y-69514152D01*
X67190952Y-69418914D01*
X67238571Y-69371295D01*
X67333809Y-69323676D01*
X67571904Y-69323676D01*
X67667142Y-69371295D01*
X67714761Y-69418914D01*
X67762380Y-69514152D01*
X67762380Y-69799866D01*
X67714761Y-69895104D01*
X67667142Y-69942723D01*
%TO.C,C7*%
X67397333Y-61797142D02*
X67349714Y-61844761D01*
X67206857Y-61892380D01*
X67111619Y-61892380D01*
X66968761Y-61844761D01*
X66873523Y-61749523D01*
X66825904Y-61654285D01*
X66778285Y-61463809D01*
X66778285Y-61320952D01*
X66825904Y-61130476D01*
X66873523Y-61035238D01*
X66968761Y-60940000D01*
X67111619Y-60892380D01*
X67206857Y-60892380D01*
X67349714Y-60940000D01*
X67397333Y-60987619D01*
X67730666Y-60892380D02*
X68397333Y-60892380D01*
X67968761Y-61892380D01*
%TO.C,JP1*%
X114281066Y-64857480D02*
X114281066Y-65571766D01*
X114233447Y-65714623D01*
X114138209Y-65809861D01*
X113995352Y-65857480D01*
X113900114Y-65857480D01*
X114757257Y-65857480D02*
X114757257Y-64857480D01*
X115138209Y-64857480D01*
X115233447Y-64905100D01*
X115281066Y-64952719D01*
X115328685Y-65047957D01*
X115328685Y-65190814D01*
X115281066Y-65286052D01*
X115233447Y-65333671D01*
X115138209Y-65381290D01*
X114757257Y-65381290D01*
X116281066Y-65857480D02*
X115709638Y-65857480D01*
X115995352Y-65857480D02*
X115995352Y-64857480D01*
X115900114Y-65000338D01*
X115804876Y-65095576D01*
X115709638Y-65143195D01*
%TO.C,SW5*%
X128968666Y-94159961D02*
X129111523Y-94207580D01*
X129349619Y-94207580D01*
X129444857Y-94159961D01*
X129492476Y-94112342D01*
X129540095Y-94017104D01*
X129540095Y-93921866D01*
X129492476Y-93826628D01*
X129444857Y-93779009D01*
X129349619Y-93731390D01*
X129159142Y-93683771D01*
X129063904Y-93636152D01*
X129016285Y-93588533D01*
X128968666Y-93493295D01*
X128968666Y-93398057D01*
X129016285Y-93302819D01*
X129063904Y-93255200D01*
X129159142Y-93207580D01*
X129397238Y-93207580D01*
X129540095Y-93255200D01*
X129873428Y-93207580D02*
X130111523Y-94207580D01*
X130302000Y-93493295D01*
X130492476Y-94207580D01*
X130730571Y-93207580D01*
X131587714Y-93207580D02*
X131111523Y-93207580D01*
X131063904Y-93683771D01*
X131111523Y-93636152D01*
X131206761Y-93588533D01*
X131444857Y-93588533D01*
X131540095Y-93636152D01*
X131587714Y-93683771D01*
X131635333Y-93779009D01*
X131635333Y-94017104D01*
X131587714Y-94112342D01*
X131540095Y-94159961D01*
X131444857Y-94207580D01*
X131206761Y-94207580D01*
X131111523Y-94159961D01*
X131063904Y-94112342D01*
X124777714Y-97204780D02*
X124777714Y-96204780D01*
X124777714Y-96680971D02*
X125349142Y-96680971D01*
X125349142Y-97204780D02*
X125349142Y-96204780D01*
X126015809Y-96204780D02*
X126206285Y-96204780D01*
X126301523Y-96252400D01*
X126396761Y-96347638D01*
X126444380Y-96538114D01*
X126444380Y-96871447D01*
X126396761Y-97061923D01*
X126301523Y-97157161D01*
X126206285Y-97204780D01*
X126015809Y-97204780D01*
X125920571Y-97157161D01*
X125825333Y-97061923D01*
X125777714Y-96871447D01*
X125777714Y-96538114D01*
X125825333Y-96347638D01*
X125920571Y-96252400D01*
X126015809Y-96204780D01*
X127349142Y-97204780D02*
X126872952Y-97204780D01*
X126872952Y-96204780D01*
X127682476Y-97204780D02*
X127682476Y-96204780D01*
X127920571Y-96204780D01*
X128063428Y-96252400D01*
X128158666Y-96347638D01*
X128206285Y-96442876D01*
X128253904Y-96633352D01*
X128253904Y-96776209D01*
X128206285Y-96966685D01*
X128158666Y-97061923D01*
X128063428Y-97157161D01*
X127920571Y-97204780D01*
X127682476Y-97204780D01*
%TO.C,BT1*%
X67669108Y-122679076D02*
X67803795Y-122611732D01*
X67871138Y-122611732D01*
X67972154Y-122645404D01*
X68073169Y-122746419D01*
X68106841Y-122847435D01*
X68106841Y-122914778D01*
X68073169Y-123015793D01*
X67803795Y-123285167D01*
X67096688Y-122578061D01*
X67332390Y-122342358D01*
X67433406Y-122308687D01*
X67500749Y-122308687D01*
X67601764Y-122342358D01*
X67669108Y-122409702D01*
X67702780Y-122510717D01*
X67702780Y-122578061D01*
X67669108Y-122679076D01*
X67433406Y-122914778D01*
X67702780Y-121971969D02*
X68106841Y-121567908D01*
X68611917Y-122477045D02*
X67904810Y-121769938D01*
X69420039Y-121668923D02*
X69015978Y-122072984D01*
X69218009Y-121870954D02*
X68510902Y-121163847D01*
X68544574Y-121332206D01*
X68544574Y-121466893D01*
X68510902Y-121567908D01*
D13*
X69909864Y-128790345D02*
X70717986Y-127982223D01*
X70717986Y-128790345D02*
X69909864Y-127982223D01*
D10*
%TO.C,D4*%
X63986504Y-62580780D02*
X63986504Y-61580780D01*
X64224600Y-61580780D01*
X64367457Y-61628400D01*
X64462695Y-61723638D01*
X64510314Y-61818876D01*
X64557933Y-62009352D01*
X64557933Y-62152209D01*
X64510314Y-62342685D01*
X64462695Y-62437923D01*
X64367457Y-62533161D01*
X64224600Y-62580780D01*
X63986504Y-62580780D01*
X65415076Y-61914114D02*
X65415076Y-62580780D01*
X65176980Y-61533161D02*
X64938885Y-62247447D01*
X65557933Y-62247447D01*
%TO.C,J2*%
X84299466Y-163960180D02*
X84299466Y-164674466D01*
X84251847Y-164817323D01*
X84156609Y-164912561D01*
X84013752Y-164960180D01*
X83918514Y-164960180D01*
X84728038Y-164055419D02*
X84775657Y-164007800D01*
X84870895Y-163960180D01*
X85108990Y-163960180D01*
X85204228Y-164007800D01*
X85251847Y-164055419D01*
X85299466Y-164150657D01*
X85299466Y-164245895D01*
X85251847Y-164388752D01*
X84680419Y-164960180D01*
X85299466Y-164960180D01*
%TO.C,C5*%
X107189542Y-60820176D02*
X107237161Y-60867795D01*
X107284780Y-61010652D01*
X107284780Y-61105890D01*
X107237161Y-61248747D01*
X107141923Y-61343985D01*
X107046685Y-61391604D01*
X106856209Y-61439223D01*
X106713352Y-61439223D01*
X106522876Y-61391604D01*
X106427638Y-61343985D01*
X106332400Y-61248747D01*
X106284780Y-61105890D01*
X106284780Y-61010652D01*
X106332400Y-60867795D01*
X106380019Y-60820176D01*
X106284780Y-59915414D02*
X106284780Y-60391604D01*
X106760971Y-60439223D01*
X106713352Y-60391604D01*
X106665733Y-60296366D01*
X106665733Y-60058271D01*
X106713352Y-59963033D01*
X106760971Y-59915414D01*
X106856209Y-59867795D01*
X107094304Y-59867795D01*
X107189542Y-59915414D01*
X107237161Y-59963033D01*
X107284780Y-60058271D01*
X107284780Y-60296366D01*
X107237161Y-60391604D01*
X107189542Y-60439223D01*
%TO.C,RV1*%
X67412184Y-115599578D02*
X66839764Y-115498563D01*
X67008123Y-116003639D02*
X66301016Y-115296532D01*
X66570390Y-115027158D01*
X66671406Y-114993487D01*
X66738749Y-114993487D01*
X66839764Y-115027158D01*
X66940780Y-115128174D01*
X66974451Y-115229189D01*
X66974451Y-115296532D01*
X66940780Y-115397548D01*
X66671406Y-115666922D01*
X66907108Y-114690441D02*
X67849917Y-115161845D01*
X67378512Y-114219036D01*
X68691711Y-114320051D02*
X68287650Y-114724112D01*
X68489680Y-114522082D02*
X67782574Y-113814975D01*
X67816245Y-113983334D01*
X67816245Y-114118021D01*
X67782574Y-114219036D01*
%TO.C,U5*%
X121869295Y-151039580D02*
X121869295Y-151849104D01*
X121916914Y-151944342D01*
X121964533Y-151991961D01*
X122059771Y-152039580D01*
X122250247Y-152039580D01*
X122345485Y-151991961D01*
X122393104Y-151944342D01*
X122440723Y-151849104D01*
X122440723Y-151039580D01*
X123393104Y-151039580D02*
X122916914Y-151039580D01*
X122869295Y-151515771D01*
X122916914Y-151468152D01*
X123012152Y-151420533D01*
X123250247Y-151420533D01*
X123345485Y-151468152D01*
X123393104Y-151515771D01*
X123440723Y-151611009D01*
X123440723Y-151849104D01*
X123393104Y-151944342D01*
X123345485Y-151991961D01*
X123250247Y-152039580D01*
X123012152Y-152039580D01*
X122916914Y-151991961D01*
X122869295Y-151944342D01*
%TO.C,SW2*%
X76085866Y-94154761D02*
X76228723Y-94202380D01*
X76466819Y-94202380D01*
X76562057Y-94154761D01*
X76609676Y-94107142D01*
X76657295Y-94011904D01*
X76657295Y-93916666D01*
X76609676Y-93821428D01*
X76562057Y-93773809D01*
X76466819Y-93726190D01*
X76276342Y-93678571D01*
X76181104Y-93630952D01*
X76133485Y-93583333D01*
X76085866Y-93488095D01*
X76085866Y-93392857D01*
X76133485Y-93297619D01*
X76181104Y-93250000D01*
X76276342Y-93202380D01*
X76514438Y-93202380D01*
X76657295Y-93250000D01*
X76990628Y-93202380D02*
X77228723Y-94202380D01*
X77419200Y-93488095D01*
X77609676Y-94202380D01*
X77847771Y-93202380D01*
X78181104Y-93297619D02*
X78228723Y-93250000D01*
X78323961Y-93202380D01*
X78562057Y-93202380D01*
X78657295Y-93250000D01*
X78704914Y-93297619D01*
X78752533Y-93392857D01*
X78752533Y-93488095D01*
X78704914Y-93630952D01*
X78133485Y-94202380D01*
X78752533Y-94202380D01*
X71650457Y-97157161D02*
X71793314Y-97204780D01*
X72031409Y-97204780D01*
X72126647Y-97157161D01*
X72174266Y-97109542D01*
X72221885Y-97014304D01*
X72221885Y-96919066D01*
X72174266Y-96823828D01*
X72126647Y-96776209D01*
X72031409Y-96728590D01*
X71840933Y-96680971D01*
X71745695Y-96633352D01*
X71698076Y-96585733D01*
X71650457Y-96490495D01*
X71650457Y-96395257D01*
X71698076Y-96300019D01*
X71745695Y-96252400D01*
X71840933Y-96204780D01*
X72079028Y-96204780D01*
X72221885Y-96252400D01*
X72650457Y-97204780D02*
X72650457Y-96204780D01*
X72650457Y-96680971D02*
X73221885Y-96680971D01*
X73221885Y-97204780D02*
X73221885Y-96204780D01*
X73698076Y-97204780D02*
X73698076Y-96204780D01*
X74507600Y-96680971D02*
X74174266Y-96680971D01*
X74174266Y-97204780D02*
X74174266Y-96204780D01*
X74650457Y-96204780D01*
X74888552Y-96204780D02*
X75459980Y-96204780D01*
X75174266Y-97204780D02*
X75174266Y-96204780D01*
%TO.C,C12*%
X117197142Y-124776457D02*
X117244761Y-124824076D01*
X117292380Y-124966933D01*
X117292380Y-125062171D01*
X117244761Y-125205028D01*
X117149523Y-125300266D01*
X117054285Y-125347885D01*
X116863809Y-125395504D01*
X116720952Y-125395504D01*
X116530476Y-125347885D01*
X116435238Y-125300266D01*
X116340000Y-125205028D01*
X116292380Y-125062171D01*
X116292380Y-124966933D01*
X116340000Y-124824076D01*
X116387619Y-124776457D01*
X117292380Y-123824076D02*
X117292380Y-124395504D01*
X117292380Y-124109790D02*
X116292380Y-124109790D01*
X116435238Y-124205028D01*
X116530476Y-124300266D01*
X116578095Y-124395504D01*
X116387619Y-123443123D02*
X116340000Y-123395504D01*
X116292380Y-123300266D01*
X116292380Y-123062171D01*
X116340000Y-122966933D01*
X116387619Y-122919314D01*
X116482857Y-122871695D01*
X116578095Y-122871695D01*
X116720952Y-122919314D01*
X117292380Y-123490742D01*
X117292380Y-122871695D01*
%TO.C,D2*%
X131873809Y-127658761D02*
X132016666Y-127706380D01*
X132254761Y-127706380D01*
X132350000Y-127658761D01*
X132397619Y-127611142D01*
X132445238Y-127515904D01*
X132445238Y-127420666D01*
X132397619Y-127325428D01*
X132350000Y-127277809D01*
X132254761Y-127230190D01*
X132064285Y-127182571D01*
X131969047Y-127134952D01*
X131921428Y-127087333D01*
X131873809Y-126992095D01*
X131873809Y-126896857D01*
X131921428Y-126801619D01*
X131969047Y-126754000D01*
X132064285Y-126706380D01*
X132302380Y-126706380D01*
X132445238Y-126754000D01*
X132730952Y-126706380D02*
X133302380Y-126706380D01*
X133016666Y-127706380D02*
X133016666Y-126706380D01*
X133588095Y-127420666D02*
X134064285Y-127420666D01*
X133492857Y-127706380D02*
X133826190Y-126706380D01*
X134159523Y-127706380D01*
X134350000Y-126706380D02*
X134921428Y-126706380D01*
X134635714Y-127706380D02*
X134635714Y-126706380D01*
%TO.C,J1*%
X77746266Y-155103580D02*
X77746266Y-155817866D01*
X77698647Y-155960723D01*
X77603409Y-156055961D01*
X77460552Y-156103580D01*
X77365314Y-156103580D01*
X78746266Y-156103580D02*
X78174838Y-156103580D01*
X78460552Y-156103580D02*
X78460552Y-155103580D01*
X78365314Y-155246438D01*
X78270076Y-155341676D01*
X78174838Y-155389295D01*
%TO.C,C3*%
X66932133Y-143337542D02*
X66884514Y-143385161D01*
X66741657Y-143432780D01*
X66646419Y-143432780D01*
X66503561Y-143385161D01*
X66408323Y-143289923D01*
X66360704Y-143194685D01*
X66313085Y-143004209D01*
X66313085Y-142861352D01*
X66360704Y-142670876D01*
X66408323Y-142575638D01*
X66503561Y-142480400D01*
X66646419Y-142432780D01*
X66741657Y-142432780D01*
X66884514Y-142480400D01*
X66932133Y-142528019D01*
X67265466Y-142432780D02*
X67884514Y-142432780D01*
X67551180Y-142813733D01*
X67694038Y-142813733D01*
X67789276Y-142861352D01*
X67836895Y-142908971D01*
X67884514Y-143004209D01*
X67884514Y-143242304D01*
X67836895Y-143337542D01*
X67789276Y-143385161D01*
X67694038Y-143432780D01*
X67408323Y-143432780D01*
X67313085Y-143385161D01*
X67265466Y-143337542D01*
%TO.C,R8*%
X109164380Y-60820176D02*
X108688190Y-61153509D01*
X109164380Y-61391604D02*
X108164380Y-61391604D01*
X108164380Y-61010652D01*
X108212000Y-60915414D01*
X108259619Y-60867795D01*
X108354857Y-60820176D01*
X108497714Y-60820176D01*
X108592952Y-60867795D01*
X108640571Y-60915414D01*
X108688190Y-61010652D01*
X108688190Y-61391604D01*
X108592952Y-60248747D02*
X108545333Y-60343985D01*
X108497714Y-60391604D01*
X108402476Y-60439223D01*
X108354857Y-60439223D01*
X108259619Y-60391604D01*
X108212000Y-60343985D01*
X108164380Y-60248747D01*
X108164380Y-60058271D01*
X108212000Y-59963033D01*
X108259619Y-59915414D01*
X108354857Y-59867795D01*
X108402476Y-59867795D01*
X108497714Y-59915414D01*
X108545333Y-59963033D01*
X108592952Y-60058271D01*
X108592952Y-60248747D01*
X108640571Y-60343985D01*
X108688190Y-60391604D01*
X108783428Y-60439223D01*
X108973904Y-60439223D01*
X109069142Y-60391604D01*
X109116761Y-60343985D01*
X109164380Y-60248747D01*
X109164380Y-60058271D01*
X109116761Y-59963033D01*
X109069142Y-59915414D01*
X108973904Y-59867795D01*
X108783428Y-59867795D01*
X108688190Y-59915414D01*
X108640571Y-59963033D01*
X108592952Y-60058271D01*
%TO.C,SW3*%
X93662666Y-94159961D02*
X93805523Y-94207580D01*
X94043619Y-94207580D01*
X94138857Y-94159961D01*
X94186476Y-94112342D01*
X94234095Y-94017104D01*
X94234095Y-93921866D01*
X94186476Y-93826628D01*
X94138857Y-93779009D01*
X94043619Y-93731390D01*
X93853142Y-93683771D01*
X93757904Y-93636152D01*
X93710285Y-93588533D01*
X93662666Y-93493295D01*
X93662666Y-93398057D01*
X93710285Y-93302819D01*
X93757904Y-93255200D01*
X93853142Y-93207580D01*
X94091238Y-93207580D01*
X94234095Y-93255200D01*
X94567428Y-93207580D02*
X94805523Y-94207580D01*
X94996000Y-93493295D01*
X95186476Y-94207580D01*
X95424571Y-93207580D01*
X95710285Y-93207580D02*
X96329333Y-93207580D01*
X95996000Y-93588533D01*
X96138857Y-93588533D01*
X96234095Y-93636152D01*
X96281714Y-93683771D01*
X96329333Y-93779009D01*
X96329333Y-94017104D01*
X96281714Y-94112342D01*
X96234095Y-94159961D01*
X96138857Y-94207580D01*
X95853142Y-94207580D01*
X95757904Y-94159961D01*
X95710285Y-94112342D01*
X89023808Y-97204780D02*
X89023808Y-96204780D01*
X89357142Y-96919066D01*
X89690475Y-96204780D01*
X89690475Y-97204780D01*
X90166666Y-97204780D02*
X90166666Y-96204780D01*
X90642856Y-97204780D02*
X90642856Y-96204780D01*
X91214285Y-97204780D01*
X91214285Y-96204780D01*
X91690475Y-97204780D02*
X91690475Y-96204780D01*
X92023808Y-96919066D01*
X92357142Y-96204780D01*
X92357142Y-97204780D01*
X92738094Y-96204780D02*
X93404761Y-97204780D01*
X93404761Y-96204780D02*
X92738094Y-97204780D01*
%TO.C,U2*%
X98196495Y-56043580D02*
X98196495Y-56853104D01*
X98244114Y-56948342D01*
X98291733Y-56995961D01*
X98386971Y-57043580D01*
X98577447Y-57043580D01*
X98672685Y-56995961D01*
X98720304Y-56948342D01*
X98767923Y-56853104D01*
X98767923Y-56043580D01*
X99196495Y-56138819D02*
X99244114Y-56091200D01*
X99339352Y-56043580D01*
X99577447Y-56043580D01*
X99672685Y-56091200D01*
X99720304Y-56138819D01*
X99767923Y-56234057D01*
X99767923Y-56329295D01*
X99720304Y-56472152D01*
X99148876Y-57043580D01*
X99767923Y-57043580D01*
%TO.C,R10*%
X111289274Y-100952380D02*
X110955941Y-100476190D01*
X110717846Y-100952380D02*
X110717846Y-99952380D01*
X111098798Y-99952380D01*
X111194036Y-100000000D01*
X111241655Y-100047619D01*
X111289274Y-100142857D01*
X111289274Y-100285714D01*
X111241655Y-100380952D01*
X111194036Y-100428571D01*
X111098798Y-100476190D01*
X110717846Y-100476190D01*
X112241655Y-100952380D02*
X111670227Y-100952380D01*
X111955941Y-100952380D02*
X111955941Y-99952380D01*
X111860703Y-100095238D01*
X111765465Y-100190476D01*
X111670227Y-100238095D01*
X112860703Y-99952380D02*
X112955941Y-99952380D01*
X113051179Y-100000000D01*
X113098798Y-100047619D01*
X113146417Y-100142857D01*
X113194036Y-100333333D01*
X113194036Y-100571428D01*
X113146417Y-100761904D01*
X113098798Y-100857142D01*
X113051179Y-100904761D01*
X112955941Y-100952380D01*
X112860703Y-100952380D01*
X112765465Y-100904761D01*
X112717846Y-100857142D01*
X112670227Y-100761904D01*
X112622608Y-100571428D01*
X112622608Y-100333333D01*
X112670227Y-100142857D01*
X112717846Y-100047619D01*
X112765465Y-100000000D01*
X112860703Y-99952380D01*
%TO.C,C10*%
X119330742Y-124645657D02*
X119378361Y-124693276D01*
X119425980Y-124836133D01*
X119425980Y-124931371D01*
X119378361Y-125074228D01*
X119283123Y-125169466D01*
X119187885Y-125217085D01*
X118997409Y-125264704D01*
X118854552Y-125264704D01*
X118664076Y-125217085D01*
X118568838Y-125169466D01*
X118473600Y-125074228D01*
X118425980Y-124931371D01*
X118425980Y-124836133D01*
X118473600Y-124693276D01*
X118521219Y-124645657D01*
X119425980Y-123693276D02*
X119425980Y-124264704D01*
X119425980Y-123978990D02*
X118425980Y-123978990D01*
X118568838Y-124074228D01*
X118664076Y-124169466D01*
X118711695Y-124264704D01*
X118425980Y-123074228D02*
X118425980Y-122978990D01*
X118473600Y-122883752D01*
X118521219Y-122836133D01*
X118616457Y-122788514D01*
X118806933Y-122740895D01*
X119045028Y-122740895D01*
X119235504Y-122788514D01*
X119330742Y-122836133D01*
X119378361Y-122883752D01*
X119425980Y-122978990D01*
X119425980Y-123074228D01*
X119378361Y-123169466D01*
X119330742Y-123217085D01*
X119235504Y-123264704D01*
X119045028Y-123312323D01*
X118806933Y-123312323D01*
X118616457Y-123264704D01*
X118521219Y-123217085D01*
X118473600Y-123169466D01*
X118425980Y-123074228D01*
%TO.C,R13*%
X69461142Y-64178380D02*
X69127809Y-63702190D01*
X68889714Y-64178380D02*
X68889714Y-63178380D01*
X69270666Y-63178380D01*
X69365904Y-63226000D01*
X69413523Y-63273619D01*
X69461142Y-63368857D01*
X69461142Y-63511714D01*
X69413523Y-63606952D01*
X69365904Y-63654571D01*
X69270666Y-63702190D01*
X68889714Y-63702190D01*
X70413523Y-64178380D02*
X69842095Y-64178380D01*
X70127809Y-64178380D02*
X70127809Y-63178380D01*
X70032571Y-63321238D01*
X69937333Y-63416476D01*
X69842095Y-63464095D01*
X70746857Y-63178380D02*
X71365904Y-63178380D01*
X71032571Y-63559333D01*
X71175428Y-63559333D01*
X71270666Y-63606952D01*
X71318285Y-63654571D01*
X71365904Y-63749809D01*
X71365904Y-63987904D01*
X71318285Y-64083142D01*
X71270666Y-64130761D01*
X71175428Y-64178380D01*
X70889714Y-64178380D01*
X70794476Y-64130761D01*
X70746857Y-64083142D01*
%TO.C,R15*%
X119803942Y-132786380D02*
X119470609Y-132310190D01*
X119232514Y-132786380D02*
X119232514Y-131786380D01*
X119613466Y-131786380D01*
X119708704Y-131834000D01*
X119756323Y-131881619D01*
X119803942Y-131976857D01*
X119803942Y-132119714D01*
X119756323Y-132214952D01*
X119708704Y-132262571D01*
X119613466Y-132310190D01*
X119232514Y-132310190D01*
X120756323Y-132786380D02*
X120184895Y-132786380D01*
X120470609Y-132786380D02*
X120470609Y-131786380D01*
X120375371Y-131929238D01*
X120280133Y-132024476D01*
X120184895Y-132072095D01*
X121661085Y-131786380D02*
X121184895Y-131786380D01*
X121137276Y-132262571D01*
X121184895Y-132214952D01*
X121280133Y-132167333D01*
X121518228Y-132167333D01*
X121613466Y-132214952D01*
X121661085Y-132262571D01*
X121708704Y-132357809D01*
X121708704Y-132595904D01*
X121661085Y-132691142D01*
X121613466Y-132738761D01*
X121518228Y-132786380D01*
X121280133Y-132786380D01*
X121184895Y-132738761D01*
X121137276Y-132691142D01*
%TO.C,R5*%
X128974933Y-90960380D02*
X128641600Y-90484190D01*
X128403504Y-90960380D02*
X128403504Y-89960380D01*
X128784457Y-89960380D01*
X128879695Y-90008000D01*
X128927314Y-90055619D01*
X128974933Y-90150857D01*
X128974933Y-90293714D01*
X128927314Y-90388952D01*
X128879695Y-90436571D01*
X128784457Y-90484190D01*
X128403504Y-90484190D01*
X129879695Y-89960380D02*
X129403504Y-89960380D01*
X129355885Y-90436571D01*
X129403504Y-90388952D01*
X129498742Y-90341333D01*
X129736838Y-90341333D01*
X129832076Y-90388952D01*
X129879695Y-90436571D01*
X129927314Y-90531809D01*
X129927314Y-90769904D01*
X129879695Y-90865142D01*
X129832076Y-90912761D01*
X129736838Y-90960380D01*
X129498742Y-90960380D01*
X129403504Y-90912761D01*
X129355885Y-90865142D01*
%TO.C,SW7*%
X93662666Y-104154761D02*
X93805523Y-104202380D01*
X94043619Y-104202380D01*
X94138857Y-104154761D01*
X94186476Y-104107142D01*
X94234095Y-104011904D01*
X94234095Y-103916666D01*
X94186476Y-103821428D01*
X94138857Y-103773809D01*
X94043619Y-103726190D01*
X93853142Y-103678571D01*
X93757904Y-103630952D01*
X93710285Y-103583333D01*
X93662666Y-103488095D01*
X93662666Y-103392857D01*
X93710285Y-103297619D01*
X93757904Y-103250000D01*
X93853142Y-103202380D01*
X94091238Y-103202380D01*
X94234095Y-103250000D01*
X94567428Y-103202380D02*
X94805523Y-104202380D01*
X94996000Y-103488095D01*
X95186476Y-104202380D01*
X95424571Y-103202380D01*
X95710285Y-103202380D02*
X96376952Y-103202380D01*
X95948380Y-104202380D01*
X89833332Y-106637771D02*
X89976189Y-106685390D01*
X90023808Y-106733009D01*
X90071427Y-106828247D01*
X90071427Y-106971104D01*
X90023808Y-107066342D01*
X89976189Y-107113961D01*
X89880951Y-107161580D01*
X89499999Y-107161580D01*
X89499999Y-106161580D01*
X89833332Y-106161580D01*
X89928570Y-106209200D01*
X89976189Y-106256819D01*
X90023808Y-106352057D01*
X90023808Y-106447295D01*
X89976189Y-106542533D01*
X89928570Y-106590152D01*
X89833332Y-106637771D01*
X89499999Y-106637771D01*
X90499999Y-106637771D02*
X90833332Y-106637771D01*
X90976189Y-107161580D02*
X90499999Y-107161580D01*
X90499999Y-106161580D01*
X90976189Y-106161580D01*
X91404761Y-106637771D02*
X91738094Y-106637771D01*
X91880951Y-107161580D02*
X91404761Y-107161580D01*
X91404761Y-106161580D01*
X91880951Y-106161580D01*
X92309523Y-107161580D02*
X92309523Y-106161580D01*
X92690475Y-106161580D01*
X92785713Y-106209200D01*
X92833332Y-106256819D01*
X92880951Y-106352057D01*
X92880951Y-106494914D01*
X92833332Y-106590152D01*
X92785713Y-106637771D01*
X92690475Y-106685390D01*
X92309523Y-106685390D01*
%TO.C,R14*%
X126505542Y-131240780D02*
X126172209Y-130764590D01*
X125934114Y-131240780D02*
X125934114Y-130240780D01*
X126315066Y-130240780D01*
X126410304Y-130288400D01*
X126457923Y-130336019D01*
X126505542Y-130431257D01*
X126505542Y-130574114D01*
X126457923Y-130669352D01*
X126410304Y-130716971D01*
X126315066Y-130764590D01*
X125934114Y-130764590D01*
X127457923Y-131240780D02*
X126886495Y-131240780D01*
X127172209Y-131240780D02*
X127172209Y-130240780D01*
X127076971Y-130383638D01*
X126981733Y-130478876D01*
X126886495Y-130526495D01*
X128315066Y-130574114D02*
X128315066Y-131240780D01*
X128076971Y-130193161D02*
X127838876Y-130907447D01*
X128457923Y-130907447D01*
%TO.C,R19*%
X121785142Y-111530380D02*
X121451809Y-111054190D01*
X121213714Y-111530380D02*
X121213714Y-110530380D01*
X121594666Y-110530380D01*
X121689904Y-110578000D01*
X121737523Y-110625619D01*
X121785142Y-110720857D01*
X121785142Y-110863714D01*
X121737523Y-110958952D01*
X121689904Y-111006571D01*
X121594666Y-111054190D01*
X121213714Y-111054190D01*
X122737523Y-111530380D02*
X122166095Y-111530380D01*
X122451809Y-111530380D02*
X122451809Y-110530380D01*
X122356571Y-110673238D01*
X122261333Y-110768476D01*
X122166095Y-110816095D01*
X123213714Y-111530380D02*
X123404190Y-111530380D01*
X123499428Y-111482761D01*
X123547047Y-111435142D01*
X123642285Y-111292285D01*
X123689904Y-111101809D01*
X123689904Y-110720857D01*
X123642285Y-110625619D01*
X123594666Y-110578000D01*
X123499428Y-110530380D01*
X123308952Y-110530380D01*
X123213714Y-110578000D01*
X123166095Y-110625619D01*
X123118476Y-110720857D01*
X123118476Y-110958952D01*
X123166095Y-111054190D01*
X123213714Y-111101809D01*
X123308952Y-111149428D01*
X123499428Y-111149428D01*
X123594666Y-111101809D01*
X123642285Y-111054190D01*
X123689904Y-110958952D01*
%TO.C,U1*%
X71467695Y-134558780D02*
X71467695Y-135368304D01*
X71515314Y-135463542D01*
X71562933Y-135511161D01*
X71658171Y-135558780D01*
X71848647Y-135558780D01*
X71943885Y-135511161D01*
X71991504Y-135463542D01*
X72039123Y-135368304D01*
X72039123Y-134558780D01*
X73039123Y-135558780D02*
X72467695Y-135558780D01*
X72753409Y-135558780D02*
X72753409Y-134558780D01*
X72658171Y-134701638D01*
X72562933Y-134796876D01*
X72467695Y-134844495D01*
%TO.C,R6*%
X76127333Y-100952380D02*
X75794000Y-100476190D01*
X75555904Y-100952380D02*
X75555904Y-99952380D01*
X75936857Y-99952380D01*
X76032095Y-100000000D01*
X76079714Y-100047619D01*
X76127333Y-100142857D01*
X76127333Y-100285714D01*
X76079714Y-100380952D01*
X76032095Y-100428571D01*
X75936857Y-100476190D01*
X75555904Y-100476190D01*
X76984476Y-99952380D02*
X76794000Y-99952380D01*
X76698761Y-100000000D01*
X76651142Y-100047619D01*
X76555904Y-100190476D01*
X76508285Y-100380952D01*
X76508285Y-100761904D01*
X76555904Y-100857142D01*
X76603523Y-100904761D01*
X76698761Y-100952380D01*
X76889238Y-100952380D01*
X76984476Y-100904761D01*
X77032095Y-100857142D01*
X77079714Y-100761904D01*
X77079714Y-100523809D01*
X77032095Y-100428571D01*
X76984476Y-100380952D01*
X76889238Y-100333333D01*
X76698761Y-100333333D01*
X76603523Y-100380952D01*
X76555904Y-100428571D01*
X76508285Y-100523809D01*
%TO.C,R16*%
X119803942Y-127858780D02*
X119470609Y-127382590D01*
X119232514Y-127858780D02*
X119232514Y-126858780D01*
X119613466Y-126858780D01*
X119708704Y-126906400D01*
X119756323Y-126954019D01*
X119803942Y-127049257D01*
X119803942Y-127192114D01*
X119756323Y-127287352D01*
X119708704Y-127334971D01*
X119613466Y-127382590D01*
X119232514Y-127382590D01*
X120756323Y-127858780D02*
X120184895Y-127858780D01*
X120470609Y-127858780D02*
X120470609Y-126858780D01*
X120375371Y-127001638D01*
X120280133Y-127096876D01*
X120184895Y-127144495D01*
X121613466Y-126858780D02*
X121422990Y-126858780D01*
X121327752Y-126906400D01*
X121280133Y-126954019D01*
X121184895Y-127096876D01*
X121137276Y-127287352D01*
X121137276Y-127668304D01*
X121184895Y-127763542D01*
X121232514Y-127811161D01*
X121327752Y-127858780D01*
X121518228Y-127858780D01*
X121613466Y-127811161D01*
X121661085Y-127763542D01*
X121708704Y-127668304D01*
X121708704Y-127430209D01*
X121661085Y-127334971D01*
X121613466Y-127287352D01*
X121518228Y-127239733D01*
X121327752Y-127239733D01*
X121232514Y-127287352D01*
X121184895Y-127334971D01*
X121137276Y-127430209D01*
%TO.C,Y1*%
X132757009Y-115461390D02*
X132757009Y-115937580D01*
X132423676Y-114937580D02*
X132757009Y-115461390D01*
X133090342Y-114937580D01*
X133947485Y-115937580D02*
X133376057Y-115937580D01*
X133661771Y-115937580D02*
X133661771Y-114937580D01*
X133566533Y-115080438D01*
X133471295Y-115175676D01*
X133376057Y-115223295D01*
%TO.C,C11*%
X129709942Y-149912342D02*
X129662323Y-149959961D01*
X129519466Y-150007580D01*
X129424228Y-150007580D01*
X129281371Y-149959961D01*
X129186133Y-149864723D01*
X129138514Y-149769485D01*
X129090895Y-149579009D01*
X129090895Y-149436152D01*
X129138514Y-149245676D01*
X129186133Y-149150438D01*
X129281371Y-149055200D01*
X129424228Y-149007580D01*
X129519466Y-149007580D01*
X129662323Y-149055200D01*
X129709942Y-149102819D01*
X130662323Y-150007580D02*
X130090895Y-150007580D01*
X130376609Y-150007580D02*
X130376609Y-149007580D01*
X130281371Y-149150438D01*
X130186133Y-149245676D01*
X130090895Y-149293295D01*
X131614704Y-150007580D02*
X131043276Y-150007580D01*
X131328990Y-150007580D02*
X131328990Y-149007580D01*
X131233752Y-149150438D01*
X131138514Y-149245676D01*
X131043276Y-149293295D01*
%TO.C,R1*%
X67406780Y-148316466D02*
X66930590Y-148649800D01*
X67406780Y-148887895D02*
X66406780Y-148887895D01*
X66406780Y-148506942D01*
X66454400Y-148411704D01*
X66502019Y-148364085D01*
X66597257Y-148316466D01*
X66740114Y-148316466D01*
X66835352Y-148364085D01*
X66882971Y-148411704D01*
X66930590Y-148506942D01*
X66930590Y-148887895D01*
X67406780Y-147364085D02*
X67406780Y-147935514D01*
X67406780Y-147649800D02*
X66406780Y-147649800D01*
X66549638Y-147745038D01*
X66644876Y-147840276D01*
X66692495Y-147935514D01*
%TO.C,R21*%
X72458342Y-73481180D02*
X72125009Y-73004990D01*
X71886914Y-73481180D02*
X71886914Y-72481180D01*
X72267866Y-72481180D01*
X72363104Y-72528800D01*
X72410723Y-72576419D01*
X72458342Y-72671657D01*
X72458342Y-72814514D01*
X72410723Y-72909752D01*
X72363104Y-72957371D01*
X72267866Y-73004990D01*
X71886914Y-73004990D01*
X72839295Y-72576419D02*
X72886914Y-72528800D01*
X72982152Y-72481180D01*
X73220247Y-72481180D01*
X73315485Y-72528800D01*
X73363104Y-72576419D01*
X73410723Y-72671657D01*
X73410723Y-72766895D01*
X73363104Y-72909752D01*
X72791676Y-73481180D01*
X73410723Y-73481180D01*
X74363104Y-73481180D02*
X73791676Y-73481180D01*
X74077390Y-73481180D02*
X74077390Y-72481180D01*
X73982152Y-72624038D01*
X73886914Y-72719276D01*
X73791676Y-72766895D01*
%TO.C,SW10*%
X130041876Y-157828761D02*
X130184733Y-157876380D01*
X130422828Y-157876380D01*
X130518066Y-157828761D01*
X130565685Y-157781142D01*
X130613304Y-157685904D01*
X130613304Y-157590666D01*
X130565685Y-157495428D01*
X130518066Y-157447809D01*
X130422828Y-157400190D01*
X130232352Y-157352571D01*
X130137114Y-157304952D01*
X130089495Y-157257333D01*
X130041876Y-157162095D01*
X130041876Y-157066857D01*
X130089495Y-156971619D01*
X130137114Y-156924000D01*
X130232352Y-156876380D01*
X130470447Y-156876380D01*
X130613304Y-156924000D01*
X130946638Y-156876380D02*
X131184733Y-157876380D01*
X131375209Y-157162095D01*
X131565685Y-157876380D01*
X131803780Y-156876380D01*
X132708542Y-157876380D02*
X132137114Y-157876380D01*
X132422828Y-157876380D02*
X132422828Y-156876380D01*
X132327590Y-157019238D01*
X132232352Y-157114476D01*
X132137114Y-157162095D01*
X133327590Y-156876380D02*
X133422828Y-156876380D01*
X133518066Y-156924000D01*
X133565685Y-156971619D01*
X133613304Y-157066857D01*
X133660923Y-157257333D01*
X133660923Y-157495428D01*
X133613304Y-157685904D01*
X133565685Y-157781142D01*
X133518066Y-157828761D01*
X133422828Y-157876380D01*
X133327590Y-157876380D01*
X133232352Y-157828761D01*
X133184733Y-157781142D01*
X133137114Y-157685904D01*
X133089495Y-157495428D01*
X133089495Y-157257333D01*
X133137114Y-157066857D01*
X133184733Y-156971619D01*
X133232352Y-156924000D01*
X133327590Y-156876380D01*
X134386580Y-163753180D02*
X133910390Y-164086514D01*
X134386580Y-164324609D02*
X133386580Y-164324609D01*
X133386580Y-163943657D01*
X133434200Y-163848419D01*
X133481819Y-163800800D01*
X133577057Y-163753180D01*
X133719914Y-163753180D01*
X133815152Y-163800800D01*
X133862771Y-163848419D01*
X133910390Y-163943657D01*
X133910390Y-164324609D01*
X133862771Y-163324609D02*
X133862771Y-162991276D01*
X134386580Y-162848419D02*
X134386580Y-163324609D01*
X133386580Y-163324609D01*
X133386580Y-162848419D01*
X134338961Y-162467466D02*
X134386580Y-162324609D01*
X134386580Y-162086514D01*
X134338961Y-161991276D01*
X134291342Y-161943657D01*
X134196104Y-161896038D01*
X134100866Y-161896038D01*
X134005628Y-161943657D01*
X133958009Y-161991276D01*
X133910390Y-162086514D01*
X133862771Y-162276990D01*
X133815152Y-162372228D01*
X133767533Y-162419847D01*
X133672295Y-162467466D01*
X133577057Y-162467466D01*
X133481819Y-162419847D01*
X133434200Y-162372228D01*
X133386580Y-162276990D01*
X133386580Y-162038895D01*
X133434200Y-161896038D01*
X133862771Y-161467466D02*
X133862771Y-161134133D01*
X134386580Y-160991276D02*
X134386580Y-161467466D01*
X133386580Y-161467466D01*
X133386580Y-160991276D01*
X133386580Y-160705561D02*
X133386580Y-160134133D01*
X134386580Y-160419847D02*
X133386580Y-160419847D01*
%TO.C,R20*%
X65202380Y-73083657D02*
X64726190Y-73416990D01*
X65202380Y-73655085D02*
X64202380Y-73655085D01*
X64202380Y-73274133D01*
X64250000Y-73178895D01*
X64297619Y-73131276D01*
X64392857Y-73083657D01*
X64535714Y-73083657D01*
X64630952Y-73131276D01*
X64678571Y-73178895D01*
X64726190Y-73274133D01*
X64726190Y-73655085D01*
X64297619Y-72702704D02*
X64250000Y-72655085D01*
X64202380Y-72559847D01*
X64202380Y-72321752D01*
X64250000Y-72226514D01*
X64297619Y-72178895D01*
X64392857Y-72131276D01*
X64488095Y-72131276D01*
X64630952Y-72178895D01*
X65202380Y-72750323D01*
X65202380Y-72131276D01*
X64202380Y-71512228D02*
X64202380Y-71416990D01*
X64250000Y-71321752D01*
X64297619Y-71274133D01*
X64392857Y-71226514D01*
X64583333Y-71178895D01*
X64821428Y-71178895D01*
X65011904Y-71226514D01*
X65107142Y-71274133D01*
X65154761Y-71321752D01*
X65202380Y-71416990D01*
X65202380Y-71512228D01*
X65154761Y-71607466D01*
X65107142Y-71655085D01*
X65011904Y-71702704D01*
X64821428Y-71750323D01*
X64583333Y-71750323D01*
X64392857Y-71702704D01*
X64297619Y-71655085D01*
X64250000Y-71607466D01*
X64202380Y-71512228D01*
%TO.C,C14*%
X119803942Y-134977142D02*
X119756323Y-135024761D01*
X119613466Y-135072380D01*
X119518228Y-135072380D01*
X119375371Y-135024761D01*
X119280133Y-134929523D01*
X119232514Y-134834285D01*
X119184895Y-134643809D01*
X119184895Y-134500952D01*
X119232514Y-134310476D01*
X119280133Y-134215238D01*
X119375371Y-134120000D01*
X119518228Y-134072380D01*
X119613466Y-134072380D01*
X119756323Y-134120000D01*
X119803942Y-134167619D01*
X120756323Y-135072380D02*
X120184895Y-135072380D01*
X120470609Y-135072380D02*
X120470609Y-134072380D01*
X120375371Y-134215238D01*
X120280133Y-134310476D01*
X120184895Y-134358095D01*
X121613466Y-134405714D02*
X121613466Y-135072380D01*
X121375371Y-134024761D02*
X121137276Y-134739047D01*
X121756323Y-134739047D01*
%TO.C,U3*%
X75724095Y-56500780D02*
X75724095Y-57310304D01*
X75771714Y-57405542D01*
X75819333Y-57453161D01*
X75914571Y-57500780D01*
X76105047Y-57500780D01*
X76200285Y-57453161D01*
X76247904Y-57405542D01*
X76295523Y-57310304D01*
X76295523Y-56500780D01*
X76676476Y-56500780D02*
X77295523Y-56500780D01*
X76962190Y-56881733D01*
X77105047Y-56881733D01*
X77200285Y-56929352D01*
X77247904Y-56976971D01*
X77295523Y-57072209D01*
X77295523Y-57310304D01*
X77247904Y-57405542D01*
X77200285Y-57453161D01*
X77105047Y-57500780D01*
X76819333Y-57500780D01*
X76724095Y-57453161D01*
X76676476Y-57405542D01*
%TO.C,R17*%
X126607142Y-129310380D02*
X126273809Y-128834190D01*
X126035714Y-129310380D02*
X126035714Y-128310380D01*
X126416666Y-128310380D01*
X126511904Y-128358000D01*
X126559523Y-128405619D01*
X126607142Y-128500857D01*
X126607142Y-128643714D01*
X126559523Y-128738952D01*
X126511904Y-128786571D01*
X126416666Y-128834190D01*
X126035714Y-128834190D01*
X127559523Y-129310380D02*
X126988095Y-129310380D01*
X127273809Y-129310380D02*
X127273809Y-128310380D01*
X127178571Y-128453238D01*
X127083333Y-128548476D01*
X126988095Y-128596095D01*
X127892857Y-128310380D02*
X128559523Y-128310380D01*
X128130952Y-129310380D01*
%TO.C,SW4*%
X111341066Y-94159961D02*
X111483923Y-94207580D01*
X111722019Y-94207580D01*
X111817257Y-94159961D01*
X111864876Y-94112342D01*
X111912495Y-94017104D01*
X111912495Y-93921866D01*
X111864876Y-93826628D01*
X111817257Y-93779009D01*
X111722019Y-93731390D01*
X111531542Y-93683771D01*
X111436304Y-93636152D01*
X111388685Y-93588533D01*
X111341066Y-93493295D01*
X111341066Y-93398057D01*
X111388685Y-93302819D01*
X111436304Y-93255200D01*
X111531542Y-93207580D01*
X111769638Y-93207580D01*
X111912495Y-93255200D01*
X112245828Y-93207580D02*
X112483923Y-94207580D01*
X112674400Y-93493295D01*
X112864876Y-94207580D01*
X113102971Y-93207580D01*
X113912495Y-93540914D02*
X113912495Y-94207580D01*
X113674400Y-93159961D02*
X113436304Y-93874247D01*
X114055352Y-93874247D01*
X107238093Y-97204780D02*
X106904760Y-96728590D01*
X106666665Y-97204780D02*
X106666665Y-96204780D01*
X107047617Y-96204780D01*
X107142855Y-96252400D01*
X107190474Y-96300019D01*
X107238093Y-96395257D01*
X107238093Y-96538114D01*
X107190474Y-96633352D01*
X107142855Y-96680971D01*
X107047617Y-96728590D01*
X106666665Y-96728590D01*
X107619046Y-96919066D02*
X108095236Y-96919066D01*
X107523808Y-97204780D02*
X107857141Y-96204780D01*
X108190474Y-97204780D01*
X108523808Y-97204780D02*
X108523808Y-96204780D01*
X109095236Y-97204780D01*
X109095236Y-96204780D01*
X110095236Y-96252400D02*
X109999998Y-96204780D01*
X109857141Y-96204780D01*
X109714284Y-96252400D01*
X109619046Y-96347638D01*
X109571427Y-96442876D01*
X109523808Y-96633352D01*
X109523808Y-96776209D01*
X109571427Y-96966685D01*
X109619046Y-97061923D01*
X109714284Y-97157161D01*
X109857141Y-97204780D01*
X109952379Y-97204780D01*
X110095236Y-97157161D01*
X110142855Y-97109542D01*
X110142855Y-96776209D01*
X109952379Y-96776209D01*
X110571427Y-96680971D02*
X110904760Y-96680971D01*
X111047617Y-97204780D02*
X110571427Y-97204780D01*
X110571427Y-96204780D01*
X111047617Y-96204780D01*
%TO.C,R3*%
X93641599Y-90960380D02*
X93308266Y-90484190D01*
X93070170Y-90960380D02*
X93070170Y-89960380D01*
X93451123Y-89960380D01*
X93546361Y-90008000D01*
X93593980Y-90055619D01*
X93641599Y-90150857D01*
X93641599Y-90293714D01*
X93593980Y-90388952D01*
X93546361Y-90436571D01*
X93451123Y-90484190D01*
X93070170Y-90484190D01*
X93974932Y-89960380D02*
X94593980Y-89960380D01*
X94260646Y-90341333D01*
X94403504Y-90341333D01*
X94498742Y-90388952D01*
X94546361Y-90436571D01*
X94593980Y-90531809D01*
X94593980Y-90769904D01*
X94546361Y-90865142D01*
X94498742Y-90912761D01*
X94403504Y-90960380D01*
X94117789Y-90960380D01*
X94022551Y-90912761D01*
X93974932Y-90865142D01*
%TO.C,SW9*%
X129070266Y-104154761D02*
X129213123Y-104202380D01*
X129451219Y-104202380D01*
X129546457Y-104154761D01*
X129594076Y-104107142D01*
X129641695Y-104011904D01*
X129641695Y-103916666D01*
X129594076Y-103821428D01*
X129546457Y-103773809D01*
X129451219Y-103726190D01*
X129260742Y-103678571D01*
X129165504Y-103630952D01*
X129117885Y-103583333D01*
X129070266Y-103488095D01*
X129070266Y-103392857D01*
X129117885Y-103297619D01*
X129165504Y-103250000D01*
X129260742Y-103202380D01*
X129498838Y-103202380D01*
X129641695Y-103250000D01*
X129975028Y-103202380D02*
X130213123Y-104202380D01*
X130403600Y-103488095D01*
X130594076Y-104202380D01*
X130832171Y-103202380D01*
X131260742Y-104202380D02*
X131451219Y-104202380D01*
X131546457Y-104154761D01*
X131594076Y-104107142D01*
X131689314Y-103964285D01*
X131736933Y-103773809D01*
X131736933Y-103392857D01*
X131689314Y-103297619D01*
X131641695Y-103250000D01*
X131546457Y-103202380D01*
X131355980Y-103202380D01*
X131260742Y-103250000D01*
X131213123Y-103297619D01*
X131165504Y-103392857D01*
X131165504Y-103630952D01*
X131213123Y-103726190D01*
X131260742Y-103773809D01*
X131355980Y-103821428D01*
X131546457Y-103821428D01*
X131641695Y-103773809D01*
X131689314Y-103726190D01*
X131736933Y-103630952D01*
X125738095Y-107161580D02*
X125738095Y-106161580D01*
X125738095Y-106637771D02*
X126309523Y-106637771D01*
X126309523Y-107161580D02*
X126309523Y-106161580D01*
X126690476Y-106161580D02*
X127357142Y-106161580D01*
X126690476Y-107161580D01*
X127357142Y-107161580D01*
%TO.C,J4*%
X120107466Y-163952380D02*
X120107466Y-164666666D01*
X120059847Y-164809523D01*
X119964609Y-164904761D01*
X119821752Y-164952380D01*
X119726514Y-164952380D01*
X121012228Y-164285714D02*
X121012228Y-164952380D01*
X120774133Y-163904761D02*
X120536038Y-164619047D01*
X121155085Y-164619047D01*
%TO.C,R2*%
X76127333Y-90960380D02*
X75794000Y-90484190D01*
X75555904Y-90960380D02*
X75555904Y-89960380D01*
X75936857Y-89960380D01*
X76032095Y-90008000D01*
X76079714Y-90055619D01*
X76127333Y-90150857D01*
X76127333Y-90293714D01*
X76079714Y-90388952D01*
X76032095Y-90436571D01*
X75936857Y-90484190D01*
X75555904Y-90484190D01*
X76508285Y-90055619D02*
X76555904Y-90008000D01*
X76651142Y-89960380D01*
X76889238Y-89960380D01*
X76984476Y-90008000D01*
X77032095Y-90055619D01*
X77079714Y-90150857D01*
X77079714Y-90246095D01*
X77032095Y-90388952D01*
X76460666Y-90960380D01*
X77079714Y-90960380D01*
%TO.C,REF\u002A\u002A*%
X79756000Y-150672800D02*
X81756000Y-150672800D01*
X77756000Y-150672800D02*
X78656000Y-150672800D01*
X80431000Y-149922800D02*
G75*
G03*
X80506000Y-151347800I-675000J-750000D01*
G01*
X83681000Y-150672800D02*
G75*
G03*
X83681000Y-150672800I-925000J0D01*
G01*
D14*
X79931000Y-150672800D02*
G75*
G03*
X79931000Y-150672800I-175000J0D01*
G01*
D10*
X77681000Y-150672800D02*
G75*
G03*
X77681000Y-150672800I-925000J0D01*
G01*
G36*
X84020214Y-155177531D02*
G01*
X84104035Y-155622155D01*
X84413320Y-155749653D01*
X84722606Y-155877151D01*
X85093646Y-155624846D01*
X85197557Y-155554596D01*
X85291487Y-155491872D01*
X85371052Y-155439538D01*
X85431870Y-155400457D01*
X85469557Y-155377493D01*
X85479821Y-155372542D01*
X85498310Y-155385276D01*
X85537820Y-155420482D01*
X85593922Y-155473662D01*
X85662187Y-155540318D01*
X85738186Y-155615954D01*
X85817492Y-155696072D01*
X85895675Y-155776174D01*
X85968307Y-155851764D01*
X86030959Y-155918345D01*
X86079203Y-155971418D01*
X86108610Y-156006487D01*
X86115641Y-156018223D01*
X86105523Y-156039860D01*
X86077159Y-156087262D01*
X86033529Y-156155793D01*
X85977618Y-156240815D01*
X85912406Y-156337693D01*
X85874619Y-156392950D01*
X85805743Y-156493848D01*
X85744540Y-156584899D01*
X85693978Y-156661570D01*
X85657028Y-156719328D01*
X85636658Y-156753643D01*
X85633597Y-156760854D01*
X85640536Y-156781348D01*
X85659451Y-156829113D01*
X85687487Y-156897432D01*
X85721791Y-156979589D01*
X85759509Y-157068870D01*
X85797787Y-157158558D01*
X85833770Y-157241938D01*
X85864606Y-157312294D01*
X85887439Y-157362910D01*
X85899417Y-157387071D01*
X85900124Y-157388022D01*
X85918931Y-157392636D01*
X85969018Y-157402928D01*
X86045193Y-157417887D01*
X86142265Y-157436501D01*
X86255043Y-157457759D01*
X86320842Y-157470018D01*
X86441350Y-157492962D01*
X86550197Y-157514795D01*
X86641876Y-157534322D01*
X86710881Y-157550348D01*
X86751704Y-157561679D01*
X86759911Y-157565274D01*
X86767948Y-157589606D01*
X86774433Y-157644559D01*
X86779370Y-157723708D01*
X86782764Y-157820626D01*
X86784618Y-157928887D01*
X86784938Y-158042065D01*
X86783727Y-158153735D01*
X86780990Y-158257468D01*
X86776731Y-158346841D01*
X86770955Y-158415426D01*
X86763667Y-158456797D01*
X86759295Y-158465410D01*
X86733164Y-158475733D01*
X86677793Y-158490492D01*
X86600507Y-158507952D01*
X86508630Y-158526380D01*
X86476558Y-158532341D01*
X86321924Y-158560666D01*
X86199775Y-158583476D01*
X86106073Y-158601680D01*
X86036784Y-158616183D01*
X85987871Y-158627892D01*
X85955297Y-158637715D01*
X85935028Y-158646556D01*
X85923026Y-158655324D01*
X85921347Y-158657057D01*
X85904584Y-158684971D01*
X85879014Y-158739295D01*
X85847188Y-158813377D01*
X85811660Y-158900565D01*
X85774983Y-158994208D01*
X85739711Y-159087652D01*
X85708396Y-159174247D01*
X85683593Y-159247340D01*
X85667854Y-159300278D01*
X85663732Y-159326411D01*
X85664076Y-159327326D01*
X85678041Y-159348686D01*
X85709722Y-159395684D01*
X85755791Y-159463427D01*
X85812918Y-159547023D01*
X85877773Y-159641582D01*
X85896243Y-159668454D01*
X85962099Y-159765875D01*
X86020050Y-159854763D01*
X86066938Y-159930012D01*
X86099607Y-159986520D01*
X86114900Y-160019181D01*
X86115641Y-160023193D01*
X86102792Y-160044284D01*
X86067288Y-160086064D01*
X86013693Y-160144045D01*
X85946571Y-160213735D01*
X85870487Y-160290645D01*
X85790004Y-160370283D01*
X85709687Y-160448161D01*
X85634099Y-160519786D01*
X85567805Y-160580670D01*
X85515369Y-160626321D01*
X85481355Y-160652250D01*
X85471945Y-160656483D01*
X85450043Y-160646512D01*
X85405200Y-160619620D01*
X85344721Y-160580336D01*
X85298189Y-160548717D01*
X85213875Y-160490698D01*
X85114026Y-160422384D01*
X85013873Y-160354179D01*
X84960027Y-160317675D01*
X84777771Y-160194400D01*
X84624781Y-160277120D01*
X84555082Y-160313359D01*
X84495814Y-160341526D01*
X84455711Y-160357591D01*
X84445503Y-160359826D01*
X84433229Y-160343322D01*
X84409013Y-160296682D01*
X84374663Y-160224209D01*
X84331988Y-160130206D01*
X84282794Y-160018974D01*
X84228890Y-159894815D01*
X84172084Y-159762032D01*
X84114182Y-159624927D01*
X84056993Y-159487802D01*
X84002324Y-159354958D01*
X83951984Y-159230698D01*
X83907780Y-159119325D01*
X83871519Y-159025139D01*
X83845009Y-158952444D01*
X83830058Y-158905541D01*
X83827654Y-158889433D01*
X83846711Y-158868886D01*
X83888436Y-158835533D01*
X83944106Y-158796302D01*
X83948778Y-158793199D01*
X84092664Y-158678023D01*
X84208683Y-158543653D01*
X84295830Y-158394384D01*
X84353099Y-158234513D01*
X84379486Y-158068337D01*
X84373985Y-157900152D01*
X84335590Y-157734255D01*
X84263295Y-157574942D01*
X84242026Y-157540087D01*
X84131396Y-157399337D01*
X84000702Y-157286314D01*
X83854464Y-157201603D01*
X83697208Y-157145794D01*
X83533457Y-157119474D01*
X83367733Y-157123230D01*
X83204562Y-157157650D01*
X83048465Y-157223323D01*
X82903967Y-157320835D01*
X82859269Y-157360413D01*
X82745512Y-157484303D01*
X82662618Y-157614724D01*
X82605756Y-157760915D01*
X82574087Y-157905688D01*
X82566269Y-158068460D01*
X82592338Y-158232040D01*
X82649645Y-158390898D01*
X82735544Y-158539506D01*
X82847386Y-158672335D01*
X82982523Y-158783856D01*
X83000283Y-158795611D01*
X83056550Y-158834108D01*
X83099323Y-158867463D01*
X83119772Y-158888760D01*
X83120069Y-158889433D01*
X83115679Y-158912471D01*
X83098276Y-158964757D01*
X83069668Y-159041990D01*
X83031665Y-159139868D01*
X82986074Y-159254091D01*
X82934703Y-159380358D01*
X82879362Y-159514367D01*
X82821858Y-159651818D01*
X82764001Y-159788408D01*
X82707598Y-159919837D01*
X82654458Y-160041805D01*
X82606390Y-160150009D01*
X82565201Y-160240149D01*
X82532701Y-160307923D01*
X82510697Y-160349030D01*
X82501836Y-160359826D01*
X82474760Y-160351419D01*
X82424097Y-160328872D01*
X82358583Y-160296213D01*
X82322559Y-160277120D01*
X82169568Y-160194400D01*
X81987312Y-160317675D01*
X81894275Y-160380828D01*
X81792415Y-160450327D01*
X81696962Y-160515765D01*
X81649150Y-160548717D01*
X81581905Y-160593873D01*
X81524964Y-160629657D01*
X81485754Y-160651538D01*
X81473019Y-160656163D01*
X81454483Y-160643685D01*
X81413459Y-160608852D01*
X81353925Y-160555278D01*
X81279858Y-160486583D01*
X81195235Y-160406381D01*
X81141715Y-160354886D01*
X81048081Y-160262886D01*
X80967159Y-160180599D01*
X80902223Y-160111545D01*
X80856542Y-160059244D01*
X80833389Y-160027216D01*
X80831168Y-160020716D01*
X80841476Y-159995994D01*
X80869961Y-159946005D01*
X80913463Y-159875812D01*
X80968823Y-159790475D01*
X81032880Y-159695056D01*
X81051097Y-159668454D01*
X81117473Y-159571767D01*
X81177022Y-159484717D01*
X81226416Y-159412195D01*
X81262325Y-159359093D01*
X81281419Y-159330303D01*
X81283264Y-159327326D01*
X81280505Y-159304382D01*
X81265862Y-159253936D01*
X81241887Y-159182641D01*
X81211134Y-159097147D01*
X81176156Y-159004107D01*
X81139507Y-158910174D01*
X81103739Y-158821999D01*
X81071406Y-158746234D01*
X81045062Y-158689531D01*
X81027258Y-158658543D01*
X81025993Y-158657057D01*
X81015106Y-158648201D01*
X80996718Y-158639443D01*
X80966794Y-158629877D01*
X80921297Y-158618596D01*
X80856191Y-158604693D01*
X80767439Y-158587263D01*
X80651007Y-158565398D01*
X80502858Y-158538191D01*
X80470782Y-158532341D01*
X80375714Y-158513974D01*
X80292835Y-158496005D01*
X80229470Y-158480169D01*
X80192942Y-158468200D01*
X80188044Y-158465410D01*
X80179973Y-158440672D01*
X80173413Y-158385390D01*
X80168367Y-158305989D01*
X80164841Y-158208896D01*
X80162839Y-158100538D01*
X80162364Y-157987340D01*
X80163423Y-157875728D01*
X80166018Y-157772129D01*
X80170154Y-157682968D01*
X80175837Y-157614672D01*
X80183069Y-157573666D01*
X80187429Y-157565274D01*
X80211702Y-157556808D01*
X80266974Y-157543035D01*
X80347738Y-157525150D01*
X80448488Y-157504348D01*
X80563717Y-157481823D01*
X80626498Y-157470018D01*
X80745613Y-157447751D01*
X80851835Y-157427579D01*
X80939973Y-157410515D01*
X81004834Y-157397569D01*
X81041226Y-157389755D01*
X81047216Y-157388022D01*
X81057339Y-157368490D01*
X81078738Y-157321443D01*
X81108561Y-157253603D01*
X81143955Y-157171691D01*
X81182068Y-157082428D01*
X81220047Y-156992535D01*
X81255040Y-156908735D01*
X81284194Y-156837747D01*
X81304657Y-156786294D01*
X81313577Y-156761097D01*
X81313743Y-156759996D01*
X81303631Y-156740119D01*
X81275283Y-156694377D01*
X81231677Y-156627317D01*
X81175794Y-156543484D01*
X81110613Y-156447426D01*
X81072721Y-156392250D01*
X81003675Y-156291081D01*
X80942350Y-156199230D01*
X80891737Y-156121344D01*
X80854829Y-156062069D01*
X80834618Y-156026051D01*
X80831699Y-156017977D01*
X80844247Y-155999184D01*
X80878937Y-155959057D01*
X80931337Y-155902093D01*
X80997016Y-155832785D01*
X81071544Y-155755631D01*
X81150487Y-155675125D01*
X81229417Y-155595763D01*
X81303900Y-155522040D01*
X81369506Y-155458452D01*
X81421804Y-155409494D01*
X81456361Y-155379661D01*
X81467922Y-155372542D01*
X81486746Y-155382553D01*
X81531769Y-155410678D01*
X81598613Y-155454054D01*
X81682901Y-155509818D01*
X81780256Y-155575106D01*
X81853693Y-155624846D01*
X82224733Y-155877151D01*
X82843305Y-155622155D01*
X82927125Y-155177531D01*
X83010946Y-154732907D01*
X83936394Y-154732907D01*
X84020214Y-155177531D01*
G37*
D15*
X84020214Y-155177531D02*
X84104035Y-155622155D01*
X84413320Y-155749653D01*
X84722606Y-155877151D01*
X85093646Y-155624846D01*
X85197557Y-155554596D01*
X85291487Y-155491872D01*
X85371052Y-155439538D01*
X85431870Y-155400457D01*
X85469557Y-155377493D01*
X85479821Y-155372542D01*
X85498310Y-155385276D01*
X85537820Y-155420482D01*
X85593922Y-155473662D01*
X85662187Y-155540318D01*
X85738186Y-155615954D01*
X85817492Y-155696072D01*
X85895675Y-155776174D01*
X85968307Y-155851764D01*
X86030959Y-155918345D01*
X86079203Y-155971418D01*
X86108610Y-156006487D01*
X86115641Y-156018223D01*
X86105523Y-156039860D01*
X86077159Y-156087262D01*
X86033529Y-156155793D01*
X85977618Y-156240815D01*
X85912406Y-156337693D01*
X85874619Y-156392950D01*
X85805743Y-156493848D01*
X85744540Y-156584899D01*
X85693978Y-156661570D01*
X85657028Y-156719328D01*
X85636658Y-156753643D01*
X85633597Y-156760854D01*
X85640536Y-156781348D01*
X85659451Y-156829113D01*
X85687487Y-156897432D01*
X85721791Y-156979589D01*
X85759509Y-157068870D01*
X85797787Y-157158558D01*
X85833770Y-157241938D01*
X85864606Y-157312294D01*
X85887439Y-157362910D01*
X85899417Y-157387071D01*
X85900124Y-157388022D01*
X85918931Y-157392636D01*
X85969018Y-157402928D01*
X86045193Y-157417887D01*
X86142265Y-157436501D01*
X86255043Y-157457759D01*
X86320842Y-157470018D01*
X86441350Y-157492962D01*
X86550197Y-157514795D01*
X86641876Y-157534322D01*
X86710881Y-157550348D01*
X86751704Y-157561679D01*
X86759911Y-157565274D01*
X86767948Y-157589606D01*
X86774433Y-157644559D01*
X86779370Y-157723708D01*
X86782764Y-157820626D01*
X86784618Y-157928887D01*
X86784938Y-158042065D01*
X86783727Y-158153735D01*
X86780990Y-158257468D01*
X86776731Y-158346841D01*
X86770955Y-158415426D01*
X86763667Y-158456797D01*
X86759295Y-158465410D01*
X86733164Y-158475733D01*
X86677793Y-158490492D01*
X86600507Y-158507952D01*
X86508630Y-158526380D01*
X86476558Y-158532341D01*
X86321924Y-158560666D01*
X86199775Y-158583476D01*
X86106073Y-158601680D01*
X86036784Y-158616183D01*
X85987871Y-158627892D01*
X85955297Y-158637715D01*
X85935028Y-158646556D01*
X85923026Y-158655324D01*
X85921347Y-158657057D01*
X85904584Y-158684971D01*
X85879014Y-158739295D01*
X85847188Y-158813377D01*
X85811660Y-158900565D01*
X85774983Y-158994208D01*
X85739711Y-159087652D01*
X85708396Y-159174247D01*
X85683593Y-159247340D01*
X85667854Y-159300278D01*
X85663732Y-159326411D01*
X85664076Y-159327326D01*
X85678041Y-159348686D01*
X85709722Y-159395684D01*
X85755791Y-159463427D01*
X85812918Y-159547023D01*
X85877773Y-159641582D01*
X85896243Y-159668454D01*
X85962099Y-159765875D01*
X86020050Y-159854763D01*
X86066938Y-159930012D01*
X86099607Y-159986520D01*
X86114900Y-160019181D01*
X86115641Y-160023193D01*
X86102792Y-160044284D01*
X86067288Y-160086064D01*
X86013693Y-160144045D01*
X85946571Y-160213735D01*
X85870487Y-160290645D01*
X85790004Y-160370283D01*
X85709687Y-160448161D01*
X85634099Y-160519786D01*
X85567805Y-160580670D01*
X85515369Y-160626321D01*
X85481355Y-160652250D01*
X85471945Y-160656483D01*
X85450043Y-160646512D01*
X85405200Y-160619620D01*
X85344721Y-160580336D01*
X85298189Y-160548717D01*
X85213875Y-160490698D01*
X85114026Y-160422384D01*
X85013873Y-160354179D01*
X84960027Y-160317675D01*
X84777771Y-160194400D01*
X84624781Y-160277120D01*
X84555082Y-160313359D01*
X84495814Y-160341526D01*
X84455711Y-160357591D01*
X84445503Y-160359826D01*
X84433229Y-160343322D01*
X84409013Y-160296682D01*
X84374663Y-160224209D01*
X84331988Y-160130206D01*
X84282794Y-160018974D01*
X84228890Y-159894815D01*
X84172084Y-159762032D01*
X84114182Y-159624927D01*
X84056993Y-159487802D01*
X84002324Y-159354958D01*
X83951984Y-159230698D01*
X83907780Y-159119325D01*
X83871519Y-159025139D01*
X83845009Y-158952444D01*
X83830058Y-158905541D01*
X83827654Y-158889433D01*
X83846711Y-158868886D01*
X83888436Y-158835533D01*
X83944106Y-158796302D01*
X83948778Y-158793199D01*
X84092664Y-158678023D01*
X84208683Y-158543653D01*
X84295830Y-158394384D01*
X84353099Y-158234513D01*
X84379486Y-158068337D01*
X84373985Y-157900152D01*
X84335590Y-157734255D01*
X84263295Y-157574942D01*
X84242026Y-157540087D01*
X84131396Y-157399337D01*
X84000702Y-157286314D01*
X83854464Y-157201603D01*
X83697208Y-157145794D01*
X83533457Y-157119474D01*
X83367733Y-157123230D01*
X83204562Y-157157650D01*
X83048465Y-157223323D01*
X82903967Y-157320835D01*
X82859269Y-157360413D01*
X82745512Y-157484303D01*
X82662618Y-157614724D01*
X82605756Y-157760915D01*
X82574087Y-157905688D01*
X82566269Y-158068460D01*
X82592338Y-158232040D01*
X82649645Y-158390898D01*
X82735544Y-158539506D01*
X82847386Y-158672335D01*
X82982523Y-158783856D01*
X83000283Y-158795611D01*
X83056550Y-158834108D01*
X83099323Y-158867463D01*
X83119772Y-158888760D01*
X83120069Y-158889433D01*
X83115679Y-158912471D01*
X83098276Y-158964757D01*
X83069668Y-159041990D01*
X83031665Y-159139868D01*
X82986074Y-159254091D01*
X82934703Y-159380358D01*
X82879362Y-159514367D01*
X82821858Y-159651818D01*
X82764001Y-159788408D01*
X82707598Y-159919837D01*
X82654458Y-160041805D01*
X82606390Y-160150009D01*
X82565201Y-160240149D01*
X82532701Y-160307923D01*
X82510697Y-160349030D01*
X82501836Y-160359826D01*
X82474760Y-160351419D01*
X82424097Y-160328872D01*
X82358583Y-160296213D01*
X82322559Y-160277120D01*
X82169568Y-160194400D01*
X81987312Y-160317675D01*
X81894275Y-160380828D01*
X81792415Y-160450327D01*
X81696962Y-160515765D01*
X81649150Y-160548717D01*
X81581905Y-160593873D01*
X81524964Y-160629657D01*
X81485754Y-160651538D01*
X81473019Y-160656163D01*
X81454483Y-160643685D01*
X81413459Y-160608852D01*
X81353925Y-160555278D01*
X81279858Y-160486583D01*
X81195235Y-160406381D01*
X81141715Y-160354886D01*
X81048081Y-160262886D01*
X80967159Y-160180599D01*
X80902223Y-160111545D01*
X80856542Y-160059244D01*
X80833389Y-160027216D01*
X80831168Y-160020716D01*
X80841476Y-159995994D01*
X80869961Y-159946005D01*
X80913463Y-159875812D01*
X80968823Y-159790475D01*
X81032880Y-159695056D01*
X81051097Y-159668454D01*
X81117473Y-159571767D01*
X81177022Y-159484717D01*
X81226416Y-159412195D01*
X81262325Y-159359093D01*
X81281419Y-159330303D01*
X81283264Y-159327326D01*
X81280505Y-159304382D01*
X81265862Y-159253936D01*
X81241887Y-159182641D01*
X81211134Y-159097147D01*
X81176156Y-159004107D01*
X81139507Y-158910174D01*
X81103739Y-158821999D01*
X81071406Y-158746234D01*
X81045062Y-158689531D01*
X81027258Y-158658543D01*
X81025993Y-158657057D01*
X81015106Y-158648201D01*
X80996718Y-158639443D01*
X80966794Y-158629877D01*
X80921297Y-158618596D01*
X80856191Y-158604693D01*
X80767439Y-158587263D01*
X80651007Y-158565398D01*
X80502858Y-158538191D01*
X80470782Y-158532341D01*
X80375714Y-158513974D01*
X80292835Y-158496005D01*
X80229470Y-158480169D01*
X80192942Y-158468200D01*
X80188044Y-158465410D01*
X80179973Y-158440672D01*
X80173413Y-158385390D01*
X80168367Y-158305989D01*
X80164841Y-158208896D01*
X80162839Y-158100538D01*
X80162364Y-157987340D01*
X80163423Y-157875728D01*
X80166018Y-157772129D01*
X80170154Y-157682968D01*
X80175837Y-157614672D01*
X80183069Y-157573666D01*
X80187429Y-157565274D01*
X80211702Y-157556808D01*
X80266974Y-157543035D01*
X80347738Y-157525150D01*
X80448488Y-157504348D01*
X80563717Y-157481823D01*
X80626498Y-157470018D01*
X80745613Y-157447751D01*
X80851835Y-157427579D01*
X80939973Y-157410515D01*
X81004834Y-157397569D01*
X81041226Y-157389755D01*
X81047216Y-157388022D01*
X81057339Y-157368490D01*
X81078738Y-157321443D01*
X81108561Y-157253603D01*
X81143955Y-157171691D01*
X81182068Y-157082428D01*
X81220047Y-156992535D01*
X81255040Y-156908735D01*
X81284194Y-156837747D01*
X81304657Y-156786294D01*
X81313577Y-156761097D01*
X81313743Y-156759996D01*
X81303631Y-156740119D01*
X81275283Y-156694377D01*
X81231677Y-156627317D01*
X81175794Y-156543484D01*
X81110613Y-156447426D01*
X81072721Y-156392250D01*
X81003675Y-156291081D01*
X80942350Y-156199230D01*
X80891737Y-156121344D01*
X80854829Y-156062069D01*
X80834618Y-156026051D01*
X80831699Y-156017977D01*
X80844247Y-155999184D01*
X80878937Y-155959057D01*
X80931337Y-155902093D01*
X80997016Y-155832785D01*
X81071544Y-155755631D01*
X81150487Y-155675125D01*
X81229417Y-155595763D01*
X81303900Y-155522040D01*
X81369506Y-155458452D01*
X81421804Y-155409494D01*
X81456361Y-155379661D01*
X81467922Y-155372542D01*
X81486746Y-155382553D01*
X81531769Y-155410678D01*
X81598613Y-155454054D01*
X81682901Y-155509818D01*
X81780256Y-155575106D01*
X81853693Y-155624846D01*
X82224733Y-155877151D01*
X82843305Y-155622155D01*
X82927125Y-155177531D01*
X83010946Y-154732907D01*
X83936394Y-154732907D01*
X84020214Y-155177531D01*
D16*
%TO.C,C13*%
X127215020Y-151763200D02*
X127496180Y-151763200D01*
X127215020Y-150743200D02*
X127496180Y-150743200D01*
%TO.C,Q1*%
X71937500Y-149709800D02*
X72587500Y-149709800D01*
X71937500Y-146589800D02*
X70262500Y-146589800D01*
X71937500Y-146589800D02*
X72587500Y-146589800D01*
X71937500Y-149709800D02*
X71287500Y-149709800D01*
%TO.C,C8*%
X75805420Y-69678000D02*
X76086580Y-69678000D01*
X75805420Y-68658000D02*
X76086580Y-68658000D01*
%TO.C,R22*%
X122868458Y-149032700D02*
X122393942Y-149032700D01*
X122868458Y-150077700D02*
X122393942Y-150077700D01*
%TO.C,D3*%
X116687600Y-131383200D02*
X118362600Y-131383200D01*
X116687600Y-128263200D02*
X116037600Y-128263200D01*
X116687600Y-128263200D02*
X117337600Y-128263200D01*
X116687600Y-131383200D02*
X116037600Y-131383200D01*
%TO.C,C2*%
X76574600Y-140701652D02*
X76574600Y-140179148D01*
X78044600Y-140701652D02*
X78044600Y-140179148D01*
%TO.C,C6*%
X132513400Y-122348348D02*
X132513400Y-122870852D01*
X133983400Y-122348348D02*
X133983400Y-122870852D01*
%TO.C,J5*%
X119998800Y-115303600D02*
X119998800Y-110103600D01*
X112258800Y-112703600D02*
X112258800Y-110103600D01*
X114858800Y-112703600D02*
X112258800Y-112703600D01*
X114858800Y-115303600D02*
X114858800Y-112703600D01*
X113588800Y-115303600D02*
X112258800Y-115303600D01*
X112258800Y-115303600D02*
X112258800Y-113973600D01*
X114858800Y-115303600D02*
X119998800Y-115303600D01*
X112258800Y-110103600D02*
X119998800Y-110103600D01*
%TO.C,D1*%
X132550000Y-131523400D02*
X134835000Y-131523400D01*
X134835000Y-131523400D02*
X134835000Y-130053400D01*
X134835000Y-130053400D02*
X132550000Y-130053400D01*
%TO.C,C1*%
X77359420Y-147010000D02*
X77640580Y-147010000D01*
X77359420Y-145990000D02*
X77640580Y-145990000D01*
%TO.C,C4*%
X104442800Y-63466580D02*
X104442800Y-63185420D01*
X105462800Y-63466580D02*
X105462800Y-63185420D01*
%TO.C,R4*%
X108596074Y-91022500D02*
X109070590Y-91022500D01*
X108596074Y-89977500D02*
X109070590Y-89977500D01*
%TO.C,R12*%
X70442858Y-59422500D02*
X69968342Y-59422500D01*
X70442858Y-58377500D02*
X69968342Y-58377500D01*
%TO.C,C9*%
X75805420Y-70537600D02*
X76086580Y-70537600D01*
X75805420Y-71557600D02*
X76086580Y-71557600D01*
%TO.C,R7*%
X111114100Y-63563258D02*
X111114100Y-63088742D01*
X110069100Y-63563258D02*
X110069100Y-63088742D01*
%TO.C,R11*%
X126262742Y-101022500D02*
X126737258Y-101022500D01*
X126262742Y-99977500D02*
X126737258Y-99977500D01*
D10*
%TO.C,U4*%
X122105000Y-124710600D02*
X122105000Y-124385600D01*
X122105000Y-117460600D02*
X122430000Y-117460600D01*
X129355000Y-124710600D02*
X129355000Y-124485600D01*
X122105000Y-124710600D02*
X122430000Y-124710600D01*
X129355000Y-117460600D02*
X129355000Y-117785600D01*
X129355000Y-124485600D02*
X130780000Y-124485600D01*
X129355000Y-117460600D02*
X129030000Y-117460600D01*
X122105000Y-117460600D02*
X122105000Y-117785600D01*
X129355000Y-124710600D02*
X129030000Y-124710600D01*
D16*
%TO.C,R18*%
X79975942Y-73551300D02*
X80450458Y-73551300D01*
X79975942Y-72506300D02*
X80450458Y-72506300D01*
%TO.C,U6*%
X125000000Y-137740000D02*
X121140000Y-137740000D01*
X125000000Y-148260000D02*
X128860000Y-148260000D01*
X125000000Y-148260000D02*
X121140000Y-148260000D01*
X121140000Y-137740000D02*
X121140000Y-137995000D01*
X128860000Y-137740000D02*
X128860000Y-137995000D01*
X125000000Y-137740000D02*
X128860000Y-137740000D01*
X128860000Y-148260000D02*
X128860000Y-148005000D01*
X121140000Y-137995000D02*
X119325000Y-137995000D01*
X121140000Y-148260000D02*
X121140000Y-148005000D01*
%TO.C,Q2*%
X80213200Y-71693200D02*
X81888200Y-71693200D01*
X80213200Y-68573200D02*
X80863200Y-68573200D01*
X80213200Y-71693200D02*
X79563200Y-71693200D01*
X80213200Y-68573200D02*
X79563200Y-68573200D01*
%TO.C,R9*%
X90929408Y-101022500D02*
X91403924Y-101022500D01*
X90929408Y-99977500D02*
X91403924Y-99977500D01*
%TO.C,Q3*%
X70041000Y-71693200D02*
X69391000Y-71693200D01*
X70041000Y-68573200D02*
X69391000Y-68573200D01*
X70041000Y-68573200D02*
X70691000Y-68573200D01*
X70041000Y-71693200D02*
X71716000Y-71693200D01*
%TO.C,C7*%
X70295380Y-60930000D02*
X70014220Y-60930000D01*
X70295380Y-61950000D02*
X70014220Y-61950000D01*
%TO.C,J6*%
X117815200Y-154727600D02*
X119145200Y-154727600D01*
X116545200Y-154727600D02*
X116545200Y-157387600D01*
X116545200Y-154727600D02*
X113945200Y-154727600D01*
X116545200Y-157387600D02*
X113945200Y-157387600D01*
X113945200Y-154727600D02*
X113945200Y-157387600D01*
X119145200Y-154727600D02*
X119145200Y-156057600D01*
%TO.C,JP1*%
X113062800Y-66523100D02*
X117162800Y-66523100D01*
X117162800Y-66523100D02*
X117162800Y-68523100D01*
X113062800Y-68523100D02*
X113062800Y-66523100D01*
X117162800Y-68523100D02*
X113062800Y-68523100D01*
X113812800Y-68723100D02*
X114112800Y-69023100D01*
X113512800Y-69023100D02*
X114112800Y-69023100D01*
X113812800Y-68723100D02*
X113512800Y-69023100D01*
D17*
%TO.C,BT1*%
X78500000Y-134182338D02*
X80585965Y-132096373D01*
X71393577Y-127075914D02*
X68317662Y-124000000D01*
X80585965Y-132096373D02*
X80359691Y-131870098D01*
X75424086Y-131106423D02*
X78500000Y-134182338D01*
X70403627Y-121914035D02*
X70629902Y-122140309D01*
X68317662Y-124000000D02*
X70403627Y-121914035D01*
X83976543Y-129476543D02*
G75*
G03*
X85025888Y-119828776I-5476433J5476598D01*
G01*
X74328777Y-130524474D02*
G75*
G03*
X75424086Y-131106423I4035061J6272808D01*
G01*
X70919815Y-122154451D02*
G75*
G03*
X71018810Y-121998888I-234446J258473D01*
G01*
X71393577Y-127075914D02*
G75*
G03*
X71975526Y-128171223I6854683J2939713D01*
G01*
X70629901Y-122140310D02*
G75*
G03*
X70919815Y-122154451I152028J137887D01*
G01*
X73023458Y-118523458D02*
G75*
G03*
X71018810Y-121998888I5465584J-5468441D01*
G01*
X80501112Y-131481190D02*
G75*
G03*
X80345549Y-131580185I102910J-333441D01*
G01*
X80345549Y-131580185D02*
G75*
G03*
X80359690Y-131870099I152019J-137887D01*
G01*
X80501112Y-131481189D02*
G75*
G03*
X83976542Y-129476542I-1993007J7470225D01*
G01*
X82671224Y-117474112D02*
G75*
G03*
X73023458Y-118523458I-4171169J-6525778D01*
G01*
D16*
%TO.C,D4*%
X66020000Y-67032000D02*
X66020000Y-65000000D01*
X63480000Y-64746000D02*
X63480000Y-67032000D01*
X63480000Y-67032000D02*
X66020000Y-67032000D01*
%TO.C,J2*%
X78130000Y-163170000D02*
X78130000Y-165830000D01*
X82000000Y-163170000D02*
X83330000Y-163170000D01*
X83330000Y-163170000D02*
X83330000Y-164500000D01*
X80730000Y-165830000D02*
X78130000Y-165830000D01*
X80730000Y-163170000D02*
X78130000Y-163170000D01*
X80730000Y-163170000D02*
X80730000Y-165830000D01*
%TO.C,C5*%
X106322400Y-63466580D02*
X106322400Y-63185420D01*
X107342400Y-63466580D02*
X107342400Y-63185420D01*
%TO.C,RV1*%
X67873654Y-118093503D02*
X68156497Y-118376346D01*
X66388730Y-117315685D02*
X66883705Y-117810660D01*
X69924264Y-118588478D02*
X71974874Y-116537868D01*
X69712132Y-114275126D02*
X70136396Y-114699390D01*
X66883705Y-116820711D02*
X66388730Y-117315685D01*
X71974874Y-116537868D02*
X71550610Y-116113604D01*
X67661522Y-116325736D02*
X69712132Y-114275126D01*
%TO.C,U5*%
X125069600Y-157732400D02*
X127019600Y-157732400D01*
X125069600Y-152612400D02*
X127019600Y-152612400D01*
X125069600Y-152612400D02*
X121619600Y-152612400D01*
X125069600Y-157732400D02*
X123119600Y-157732400D01*
%TO.C,C12*%
X117350000Y-120945020D02*
X117350000Y-121226180D01*
X116330000Y-120945020D02*
X116330000Y-121226180D01*
%TO.C,D2*%
X134835000Y-129593000D02*
X134835000Y-128123000D01*
X134835000Y-128123000D02*
X132550000Y-128123000D01*
X132550000Y-129593000D02*
X134835000Y-129593000D01*
%TO.C,J1*%
X75600000Y-158000000D02*
X75600000Y-166600000D01*
X66400000Y-166600000D02*
X66400000Y-152100000D01*
X66400000Y-152100000D02*
X68400000Y-152100000D01*
X73600000Y-152100000D02*
X75600000Y-152100000D01*
X66100000Y-151800000D02*
X66100000Y-153100000D01*
X67800000Y-151800000D02*
X66100000Y-151800000D01*
X75600000Y-166600000D02*
X66400000Y-166600000D01*
X75600000Y-152100000D02*
X75600000Y-153400000D01*
%TO.C,C3*%
X66363800Y-140179148D02*
X66363800Y-140701652D01*
X67833800Y-140179148D02*
X67833800Y-140701652D01*
%TO.C,R8*%
X109234500Y-63563258D02*
X109234500Y-63088742D01*
X108189500Y-63563258D02*
X108189500Y-63088742D01*
%TO.C,U2*%
X95952000Y-72112000D02*
X95952000Y-71604000D01*
X95952000Y-57888000D02*
X102048000Y-57888000D01*
X101794000Y-72112000D02*
X95952000Y-72112000D01*
X101794000Y-72112000D02*
X101794000Y-71858000D01*
X101794000Y-71858000D02*
X101794000Y-71604000D01*
X95952000Y-58396000D02*
X95952000Y-57888000D01*
X102048000Y-57888000D02*
X102048000Y-58396000D01*
X94936000Y-58396000D02*
X95952000Y-58396000D01*
%TO.C,R10*%
X108596074Y-101022500D02*
X109070590Y-101022500D01*
X108596074Y-99977500D02*
X109070590Y-99977500D01*
%TO.C,C10*%
X119483600Y-120945020D02*
X119483600Y-121226180D01*
X118463600Y-120945020D02*
X118463600Y-121226180D01*
%TO.C,R13*%
X69866742Y-65772500D02*
X70341258Y-65772500D01*
X69866742Y-64727500D02*
X70341258Y-64727500D01*
%TO.C,R15*%
X120684058Y-130265900D02*
X120209542Y-130265900D01*
X120684058Y-131310900D02*
X120209542Y-131310900D01*
%TO.C,R5*%
X126262742Y-91022500D02*
X126737258Y-91022500D01*
X126262742Y-89977500D02*
X126737258Y-89977500D01*
%TO.C,R14*%
X130009942Y-131310900D02*
X130484458Y-131310900D01*
X130009942Y-130265900D02*
X130484458Y-130265900D01*
%TO.C,R19*%
X122665258Y-113226100D02*
X122190742Y-113226100D01*
X122665258Y-112181100D02*
X122190742Y-112181100D01*
%TO.C,U1*%
X68819600Y-144540400D02*
X68819600Y-138530400D01*
X75639600Y-138530400D02*
X74379600Y-138530400D01*
X68819600Y-138530400D02*
X70079600Y-138530400D01*
X75639600Y-142290400D02*
X75639600Y-138530400D01*
%TO.C,R6*%
X73262742Y-101022500D02*
X73737258Y-101022500D01*
X73262742Y-99977500D02*
X73737258Y-99977500D01*
%TO.C,R16*%
X120209542Y-129380500D02*
X120684058Y-129380500D01*
X120209542Y-128335500D02*
X120684058Y-128335500D01*
%TO.C,SW1*%
X117150000Y-141250000D02*
G75*
G03*
X117150000Y-141250000I-17150000J0D01*
G01*
%TO.C,Y1*%
X134430000Y-116685600D02*
X132430000Y-116685600D01*
X132030000Y-117885600D02*
X131630000Y-117885600D01*
X132430000Y-120485600D02*
X132030000Y-120485600D01*
X132430000Y-116885600D02*
X134430000Y-116885600D01*
X134430000Y-119685600D02*
X134430000Y-120485600D01*
X132030000Y-120485600D02*
X132030000Y-119685600D01*
X132030000Y-117885600D02*
X132030000Y-116885600D01*
X132430000Y-116885600D02*
X132030000Y-116885600D01*
X132430000Y-116685600D02*
X132030000Y-116685600D01*
X134430000Y-116885600D02*
X134430000Y-117885600D01*
X134430000Y-120485600D02*
X132430000Y-120485600D01*
%TO.C,C11*%
X127496180Y-150065200D02*
X127215020Y-150065200D01*
X127496180Y-149045200D02*
X127215020Y-149045200D01*
%TO.C,R1*%
X69022500Y-148387058D02*
X69022500Y-147912542D01*
X67977500Y-148387058D02*
X67977500Y-147912542D01*
%TO.C,R21*%
X69854542Y-72506300D02*
X70329058Y-72506300D01*
X69854542Y-73551300D02*
X70329058Y-73551300D01*
%TO.C,SW10*%
X126121600Y-165500000D02*
X130621600Y-165500000D01*
X130621600Y-159000000D02*
X126121600Y-159000000D01*
X124871600Y-161500000D02*
X124871600Y-163000000D01*
X131871600Y-163000000D02*
X131871600Y-161500000D01*
%TO.C,R20*%
X64015000Y-68991736D02*
X64015000Y-69445864D01*
X65485000Y-68991736D02*
X65485000Y-69445864D01*
%TO.C,C14*%
X120587380Y-135731600D02*
X120306220Y-135731600D01*
X120587380Y-136751600D02*
X120306220Y-136751600D01*
%TO.C,U3*%
X76486000Y-58275000D02*
X78436000Y-58275000D01*
X76486000Y-67145000D02*
X74536000Y-67145000D01*
X76486000Y-58275000D02*
X74536000Y-58275000D01*
X76486000Y-67145000D02*
X79936000Y-67145000D01*
%TO.C,R17*%
X130009942Y-129380500D02*
X130484458Y-129380500D01*
X130009942Y-128335500D02*
X130484458Y-128335500D01*
%TO.C,R3*%
X90929408Y-91022500D02*
X91403924Y-91022500D01*
X90929408Y-89977500D02*
X91403924Y-89977500D01*
%TO.C,J4*%
X103820000Y-165830000D02*
X103820000Y-164500000D01*
X106420000Y-163170000D02*
X119180000Y-163170000D01*
X105150000Y-165830000D02*
X103820000Y-165830000D01*
X119180000Y-165830000D02*
X119180000Y-163170000D01*
X106420000Y-165830000D02*
X119180000Y-165830000D01*
X106420000Y-165830000D02*
X106420000Y-163170000D01*
%TO.C,R2*%
X73262742Y-91022500D02*
X73737258Y-91022500D01*
X73262742Y-89977500D02*
X73737258Y-89977500D01*
%TD*%
M02*
