%TF.GenerationSoftware,KiCad,Pcbnew,(6.0.10)*%
%TF.CreationDate,2022-12-25T17:32:20-06:00*%
%TF.ProjectId,fluke_87v_clock_v1,666c756b-655f-4383-9776-5f636c6f636b,rev?*%
%TF.SameCoordinates,Original*%
%TF.FileFunction,Paste,Top*%
%TF.FilePolarity,Positive*%
%FSLAX46Y46*%
G04 Gerber Fmt 4.6, Leading zero omitted, Abs format (unit mm)*
G04 Created by KiCad (PCBNEW (6.0.10)) date 2022-12-25 17:32:20*
%MOMM*%
%LPD*%
G01*
G04 APERTURE LIST*
G04 Aperture macros list*
%AMRoundRect*
0 Rectangle with rounded corners*
0 $1 Rounding radius*
0 $2 $3 $4 $5 $6 $7 $8 $9 X,Y pos of 4 corners*
0 Add a 4 corners polygon primitive as box body*
4,1,4,$2,$3,$4,$5,$6,$7,$8,$9,$2,$3,0*
0 Add four circle primitives for the rounded corners*
1,1,$1+$1,$2,$3*
1,1,$1+$1,$4,$5*
1,1,$1+$1,$6,$7*
1,1,$1+$1,$8,$9*
0 Add four rect primitives between the rounded corners*
20,1,$1+$1,$2,$3,$4,$5,0*
20,1,$1+$1,$4,$5,$6,$7,0*
20,1,$1+$1,$6,$7,$8,$9,0*
20,1,$1+$1,$8,$9,$2,$3,0*%
%AMRotRect*
0 Rectangle, with rotation*
0 The origin of the aperture is its center*
0 $1 length*
0 $2 width*
0 $3 Rotation angle, in degrees counterclockwise*
0 Add horizontal line*
21,1,$1,$2,0,0,$3*%
G04 Aperture macros list end*
%ADD10RoundRect,0.225000X-0.225000X-0.250000X0.225000X-0.250000X0.225000X0.250000X-0.225000X0.250000X0*%
%ADD11RoundRect,0.150000X-0.587500X-0.150000X0.587500X-0.150000X0.587500X0.150000X-0.587500X0.150000X0*%
%ADD12RoundRect,0.200000X0.200000X0.275000X-0.200000X0.275000X-0.200000X-0.275000X0.200000X-0.275000X0*%
%ADD13RoundRect,0.150000X0.587500X0.150000X-0.587500X0.150000X-0.587500X-0.150000X0.587500X-0.150000X0*%
%ADD14RoundRect,0.250000X0.475000X-0.250000X0.475000X0.250000X-0.475000X0.250000X-0.475000X-0.250000X0*%
%ADD15RoundRect,0.250000X-0.475000X0.250000X-0.475000X-0.250000X0.475000X-0.250000X0.475000X0.250000X0*%
%ADD16RoundRect,0.218750X0.218750X0.256250X-0.218750X0.256250X-0.218750X-0.256250X0.218750X-0.256250X0*%
%ADD17RoundRect,0.225000X0.250000X-0.225000X0.250000X0.225000X-0.250000X0.225000X-0.250000X-0.225000X0*%
%ADD18RoundRect,0.200000X-0.200000X-0.275000X0.200000X-0.275000X0.200000X0.275000X-0.200000X0.275000X0*%
%ADD19RoundRect,0.200000X0.275000X-0.200000X0.275000X0.200000X-0.275000X0.200000X-0.275000X-0.200000X0*%
%ADD20R,1.600000X0.550000*%
%ADD21R,0.550000X1.600000*%
%ADD22RoundRect,0.150000X-0.875000X-0.150000X0.875000X-0.150000X0.875000X0.150000X-0.875000X0.150000X0*%
%ADD23RoundRect,0.225000X0.225000X0.250000X-0.225000X0.250000X-0.225000X-0.250000X0.225000X-0.250000X0*%
%ADD24RotRect,3.600000X2.600000X225.000000*%
%ADD25RoundRect,0.200000X0.700000X-0.400000X0.700000X0.400000X-0.700000X0.400000X-0.700000X-0.400000X0*%
%ADD26RotRect,1.200000X1.200000X45.000000*%
%ADD27RotRect,1.500000X1.600000X45.000000*%
%ADD28RoundRect,0.150000X-0.825000X-0.150000X0.825000X-0.150000X0.825000X0.150000X-0.825000X0.150000X0*%
%ADD29RoundRect,0.225000X-0.250000X0.225000X-0.250000X-0.225000X0.250000X-0.225000X0.250000X0.225000X0*%
%ADD30RoundRect,0.125000X-0.475000X0.125000X-0.475000X-0.125000X0.475000X-0.125000X0.475000X0.125000X0*%
%ADD31R,1.500000X2.000000*%
%ADD32R,3.800000X2.000000*%
%ADD33R,1.900000X0.400000*%
%ADD34RoundRect,0.250000X-0.450000X0.262500X-0.450000X-0.262500X0.450000X-0.262500X0.450000X0.262500X0*%
%ADD35RoundRect,0.150000X0.825000X0.150000X-0.825000X0.150000X-0.825000X-0.150000X0.825000X-0.150000X0*%
G04 APERTURE END LIST*
D10*
%TO.C,C13*%
X126580600Y-151253200D03*
X128130600Y-151253200D03*
%TD*%
D11*
%TO.C,Q1*%
X71000000Y-147199800D03*
X71000000Y-149099800D03*
X72875000Y-148149800D03*
%TD*%
D10*
%TO.C,C8*%
X75171000Y-69168000D03*
X76721000Y-69168000D03*
%TD*%
D12*
%TO.C,R22*%
X123456200Y-149555200D03*
X121806200Y-149555200D03*
%TD*%
D13*
%TO.C,D3*%
X117625100Y-130773200D03*
X117625100Y-128873200D03*
X115750100Y-129823200D03*
%TD*%
D14*
%TO.C,C2*%
X77309600Y-141390400D03*
X77309600Y-139490400D03*
%TD*%
D15*
%TO.C,C6*%
X133248400Y-121659600D03*
X133248400Y-123559600D03*
%TD*%
D16*
%TO.C,D1*%
X132562500Y-130788400D03*
X134137500Y-130788400D03*
%TD*%
D10*
%TO.C,C1*%
X76725000Y-146500000D03*
X78275000Y-146500000D03*
%TD*%
D17*
%TO.C,C4*%
X104952800Y-64101000D03*
X104952800Y-62551000D03*
%TD*%
D18*
%TO.C,R4*%
X109658332Y-90500000D03*
X108008332Y-90500000D03*
%TD*%
D12*
%TO.C,R12*%
X71030600Y-58900000D03*
X69380600Y-58900000D03*
%TD*%
D10*
%TO.C,C9*%
X75171000Y-71047600D03*
X76721000Y-71047600D03*
%TD*%
D19*
%TO.C,R7*%
X110591600Y-64151000D03*
X110591600Y-62501000D03*
%TD*%
D18*
%TO.C,R11*%
X127325000Y-100500000D03*
X125675000Y-100500000D03*
%TD*%
D20*
%TO.C,U4*%
X129980000Y-123885600D03*
X129980000Y-123085600D03*
X129980000Y-122285600D03*
X129980000Y-121485600D03*
X129980000Y-120685600D03*
X129980000Y-119885600D03*
X129980000Y-119085600D03*
X129980000Y-118285600D03*
D21*
X128530000Y-116835600D03*
X127730000Y-116835600D03*
X126930000Y-116835600D03*
X126130000Y-116835600D03*
X125330000Y-116835600D03*
X124530000Y-116835600D03*
X123730000Y-116835600D03*
X122930000Y-116835600D03*
D20*
X121480000Y-118285600D03*
X121480000Y-119085600D03*
X121480000Y-119885600D03*
X121480000Y-120685600D03*
X121480000Y-121485600D03*
X121480000Y-122285600D03*
X121480000Y-123085600D03*
X121480000Y-123885600D03*
D21*
X122930000Y-125335600D03*
X123730000Y-125335600D03*
X124530000Y-125335600D03*
X125330000Y-125335600D03*
X126130000Y-125335600D03*
X126930000Y-125335600D03*
X127730000Y-125335600D03*
X128530000Y-125335600D03*
%TD*%
D18*
%TO.C,R18*%
X79388200Y-73028800D03*
X81038200Y-73028800D03*
%TD*%
D22*
%TO.C,U6*%
X120350000Y-138555000D03*
X120350000Y-139825000D03*
X120350000Y-141095000D03*
X120350000Y-142365000D03*
X120350000Y-143635000D03*
X120350000Y-144905000D03*
X120350000Y-146175000D03*
X120350000Y-147445000D03*
X129650000Y-147445000D03*
X129650000Y-146175000D03*
X129650000Y-144905000D03*
X129650000Y-143635000D03*
X129650000Y-142365000D03*
X129650000Y-141095000D03*
X129650000Y-139825000D03*
X129650000Y-138555000D03*
%TD*%
D13*
%TO.C,Q2*%
X81150700Y-71083200D03*
X81150700Y-69183200D03*
X79275700Y-70133200D03*
%TD*%
D18*
%TO.C,R9*%
X91991666Y-100500000D03*
X90341666Y-100500000D03*
%TD*%
D13*
%TO.C,Q3*%
X70978500Y-71083200D03*
X70978500Y-69183200D03*
X69103500Y-70133200D03*
%TD*%
D23*
%TO.C,C7*%
X70929800Y-61440000D03*
X69379800Y-61440000D03*
%TD*%
D24*
%TO.C,BT1*%
X72878501Y-129621499D03*
X84050788Y-118449212D03*
%TD*%
D25*
%TO.C,D4*%
X64750000Y-66200000D03*
X64750000Y-63800000D03*
%TD*%
D17*
%TO.C,C5*%
X106832400Y-64101000D03*
X106832400Y-62551000D03*
%TD*%
D26*
%TO.C,RV1*%
X67520101Y-117315685D03*
D27*
X70525305Y-115724695D03*
D26*
X68934315Y-118729899D03*
%TD*%
D28*
%TO.C,U5*%
X122594600Y-153267400D03*
X122594600Y-154537400D03*
X122594600Y-155807400D03*
X122594600Y-157077400D03*
X127544600Y-157077400D03*
X127544600Y-155807400D03*
X127544600Y-154537400D03*
X127544600Y-153267400D03*
%TD*%
D29*
%TO.C,C12*%
X116840000Y-120310600D03*
X116840000Y-121860600D03*
%TD*%
D16*
%TO.C,D2*%
X132562500Y-128858000D03*
X134137500Y-128858000D03*
%TD*%
D15*
%TO.C,C3*%
X67098800Y-139490400D03*
X67098800Y-141390400D03*
%TD*%
D19*
%TO.C,R8*%
X108712000Y-64151000D03*
X108712000Y-62501000D03*
%TD*%
D30*
%TO.C,U2*%
X95400000Y-59000000D03*
X95400000Y-59800000D03*
X95400000Y-60600000D03*
X95400000Y-61400000D03*
X95400000Y-62200000D03*
X95400000Y-63000000D03*
X95400000Y-63800000D03*
X95400000Y-64600000D03*
X95400000Y-65400000D03*
X95400000Y-66200000D03*
X95400000Y-67000000D03*
X95400000Y-67800000D03*
X95400000Y-68600000D03*
X95400000Y-69400000D03*
X95400000Y-70200000D03*
X95400000Y-71000000D03*
X102600000Y-71000000D03*
X102600000Y-70200000D03*
X102600000Y-69400000D03*
X102600000Y-68600000D03*
X102600000Y-67800000D03*
X102600000Y-67000000D03*
X102600000Y-66200000D03*
X102600000Y-65400000D03*
X102600000Y-64600000D03*
X102600000Y-63800000D03*
X102600000Y-63000000D03*
X102600000Y-62200000D03*
X102600000Y-61400000D03*
X102600000Y-60600000D03*
X102600000Y-59800000D03*
X102600000Y-59000000D03*
%TD*%
D18*
%TO.C,R10*%
X109658332Y-100500000D03*
X108008332Y-100500000D03*
%TD*%
D29*
%TO.C,C10*%
X118973600Y-120310600D03*
X118973600Y-121860600D03*
%TD*%
D18*
%TO.C,R13*%
X69279000Y-65250000D03*
X70929000Y-65250000D03*
%TD*%
D12*
%TO.C,R15*%
X121271800Y-130788400D03*
X119621800Y-130788400D03*
%TD*%
D18*
%TO.C,R5*%
X127325000Y-90500000D03*
X125675000Y-90500000D03*
%TD*%
%TO.C,R14*%
X131072200Y-130788400D03*
X129422200Y-130788400D03*
%TD*%
D12*
%TO.C,R19*%
X123253000Y-112703600D03*
X121603000Y-112703600D03*
%TD*%
D31*
%TO.C,U1*%
X69929600Y-143590400D03*
X72229600Y-143590400D03*
D32*
X72229600Y-137290400D03*
D31*
X74529600Y-143590400D03*
%TD*%
D18*
%TO.C,R6*%
X74325000Y-100500000D03*
X72675000Y-100500000D03*
%TD*%
%TO.C,R16*%
X119621800Y-128858000D03*
X121271800Y-128858000D03*
%TD*%
D33*
%TO.C,Y1*%
X133230000Y-117485600D03*
X133230000Y-118685600D03*
X133230000Y-119885600D03*
%TD*%
D23*
%TO.C,C11*%
X126580600Y-149555200D03*
X128130600Y-149555200D03*
%TD*%
D19*
%TO.C,R1*%
X68500000Y-148974800D03*
X68500000Y-147324800D03*
%TD*%
D18*
%TO.C,R21*%
X69266800Y-73028800D03*
X70916800Y-73028800D03*
%TD*%
D34*
%TO.C,R20*%
X64750000Y-68306300D03*
X64750000Y-70131300D03*
%TD*%
D23*
%TO.C,C14*%
X121221800Y-136241600D03*
X119671800Y-136241600D03*
%TD*%
D35*
%TO.C,U3*%
X78961000Y-66520000D03*
X78961000Y-65250000D03*
X78961000Y-63980000D03*
X78961000Y-62710000D03*
X78961000Y-61440000D03*
X78961000Y-60170000D03*
X78961000Y-58900000D03*
X74011000Y-58900000D03*
X74011000Y-60170000D03*
X74011000Y-61440000D03*
X74011000Y-62710000D03*
X74011000Y-63980000D03*
X74011000Y-65250000D03*
X74011000Y-66520000D03*
%TD*%
D18*
%TO.C,R17*%
X129422200Y-128858000D03*
X131072200Y-128858000D03*
%TD*%
%TO.C,R3*%
X91991666Y-90500000D03*
X90341666Y-90500000D03*
%TD*%
%TO.C,R2*%
X74325000Y-90500000D03*
X72675000Y-90500000D03*
%TD*%
M02*
