%TF.GenerationSoftware,KiCad,Pcbnew,(6.0.10)*%
%TF.CreationDate,2022-12-25T17:32:20-06:00*%
%TF.ProjectId,fluke_87v_clock_v1,666c756b-655f-4383-9776-5f636c6f636b,rev?*%
%TF.SameCoordinates,Original*%
%TF.FileFunction,Soldermask,Top*%
%TF.FilePolarity,Negative*%
%FSLAX46Y46*%
G04 Gerber Fmt 4.6, Leading zero omitted, Abs format (unit mm)*
G04 Created by KiCad (PCBNEW (6.0.10)) date 2022-12-25 17:32:20*
%MOMM*%
%LPD*%
G01*
G04 APERTURE LIST*
G04 Aperture macros list*
%AMRoundRect*
0 Rectangle with rounded corners*
0 $1 Rounding radius*
0 $2 $3 $4 $5 $6 $7 $8 $9 X,Y pos of 4 corners*
0 Add a 4 corners polygon primitive as box body*
4,1,4,$2,$3,$4,$5,$6,$7,$8,$9,$2,$3,0*
0 Add four circle primitives for the rounded corners*
1,1,$1+$1,$2,$3*
1,1,$1+$1,$4,$5*
1,1,$1+$1,$6,$7*
1,1,$1+$1,$8,$9*
0 Add four rect primitives between the rounded corners*
20,1,$1+$1,$2,$3,$4,$5,0*
20,1,$1+$1,$4,$5,$6,$7,0*
20,1,$1+$1,$6,$7,$8,$9,0*
20,1,$1+$1,$8,$9,$2,$3,0*%
%AMRotRect*
0 Rectangle, with rotation*
0 The origin of the aperture is its center*
0 $1 length*
0 $2 width*
0 $3 Rotation angle, in degrees counterclockwise*
0 Add horizontal line*
21,1,$1,$2,0,0,$3*%
%AMFreePoly0*
4,1,149,14.232703,13.980813,14.963398,13.923307,15.690083,13.827637,16.410764,13.694066,17.123467,13.522962,17.826238,13.314791,18.517151,13.070126,19.194313,12.789636,19.855867,12.474091,20.500000,12.124356,21.124946,11.741388,21.728994,11.326238,22.310485,10.880043,22.867828,10.404028,23.399495,9.899495,23.904028,9.367828,24.380043,8.810485,24.826238,8.228994,25.241388,7.624946,25.624356,7.000000,
25.974091,6.355867,26.289636,5.694313,26.570126,5.017151,26.814791,4.326238,27.022962,3.623467,27.194066,2.910764,27.327637,2.190083,27.423307,1.463398,27.480813,0.732703,27.500000,0.000000,27.499851,-0.012216,27.476331,-0.152017,27.414519,-0.279596,27.319384,-0.384700,27.198574,-0.458877,27.061801,-0.496166,26.920059,-0.493568,26.784744,-0.451293,26.666734,-0.372738,26.575514,-0.264219,
26.518419,-0.134460,26.500037,0.006109,26.503927,0.031090,26.485696,0.704064,26.428534,1.406063,26.333451,2.103937,26.200725,2.795641,26.030745,3.479144,25.824011,4.152443,25.581128,4.813561,25.302809,5.460561,24.989870,6.091544,24.643230,6.704659,24.263904,7.298108,23.853006,7.870151,23.411741,8.419109,22.941404,8.943373,22.443373,9.441404,21.919109,9.911741,21.370151,10.353006,
20.798108,10.763904,20.204659,11.143230,19.591544,11.489870,18.960561,11.802809,18.313561,12.081128,17.652443,12.324011,16.979144,12.530745,16.295641,12.700725,15.603937,12.833451,14.906063,12.928534,14.204064,12.985696,13.500000,13.004769,12.795936,12.985696,12.093937,12.928534,11.396063,12.833451,10.704359,12.700725,10.020856,12.530745,9.347557,12.324011,8.686439,12.081128,8.039439,11.802809,
7.408456,11.489870,6.795341,11.143230,6.201892,10.763904,5.629849,10.353006,5.080891,9.911741,4.556627,9.441404,4.058596,8.943373,3.588259,8.419109,3.146994,7.870151,2.736096,7.298108,2.356770,6.704659,2.010130,6.091544,1.697191,5.460561,1.418872,4.813561,1.175989,4.152443,0.969255,3.479144,0.799275,2.795641,0.666549,2.103937,0.571466,1.406063,0.514304,0.704064,
0.495990,0.028004,0.500000,0.000000,0.499851,-0.012216,0.476331,-0.152017,0.414519,-0.279596,0.319384,-0.384700,0.198574,-0.458877,0.061801,-0.496166,-0.079941,-0.493568,-0.215256,-0.451293,-0.333266,-0.372738,-0.424486,-0.264219,-0.481581,-0.134460,-0.499164,0.000000,-0.500000,0.000000,-0.499861,0.005326,-0.499963,0.006109,-0.499815,0.007058,-0.480813,0.732703,-0.423307,1.463398,
-0.327637,2.190083,-0.194066,2.910764,-0.022962,3.623467,0.185209,4.326238,0.429874,5.017151,0.710364,5.694313,1.025909,6.355867,1.375644,7.000000,1.758612,7.624946,2.173762,8.228994,2.619957,8.810485,3.095972,9.367828,3.600505,9.899495,4.132172,10.404028,4.689515,10.880043,5.271006,11.326238,5.875054,11.741388,6.500000,12.124356,7.144133,12.474091,7.805687,12.789636,
8.482849,13.070126,9.173762,13.314791,9.876533,13.522962,10.589236,13.694066,11.309917,13.827637,12.036602,13.923307,12.767297,13.980813,13.500000,14.000000,14.232703,13.980813,14.232703,13.980813,$1*%
%AMFreePoly1*
4,1,124,9.088628,8.980730,9.674736,8.923004,10.255813,8.827068,10.829371,8.693332,11.392955,8.522371,11.944151,8.314916,12.480598,8.071855,13.000000,7.794229,13.500132,7.483227,13.978853,7.140180,14.434112,6.766558,14.863961,6.363961,15.266558,5.934112,15.640180,5.478853,15.983227,5.000132,16.294229,4.500000,16.571855,3.980598,16.814916,3.444151,17.022371,2.892955,17.193332,2.329371,
17.327068,1.755813,17.423004,1.174736,17.480730,0.588628,17.500000,0.000000,17.499851,-0.012216,17.476331,-0.152017,17.414519,-0.279596,17.319384,-0.384700,17.198574,-0.458877,17.061801,-0.496166,16.920059,-0.493568,16.784744,-0.451293,16.666734,-0.372738,16.575514,-0.264219,16.518419,-0.134460,16.500037,0.006109,16.503815,0.030375,16.485377,0.558392,16.426973,1.114063,16.329950,1.664307,
16.194781,2.206443,16.022123,2.737829,15.812818,3.255876,15.567886,3.758062,15.288520,4.241938,14.976081,4.705148,14.632091,5.145435,14.258226,5.560654,13.856308,5.948782,13.428294,6.307928,12.976270,6.636343,12.502438,6.932426,12.009107,7.194735,11.498679,7.421992,10.973643,7.613089,10.436555,7.767097,9.890032,7.883264,9.336737,7.961024,8.779366,8.000000,8.220634,8.000000,
7.663263,7.961024,7.109968,7.883264,6.563445,7.767097,6.026357,7.613089,5.501321,7.421992,4.990893,7.194735,4.497562,6.932426,4.023730,6.636343,3.571706,6.307928,3.143692,5.948782,2.741774,5.560654,2.367909,5.145435,2.023919,4.705148,1.711480,4.241938,1.432114,3.758062,1.187182,3.255876,0.977877,2.737829,0.805219,2.206443,0.670050,1.664307,0.573027,1.114063,
0.514623,0.558392,0.496080,0.027373,0.500000,0.000000,0.499851,-0.012216,0.476331,-0.152017,0.414519,-0.279596,0.319384,-0.384700,0.198574,-0.458877,0.061801,-0.496166,-0.079941,-0.493568,-0.215256,-0.451293,-0.333266,-0.372738,-0.424486,-0.264219,-0.481581,-0.134460,-0.499164,0.000000,-0.500000,0.000000,-0.499833,0.005112,-0.499963,0.006109,-0.499757,0.007434,-0.480730,0.588628,
-0.423004,1.174736,-0.327068,1.755813,-0.193332,2.329371,-0.022371,2.892955,0.185084,3.444151,0.428145,3.980598,0.705771,4.500000,1.016773,5.000132,1.359820,5.478853,1.733442,5.934112,2.136039,6.363961,2.565888,6.766558,3.021147,7.140180,3.499868,7.483227,4.000000,7.794229,4.519402,8.071855,5.055849,8.314916,5.607045,8.522371,6.170629,8.693332,6.744187,8.827068,
7.325264,8.923004,7.911372,8.980730,8.500000,9.000000,9.088628,8.980730,9.088628,8.980730,$1*%
G04 Aperture macros list end*
%ADD10C,0.120000*%
%ADD11RoundRect,0.225000X-0.225000X-0.250000X0.225000X-0.250000X0.225000X0.250000X-0.225000X0.250000X0*%
%ADD12RoundRect,0.150000X-0.587500X-0.150000X0.587500X-0.150000X0.587500X0.150000X-0.587500X0.150000X0*%
%ADD13RoundRect,0.200000X0.200000X0.275000X-0.200000X0.275000X-0.200000X-0.275000X0.200000X-0.275000X0*%
%ADD14RoundRect,0.150000X0.587500X0.150000X-0.587500X0.150000X-0.587500X-0.150000X0.587500X-0.150000X0*%
%ADD15RoundRect,0.250000X0.475000X-0.250000X0.475000X0.250000X-0.475000X0.250000X-0.475000X-0.250000X0*%
%ADD16RoundRect,0.200000X0.550000X1.300000X-0.550000X1.300000X-0.550000X-1.300000X0.550000X-1.300000X0*%
%ADD17RoundRect,0.250000X-0.475000X0.250000X-0.475000X-0.250000X0.475000X-0.250000X0.475000X0.250000X0*%
%ADD18R,1.700000X1.700000*%
%ADD19O,1.700000X1.700000*%
%ADD20RoundRect,0.218750X0.218750X0.256250X-0.218750X0.256250X-0.218750X-0.256250X0.218750X-0.256250X0*%
%ADD21RoundRect,0.225000X0.250000X-0.225000X0.250000X0.225000X-0.250000X0.225000X-0.250000X-0.225000X0*%
%ADD22RoundRect,0.200000X-0.200000X-0.275000X0.200000X-0.275000X0.200000X0.275000X-0.200000X0.275000X0*%
%ADD23RoundRect,0.200000X0.275000X-0.200000X0.275000X0.200000X-0.275000X0.200000X-0.275000X-0.200000X0*%
%ADD24R,1.600000X0.550000*%
%ADD25R,0.550000X1.600000*%
%ADD26RoundRect,0.150000X-0.875000X-0.150000X0.875000X-0.150000X0.875000X0.150000X-0.875000X0.150000X0*%
%ADD27R,1.000000X2.500000*%
%ADD28RoundRect,0.225000X0.225000X0.250000X-0.225000X0.250000X-0.225000X-0.250000X0.225000X-0.250000X0*%
%ADD29R,1.000000X1.500000*%
%ADD30C,1.300000*%
%ADD31C,1.000000*%
%ADD32RotRect,3.600000X2.600000X225.000000*%
%ADD33RoundRect,0.200000X0.700000X-0.400000X0.700000X0.400000X-0.700000X0.400000X-0.700000X-0.400000X0*%
%ADD34RotRect,1.200000X1.200000X45.000000*%
%ADD35RotRect,1.500000X1.600000X45.000000*%
%ADD36RoundRect,0.150000X-0.825000X-0.150000X0.825000X-0.150000X0.825000X0.150000X-0.825000X0.150000X0*%
%ADD37RoundRect,0.225000X-0.250000X0.225000X-0.250000X-0.225000X0.250000X-0.225000X0.250000X0.225000X0*%
%ADD38R,4.600000X2.000000*%
%ADD39O,4.200000X2.000000*%
%ADD40O,2.000000X4.200000*%
%ADD41RoundRect,0.125000X-0.475000X0.125000X-0.475000X-0.125000X0.475000X-0.125000X0.475000X0.125000X0*%
%ADD42R,1.500000X2.000000*%
%ADD43R,3.800000X2.000000*%
%ADD44C,7.000000*%
%ADD45FreePoly0,0.000000*%
%ADD46FreePoly1,0.000000*%
%ADD47R,1.900000X0.400000*%
%ADD48C,2.000000*%
%ADD49RoundRect,0.250000X-0.450000X0.262500X-0.450000X-0.262500X0.450000X-0.262500X0.450000X0.262500X0*%
%ADD50RoundRect,0.150000X0.825000X0.150000X-0.825000X0.150000X-0.825000X-0.150000X0.825000X-0.150000X0*%
G04 APERTURE END LIST*
D10*
%TO.C,SW8*%
X110733332Y-105400000D02*
X106933332Y-105400000D01*
X106933332Y-105400000D02*
X106933332Y-102100000D01*
X106933332Y-102100000D02*
X110733332Y-102100000D01*
X110733332Y-102100000D02*
X110733332Y-105400000D01*
G36*
X110733332Y-105400000D02*
G01*
X106933332Y-105400000D01*
X106933332Y-102100000D01*
X110733332Y-102100000D01*
X110733332Y-105400000D01*
G37*
%TO.C,SW6*%
X75400000Y-105400000D02*
X71600000Y-105400000D01*
X71600000Y-105400000D02*
X71600000Y-102100000D01*
X71600000Y-102100000D02*
X75400000Y-102100000D01*
X75400000Y-102100000D02*
X75400000Y-105400000D01*
G36*
X75400000Y-105400000D02*
G01*
X71600000Y-105400000D01*
X71600000Y-102100000D01*
X75400000Y-102100000D01*
X75400000Y-105400000D01*
G37*
%TO.C,SW5*%
X128400000Y-95400000D02*
X124600000Y-95400000D01*
X124600000Y-95400000D02*
X124600000Y-92100000D01*
X124600000Y-92100000D02*
X128400000Y-92100000D01*
X128400000Y-92100000D02*
X128400000Y-95400000D01*
G36*
X128400000Y-95400000D02*
G01*
X124600000Y-95400000D01*
X124600000Y-92100000D01*
X128400000Y-92100000D01*
X128400000Y-95400000D01*
G37*
%TO.C,SW2*%
X75400000Y-95400000D02*
X71600000Y-95400000D01*
X71600000Y-95400000D02*
X71600000Y-92100000D01*
X71600000Y-92100000D02*
X75400000Y-92100000D01*
X75400000Y-92100000D02*
X75400000Y-95400000D01*
G36*
X75400000Y-95400000D02*
G01*
X71600000Y-95400000D01*
X71600000Y-92100000D01*
X75400000Y-92100000D01*
X75400000Y-95400000D01*
G37*
%TO.C,SW3*%
X93066666Y-95400000D02*
X89266666Y-95400000D01*
X89266666Y-95400000D02*
X89266666Y-92100000D01*
X89266666Y-92100000D02*
X93066666Y-92100000D01*
X93066666Y-92100000D02*
X93066666Y-95400000D01*
G36*
X93066666Y-95400000D02*
G01*
X89266666Y-95400000D01*
X89266666Y-92100000D01*
X93066666Y-92100000D01*
X93066666Y-95400000D01*
G37*
%TO.C,SW7*%
X93066666Y-105400000D02*
X89266666Y-105400000D01*
X89266666Y-105400000D02*
X89266666Y-102100000D01*
X89266666Y-102100000D02*
X93066666Y-102100000D01*
X93066666Y-102100000D02*
X93066666Y-105400000D01*
G36*
X93066666Y-105400000D02*
G01*
X89266666Y-105400000D01*
X89266666Y-102100000D01*
X93066666Y-102100000D01*
X93066666Y-105400000D01*
G37*
%TO.C,SW4*%
X110733332Y-95400000D02*
X106933332Y-95400000D01*
X106933332Y-95400000D02*
X106933332Y-92100000D01*
X106933332Y-92100000D02*
X110733332Y-92100000D01*
X110733332Y-92100000D02*
X110733332Y-95400000D01*
G36*
X110733332Y-95400000D02*
G01*
X106933332Y-95400000D01*
X106933332Y-92100000D01*
X110733332Y-92100000D01*
X110733332Y-95400000D01*
G37*
%TO.C,SW9*%
X128400000Y-105400000D02*
X124600000Y-105400000D01*
X124600000Y-105400000D02*
X124600000Y-102100000D01*
X124600000Y-102100000D02*
X128400000Y-102100000D01*
X128400000Y-102100000D02*
X128400000Y-105400000D01*
G36*
X128400000Y-105400000D02*
G01*
X124600000Y-105400000D01*
X124600000Y-102100000D01*
X128400000Y-102100000D01*
X128400000Y-105400000D01*
G37*
%TD*%
D11*
%TO.C,C13*%
X126580600Y-151253200D03*
X128130600Y-151253200D03*
%TD*%
D12*
%TO.C,Q1*%
X71000000Y-147199800D03*
X71000000Y-149099800D03*
X72875000Y-148149800D03*
%TD*%
D11*
%TO.C,C8*%
X75171000Y-69168000D03*
X76721000Y-69168000D03*
%TD*%
D13*
%TO.C,R22*%
X123456200Y-149555200D03*
X121806200Y-149555200D03*
%TD*%
D14*
%TO.C,D3*%
X117625100Y-130773200D03*
X117625100Y-128873200D03*
X115750100Y-129823200D03*
%TD*%
D15*
%TO.C,C2*%
X77309600Y-141390400D03*
X77309600Y-139490400D03*
%TD*%
D16*
%TO.C,SW8*%
X109833332Y-103750000D03*
X107833332Y-103750000D03*
%TD*%
D17*
%TO.C,C6*%
X133248400Y-121659600D03*
X133248400Y-123559600D03*
%TD*%
D18*
%TO.C,J5*%
X113588800Y-113973600D03*
D19*
X113588800Y-111433600D03*
X116128800Y-113973600D03*
X116128800Y-111433600D03*
X118668800Y-113973600D03*
X118668800Y-111433600D03*
%TD*%
D20*
%TO.C,D1*%
X132562500Y-130788400D03*
X134137500Y-130788400D03*
%TD*%
D11*
%TO.C,C1*%
X76725000Y-146500000D03*
X78275000Y-146500000D03*
%TD*%
D21*
%TO.C,C4*%
X104952800Y-64101000D03*
X104952800Y-62551000D03*
%TD*%
D22*
%TO.C,R4*%
X109658332Y-90500000D03*
X108008332Y-90500000D03*
%TD*%
D13*
%TO.C,R12*%
X71030600Y-58900000D03*
X69380600Y-58900000D03*
%TD*%
D11*
%TO.C,C9*%
X75171000Y-71047600D03*
X76721000Y-71047600D03*
%TD*%
D23*
%TO.C,R7*%
X110591600Y-64151000D03*
X110591600Y-62501000D03*
%TD*%
D22*
%TO.C,R11*%
X127325000Y-100500000D03*
X125675000Y-100500000D03*
%TD*%
D24*
%TO.C,U4*%
X129980000Y-123885600D03*
X129980000Y-123085600D03*
X129980000Y-122285600D03*
X129980000Y-121485600D03*
X129980000Y-120685600D03*
X129980000Y-119885600D03*
X129980000Y-119085600D03*
X129980000Y-118285600D03*
D25*
X128530000Y-116835600D03*
X127730000Y-116835600D03*
X126930000Y-116835600D03*
X126130000Y-116835600D03*
X125330000Y-116835600D03*
X124530000Y-116835600D03*
X123730000Y-116835600D03*
X122930000Y-116835600D03*
D24*
X121480000Y-118285600D03*
X121480000Y-119085600D03*
X121480000Y-119885600D03*
X121480000Y-120685600D03*
X121480000Y-121485600D03*
X121480000Y-122285600D03*
X121480000Y-123085600D03*
X121480000Y-123885600D03*
D25*
X122930000Y-125335600D03*
X123730000Y-125335600D03*
X124530000Y-125335600D03*
X125330000Y-125335600D03*
X126130000Y-125335600D03*
X126930000Y-125335600D03*
X127730000Y-125335600D03*
X128530000Y-125335600D03*
%TD*%
D22*
%TO.C,R18*%
X79388200Y-73028800D03*
X81038200Y-73028800D03*
%TD*%
D26*
%TO.C,U6*%
X120350000Y-138555000D03*
X120350000Y-139825000D03*
X120350000Y-141095000D03*
X120350000Y-142365000D03*
X120350000Y-143635000D03*
X120350000Y-144905000D03*
X120350000Y-146175000D03*
X120350000Y-147445000D03*
X129650000Y-147445000D03*
X129650000Y-146175000D03*
X129650000Y-144905000D03*
X129650000Y-143635000D03*
X129650000Y-142365000D03*
X129650000Y-141095000D03*
X129650000Y-139825000D03*
X129650000Y-138555000D03*
%TD*%
D14*
%TO.C,Q2*%
X81150700Y-71083200D03*
X81150700Y-69183200D03*
X79275700Y-70133200D03*
%TD*%
D27*
%TO.C,J3*%
X119000000Y-46750000D03*
X117000000Y-46750000D03*
X115000000Y-46750000D03*
X113000000Y-46750000D03*
X111000000Y-46750000D03*
X109000000Y-46750000D03*
X107000000Y-46750000D03*
X105000000Y-46750000D03*
X103000000Y-46750000D03*
X101000000Y-46750000D03*
X99000000Y-46750000D03*
X97000000Y-46750000D03*
X95000000Y-46750000D03*
X93000000Y-46750000D03*
X91000000Y-46750000D03*
X89000000Y-46750000D03*
X87000000Y-46750000D03*
X85000000Y-46750000D03*
X83000000Y-46750000D03*
X81000000Y-46750000D03*
X81000000Y-83250000D03*
X83000000Y-83250000D03*
X85000000Y-83250000D03*
X87000000Y-83250000D03*
X89000000Y-83250000D03*
X91000000Y-83250000D03*
X93000000Y-83250000D03*
X95000000Y-83250000D03*
X97000000Y-83250000D03*
X99000000Y-83250000D03*
X101000000Y-83250000D03*
X103000000Y-83250000D03*
X105000000Y-83250000D03*
X107000000Y-83250000D03*
X109000000Y-83250000D03*
X111000000Y-83250000D03*
X113000000Y-83250000D03*
X115000000Y-83250000D03*
X117000000Y-83250000D03*
X119000000Y-83250000D03*
%TD*%
D16*
%TO.C,SW6*%
X74500000Y-103750000D03*
X72500000Y-103750000D03*
%TD*%
D22*
%TO.C,R9*%
X91991666Y-100500000D03*
X90341666Y-100500000D03*
%TD*%
D14*
%TO.C,Q3*%
X70978500Y-71083200D03*
X70978500Y-69183200D03*
X69103500Y-70133200D03*
%TD*%
D28*
%TO.C,C7*%
X70929800Y-61440000D03*
X69379800Y-61440000D03*
%TD*%
D19*
%TO.C,J6*%
X115275200Y-156057600D03*
D18*
X117815200Y-156057600D03*
%TD*%
D29*
%TO.C,JP1*%
X113812800Y-67523100D03*
X115112800Y-67523100D03*
X116412800Y-67523100D03*
%TD*%
D16*
%TO.C,SW5*%
X127500000Y-93750000D03*
X125500000Y-93750000D03*
%TD*%
D30*
%TO.C,BT1*%
X75848350Y-126651650D03*
D31*
X81151650Y-121348350D03*
D32*
X72878501Y-129621499D03*
X84050788Y-118449212D03*
%TD*%
D33*
%TO.C,D4*%
X64750000Y-66200000D03*
X64750000Y-63800000D03*
%TD*%
D18*
%TO.C,J2*%
X82000000Y-164500000D03*
D19*
X79460000Y-164500000D03*
%TD*%
D21*
%TO.C,C5*%
X106832400Y-64101000D03*
X106832400Y-62551000D03*
%TD*%
D34*
%TO.C,RV1*%
X67520101Y-117315685D03*
D35*
X70525305Y-115724695D03*
D34*
X68934315Y-118729899D03*
%TD*%
D36*
%TO.C,U5*%
X122594600Y-153267400D03*
X122594600Y-154537400D03*
X122594600Y-155807400D03*
X122594600Y-157077400D03*
X127544600Y-157077400D03*
X127544600Y-155807400D03*
X127544600Y-154537400D03*
X127544600Y-153267400D03*
%TD*%
D16*
%TO.C,SW2*%
X74500000Y-93750000D03*
X72500000Y-93750000D03*
%TD*%
D37*
%TO.C,C12*%
X116840000Y-120310600D03*
X116840000Y-121860600D03*
%TD*%
D20*
%TO.C,D2*%
X132562500Y-128858000D03*
X134137500Y-128858000D03*
%TD*%
D38*
%TO.C,J1*%
X71000000Y-152800000D03*
D39*
X71000000Y-159100000D03*
D40*
X75800000Y-155700000D03*
%TD*%
D17*
%TO.C,C3*%
X67098800Y-139490400D03*
X67098800Y-141390400D03*
%TD*%
D23*
%TO.C,R8*%
X108712000Y-64151000D03*
X108712000Y-62501000D03*
%TD*%
D16*
%TO.C,SW3*%
X92166666Y-93750000D03*
X90166666Y-93750000D03*
%TD*%
D41*
%TO.C,U2*%
X95400000Y-59000000D03*
X95400000Y-59800000D03*
X95400000Y-60600000D03*
X95400000Y-61400000D03*
X95400000Y-62200000D03*
X95400000Y-63000000D03*
X95400000Y-63800000D03*
X95400000Y-64600000D03*
X95400000Y-65400000D03*
X95400000Y-66200000D03*
X95400000Y-67000000D03*
X95400000Y-67800000D03*
X95400000Y-68600000D03*
X95400000Y-69400000D03*
X95400000Y-70200000D03*
X95400000Y-71000000D03*
X102600000Y-71000000D03*
X102600000Y-70200000D03*
X102600000Y-69400000D03*
X102600000Y-68600000D03*
X102600000Y-67800000D03*
X102600000Y-67000000D03*
X102600000Y-66200000D03*
X102600000Y-65400000D03*
X102600000Y-64600000D03*
X102600000Y-63800000D03*
X102600000Y-63000000D03*
X102600000Y-62200000D03*
X102600000Y-61400000D03*
X102600000Y-60600000D03*
X102600000Y-59800000D03*
X102600000Y-59000000D03*
%TD*%
D22*
%TO.C,R10*%
X109658332Y-100500000D03*
X108008332Y-100500000D03*
%TD*%
D37*
%TO.C,C10*%
X118973600Y-120310600D03*
X118973600Y-121860600D03*
%TD*%
D22*
%TO.C,R13*%
X69279000Y-65250000D03*
X70929000Y-65250000D03*
%TD*%
D13*
%TO.C,R15*%
X121271800Y-130788400D03*
X119621800Y-130788400D03*
%TD*%
D22*
%TO.C,R5*%
X127325000Y-90500000D03*
X125675000Y-90500000D03*
%TD*%
D16*
%TO.C,SW7*%
X92166666Y-103750000D03*
X90166666Y-103750000D03*
%TD*%
D22*
%TO.C,R14*%
X131072200Y-130788400D03*
X129422200Y-130788400D03*
%TD*%
D13*
%TO.C,R19*%
X123253000Y-112703600D03*
X121603000Y-112703600D03*
%TD*%
D42*
%TO.C,U1*%
X69929600Y-143590400D03*
X72229600Y-143590400D03*
D43*
X72229600Y-137290400D03*
D42*
X74529600Y-143590400D03*
%TD*%
D22*
%TO.C,R6*%
X74325000Y-100500000D03*
X72675000Y-100500000D03*
%TD*%
%TO.C,R16*%
X119621800Y-128858000D03*
X121271800Y-128858000D03*
%TD*%
D44*
%TO.C,SW1*%
X100000000Y-141250000D03*
D45*
X86500000Y-141250000D03*
D31*
X108500000Y-141250000D03*
D46*
X91500000Y-141250000D03*
%TD*%
D47*
%TO.C,Y1*%
X133230000Y-117485600D03*
X133230000Y-118685600D03*
X133230000Y-119885600D03*
%TD*%
D28*
%TO.C,C11*%
X126580600Y-149555200D03*
X128130600Y-149555200D03*
%TD*%
D23*
%TO.C,R1*%
X68500000Y-148974800D03*
X68500000Y-147324800D03*
%TD*%
D22*
%TO.C,R21*%
X69266800Y-73028800D03*
X70916800Y-73028800D03*
%TD*%
D48*
%TO.C,SW10*%
X131621600Y-160000000D03*
X125121600Y-160000000D03*
X131621600Y-164500000D03*
X125121600Y-164500000D03*
%TD*%
D49*
%TO.C,R20*%
X64750000Y-68306300D03*
X64750000Y-70131300D03*
%TD*%
D28*
%TO.C,C14*%
X121221800Y-136241600D03*
X119671800Y-136241600D03*
%TD*%
D50*
%TO.C,U3*%
X78961000Y-66520000D03*
X78961000Y-65250000D03*
X78961000Y-63980000D03*
X78961000Y-62710000D03*
X78961000Y-61440000D03*
X78961000Y-60170000D03*
X78961000Y-58900000D03*
X74011000Y-58900000D03*
X74011000Y-60170000D03*
X74011000Y-61440000D03*
X74011000Y-62710000D03*
X74011000Y-63980000D03*
X74011000Y-65250000D03*
X74011000Y-66520000D03*
%TD*%
D22*
%TO.C,R17*%
X129422200Y-128858000D03*
X131072200Y-128858000D03*
%TD*%
D16*
%TO.C,SW4*%
X109833332Y-93750000D03*
X107833332Y-93750000D03*
%TD*%
D22*
%TO.C,R3*%
X91991666Y-90500000D03*
X90341666Y-90500000D03*
%TD*%
D16*
%TO.C,SW9*%
X127500000Y-103750000D03*
X125500000Y-103750000D03*
%TD*%
D18*
%TO.C,J4*%
X105150000Y-164500000D03*
D19*
X107690000Y-164500000D03*
X110230000Y-164500000D03*
X112770000Y-164500000D03*
X115310000Y-164500000D03*
X117850000Y-164500000D03*
%TD*%
D22*
%TO.C,R2*%
X74325000Y-90500000D03*
X72675000Y-90500000D03*
%TD*%
M02*
