M48
; DRILL file {KiCad (6.0.10)} date Sun Dec 25 17:32:22 2022
; FORMAT={-:-/ absolute / inch / decimal}
; #@! TF.CreationDate,2022-12-25T17:32:22-06:00
; #@! TF.GenerationSoftware,Kicad,Pcbnew,(6.0.10)
; #@! TF.FileFunction,Plated,1,2,PTH
FMAT,2
INCH
; #@! TA.AperFunction,Plated,PTH,ViaDrill
T1C0.0157
; #@! TA.AperFunction,Plated,PTH,ComponentDrill
T2C0.0394
; #@! TA.AperFunction,Plated,PTH,ComponentDrill
T3C0.0433
; #@! TA.AperFunction,Plated,PTH,ComponentDrill
T4C0.2441
%
G90
G05
T1
X2.616Y-4.6611
X2.626Y-5.6131
X2.658Y-5.6131
X2.67Y-3.4431
X2.68Y-2.8751
X2.68Y-2.9891
X2.736Y-5.5871
X2.756Y-3.4431
X2.77Y-5.5871
X2.7756Y-3.6909
X2.7756Y-4.0846
X2.7953Y-5.8327
X2.838Y-2.8751
X2.854Y-2.7237
X3.028Y-5.4451
X3.06Y-5.4451
X3.066Y-2.7231
X3.066Y-2.7971
X3.128Y-5.7677
X3.178Y-2.4689
X3.234Y-2.8731
X3.252Y-2.7231
X3.262Y-2.5691
X3.378Y-4.5951
X3.4055Y-5.6111
X3.4711Y-3.6909
X3.4711Y-4.0846
X3.6024Y-5.6102
X3.99Y-2.4791
X4.086Y-2.4491
X4.086Y-2.5111
X4.1339Y-2.2835
X4.1339Y-2.6378
X4.1667Y-3.6909
X4.1667Y-4.0846
X4.2717Y-5.6102
X4.3701Y-3.1693
X4.4094Y-2.3858
X4.4094Y-2.4607
X4.4808Y-2.734
X4.4867Y-4.6884
X4.4867Y-4.9891
X4.544Y-4.7977
X4.5571Y-5.0671
X4.6309Y-5.1951
X4.664Y-5.3638
X4.668Y-5.8049
X4.685Y-3.1693
X4.754Y-5.0271
X4.759Y-6.184
X4.784Y-4.9378
X4.7875Y-4.4871
X4.826Y-5.196
X4.8394Y-4.7826
X4.8605Y-5.8424
X4.8622Y-3.6909
X4.8622Y-4.0846
X4.8713Y-5.0138
X4.9028Y-4.8799
X4.9343Y-4.8451
X4.938Y-5.5551
X4.9657Y-4.8091
X4.9835Y-5.8429
X5.032Y-5.6049
X5.058Y-4.8146
X5.088Y-5.9549
X5.094Y-6.07
X5.0954Y-5.196
X5.098Y-4.9551
X5.132Y-6.04
X5.14Y-4.9251
X5.176Y-4.7511
X5.178Y-4.8774
X5.1877Y-4.6727
X5.3283Y-5.0731
X5.3283Y-5.1491
T2
X3.1283Y-6.4764
X3.2283Y-6.4764
X4.1398Y-6.4764
X4.2398Y-6.4764
X4.3398Y-6.4764
X4.4398Y-6.4764
X4.472Y-4.3871
X4.472Y-4.4871
X4.5384Y-6.144
X4.5398Y-6.4764
X4.572Y-4.3871
X4.572Y-4.4871
X4.6384Y-6.144
X4.6398Y-6.4764
X4.672Y-4.3871
X4.672Y-4.4871
T3
X4.926Y-6.2992
X4.926Y-6.4764
X5.182Y-6.2992
X5.182Y-6.4764
T4
X3.937Y-5.561
T2
G00X2.7441Y-6.0157
M15
G01X2.8465Y-6.0157
M16
G05
G00X2.752Y-6.2638
M15
G01X2.8386Y-6.2638
M16
G05
G00X2.9843Y-6.0866
M15
G01X2.9843Y-6.1732
M16
G05
T0
M30
